<?xml version="1.0" encoding="UTF-8"?>
<svg id="Layer_2" data-name="Layer 2" xmlns="http://www.w3.org/2000/svg" viewBox="0 0 550 215.11">
  <defs>
    <style>
      .cls-1 {
        fill: #fff;
      }

      .cls-2 {
        fill: #e50914;
      }
    </style>
  </defs>
  <g id="Layer_1-2" data-name="Layer 1">
    <g>
      <g>
        <g>
          <path class="cls-1" d="M147.94,24.09h7.47l2.92,15.11h.57c.43-5.09,2.1-9.08,4.99-11.98,2.9-2.9,6.84-4.34,11.82-4.34,6.01,0,10.67,1.86,13.97,5.56,3.3,3.71,4.96,8.95,4.96,15.72s-1.6,12.01-4.79,15.72c-3.2,3.71-7.69,5.56-13.48,5.56-4.93,0-8.93-1.46-12.02-4.39s-4.9-6.99-5.44-12.18h-.57l.49,13.24v17.3h-10.88V24.09ZM162.65,53.29c2.28,2.14,5.41,3.21,9.42,3.21,3.68,0,6.53-1.08,8.53-3.25,2-2.16,3.01-5.2,3.01-9.1s-1-7-3.01-9.14c-2-2.14-4.85-3.21-8.53-3.21-4.06,0-7.22,1.1-9.46,3.29-2.25,2.19-3.37,5.29-3.37,9.3,0,3.79,1.14,6.76,3.41,8.89Z"/>
          <path class="cls-1" d="M212.03,3.78v60.43h-10.88V3.78h10.88Z"/>
          <path class="cls-1" d="M250.37,50.16h-.57c-.16,2.33-.81,4.66-1.95,6.99-1.14,2.33-2.91,4.28-5.32,5.85-2.41,1.57-5.46,2.36-9.14,2.36-4.55,0-8.06-1.06-10.52-3.17-2.47-2.11-3.7-5.01-3.7-8.69,0-4.17,1.52-7.24,4.55-9.22,3.03-1.98,7.15-2.96,12.35-2.96,4.55,0,9.12.35,13.73,1.06v-1.46c-.06-2.92-.98-5.13-2.76-6.62-1.79-1.49-4.33-2.23-7.64-2.23-4.93,0-9.8,1.06-14.62,3.17l-.98-9.02c2.33-1.08,4.93-1.91,7.8-2.48,2.87-.57,5.79-.85,8.77-.85,6.88,0,11.98,1.5,15.31,4.51,3.33,3,5,7.19,5,12.55v24.29h-7.55l-2.76-14.05ZM232.3,55.48c1.38,1,3.26,1.5,5.64,1.5,3.09,0,5.78-.89,8.08-2.68s3.59-4.52,3.86-8.2v-.65c-3.79-.32-6.93-.49-9.42-.49-3.36,0-5.9.53-7.64,1.58-1.73,1.06-2.6,2.61-2.6,4.67,0,1.84.69,3.26,2.07,4.26Z"/>
          <path class="cls-1" d="M275.02,80.26c-1.87-.24-3.29-.56-4.27-.93l.49-8.53c2.22.49,4.96.73,8.2.73,3.9,0,6.47-1.57,7.72-4.71l1.22-2.84h-10.15l-13.97-39.88h11.37l12.75,39.07h.33l12.83-39.07h11.29l-13.97,39.88-1.79,4.39c-1.62,4.44-3.72,7.59-6.3,9.46-2.57,1.87-6.05,2.8-10.44,2.8-1.68,0-3.45-.12-5.32-.37Z"/>
          <path class="cls-1" d="M350.11,64.21h-20.71l-13.97-40.12h11.37l12.75,39.31h.32l12.83-39.31h11.29l-13.89,40.12Z"/>
          <path class="cls-1" d="M381.46,64.21h-10.97v-31.27h-3.82v-8.85h14.78v40.12ZM369.85,16.49c-1.14-.89-1.71-2.18-1.71-3.86s.57-2.96,1.71-3.86c1.14-.89,2.76-1.34,4.87-1.34s3.66.45,4.79,1.34c1.14.89,1.71,2.18,1.71,3.86s-.57,2.96-1.71,3.86c-1.14.89-2.74,1.34-4.79,1.34s-3.74-.45-4.87-1.34Z"/>
          <path class="cls-1" d="M393.81,25.84c3.25-1.98,7.85-2.96,13.81-2.96,3.09,0,6.08.27,8.98.81,2.9.54,5.4,1.27,7.51,2.19l-.57,8.85c-2.17-.97-4.62-1.73-7.35-2.27-2.73-.54-5.4-.81-8-.81-4.98,0-7.47,1.38-7.47,4.14,0,1.35.64,2.41,1.91,3.17,1.27.76,3.48,1.41,6.62,1.95,5.85.92,10.14,2.33,12.87,4.22,2.74,1.9,4.1,4.55,4.1,7.96,0,3.9-1.77,6.93-5.32,9.1-3.55,2.17-8.52,3.25-14.91,3.25-7.04,0-12.91-1.06-17.62-3.17l.57-9.26c2.6,1.19,5.35,2.11,8.24,2.76,2.9.65,5.73.97,8.49.97,5.74,0,8.61-1.57,8.61-4.71,0-1.57-.72-2.79-2.15-3.65-1.43-.87-3.72-1.52-6.86-1.95-5.85-.92-10.03-2.29-12.55-4.1-2.52-1.81-3.78-4.45-3.78-7.92,0-3.74,1.62-6.59,4.87-8.57Z"/>
          <path class="cls-1" d="M445.06,64.21h-10.97v-31.27h-3.82v-8.85h14.78v40.12ZM433.44,16.49c-1.14-.89-1.71-2.18-1.71-3.86s.57-2.96,1.71-3.86c1.14-.89,2.76-1.34,4.87-1.34s3.65.45,4.79,1.34c1.14.89,1.71,2.18,1.71,3.86s-.57,2.96-1.71,3.86c-1.14.89-2.74,1.34-4.79,1.34s-3.74-.45-4.87-1.34Z"/>
          <path class="cls-1" d="M458.78,59.83c-4.12-3.74-6.17-8.96-6.17-15.68s2.06-11.94,6.17-15.68c4.11-3.74,9.88-5.6,17.3-5.6s13.19,1.87,17.3,5.6c4.12,3.74,6.17,8.99,6.17,15.76s-2.06,11.93-6.17,15.64c-4.12,3.71-9.88,5.56-17.3,5.56s-13.19-1.87-17.3-5.61ZM466.87,53.49c2.14,2.17,5.21,3.25,9.22,3.25s7-1.08,9.14-3.25c2.14-2.17,3.21-5.28,3.21-9.34s-1.07-7.19-3.21-9.38c-2.14-2.19-5.19-3.29-9.14-3.29s-7.08,1.08-9.22,3.25c-2.14,2.17-3.21,5.31-3.21,9.42s1.07,7.17,3.21,9.34Z"/>
          <path class="cls-1" d="M513.29,24.09l3.01,15.76h.41c.38-4.93,1.99-8.99,4.83-12.18,2.84-3.19,6.86-4.79,12.06-4.79s9.1,1.57,12.02,4.71c2.92,3.14,4.39,7.53,4.39,13.16v23.47h-10.88v-22.42c0-3.19-.88-5.67-2.64-7.43-1.76-1.76-4.26-2.64-7.51-2.64-3.85,0-6.85,1.4-9.02,4.18-2.17,2.79-3.25,6.27-3.25,10.44v17.87h-10.97V24.09h7.55Z"/>
        </g>
        <g>
          <path class="cls-2" d="M24,30.42c-1.41-3.99,2.43-7.83,6.42-6.42l59.33,20.86c2.7.95,5.54-1.11,5.44-3.97-.19-5.74-.62-11.48-1.32-17.2-.7-5.83-3.35-11.05-7.28-14.98-3.93-3.93-9.14-6.58-14.98-7.28-7.96-.96-15.97-1.43-23.96-1.43s-16.01.47-23.96,1.43c-5.83.7-11.05,3.35-14.98,7.28-3.93,3.94-6.58,9.15-7.28,14.98-.96,7.96-1.43,15.97-1.43,23.96s.47,16.01,1.43,23.96c1.41,11.66,10.6,20.86,22.26,22.26,5.72.69,11.45,1.13,17.2,1.32,2.86.09,4.92-2.74,3.97-5.44L24,30.42Z"/>
          <path class="cls-2" d="M68.19,64.74c-1.66.49-2.97,1.79-3.45,3.45l-6.15,21.34c-.78,2.72,1.37,5.42,4.2,5.21,2.95-.22,5.9-.5,8.84-.85,5.83-.7,11.05-3.35,14.98-7.28,3.93-3.93,6.58-9.14,7.28-14.98.36-2.94.64-5.89.85-8.84.21-2.82-2.49-4.98-5.21-4.2l-21.34,6.15Z"/>
        </g>
      </g>
      <g>
        <path class="cls-1" d="M151.02,142.31h-2.94v-14.31h2.94v5.85h7.7v-5.85h2.94v14.31h-2.94v-5.85h-7.7v5.85Z"/>
        <path class="cls-1" d="M170.87,127.72c1.72,0,3.12.45,4.2,1.34,1.08.9,1.62,2.18,1.62,3.86v9.38h-2.94v-2.13c-1.18,1.61-2.84,2.41-4.98,2.41-1.36,0-2.47-.36-3.33-1.09s-1.29-1.7-1.29-2.91c0-1.4.49-2.45,1.48-3.15.99-.7,2.25-1.13,3.78-1.3l2.77-.28c1.04-.09,1.57-.56,1.57-1.4,0-.69-.27-1.24-.8-1.65-.53-.41-1.23-.62-2.09-.62s-1.62.22-2.23.67c-.61.45-.99,1.1-1.16,1.96l-2.91-.7c.26-1.34.96-2.41,2.1-3.21,1.14-.79,2.54-1.19,4.2-1.19ZM169.42,140.21c1.21,0,2.24-.41,3.08-1.22.84-.81,1.26-1.76,1.26-2.84v-.56c-.24.22-.78.38-1.62.48l-2.72.34c-.71.09-1.27.3-1.69.63s-.63.77-.63,1.33.21,1.01.63,1.34.98.5,1.69.5Z"/>
        <path class="cls-1" d="M190.19,135c.75.3,1.32.75,1.72,1.36.4.61.6,1.29.6,2.06,0,1.12-.44,2.05-1.32,2.79-.88.74-2.01,1.11-3.39,1.11h-7.95v-14.31h7.31c1.36,0,2.49.37,3.37,1.11.89.74,1.33,1.68,1.33,2.81,0,1.34-.56,2.37-1.68,3.08ZM187,130.47h-4.34v3.47h4.34c.58,0,1.05-.17,1.43-.5.37-.34.56-.76.56-1.26s-.19-.89-.56-1.22c-.37-.33-.85-.49-1.43-.49ZM182.66,139.85h5.01c.58,0,1.05-.16,1.41-.49.36-.33.55-.75.55-1.27,0-.49-.18-.89-.55-1.22-.36-.33-.83-.49-1.41-.49h-5.01v3.47Z"/>
        <path class="cls-1" d="M195.61,125.18c-.36-.35-.55-.78-.55-1.29s.18-.93.55-1.29.8-.53,1.3-.53.93.18,1.29.53.53.78.53,1.29-.18.93-.53,1.29c-.35.35-.78.53-1.29.53s-.94-.18-1.3-.53ZM198.37,142.31h-2.94v-14.31h2.94v14.31Z"/>
        <path class="cls-1" d="M204.61,142.31h-2.94v-14.31h10.33v2.6h-7.39v11.7Z"/>
        <path class="cls-1" d="M219.31,127.72c1.72,0,3.12.45,4.2,1.34,1.08.9,1.62,2.18,1.62,3.86v9.38h-2.94v-2.13c-1.18,1.61-2.84,2.41-4.98,2.41-1.36,0-2.47-.36-3.33-1.09-.86-.73-1.29-1.7-1.29-2.91,0-1.4.49-2.45,1.48-3.15s2.25-1.13,3.78-1.3l2.77-.28c1.04-.09,1.57-.56,1.57-1.4,0-.69-.27-1.24-.8-1.65s-1.23-.62-2.09-.62-1.62.22-2.23.67c-.61.45-.99,1.1-1.16,1.96l-2.91-.7c.26-1.34.96-2.41,2.1-3.21s2.54-1.19,4.2-1.19ZM217.86,140.21c1.21,0,2.24-.41,3.08-1.22s1.26-1.76,1.26-2.84v-.56c-.24.22-.78.38-1.62.48l-2.72.34c-.71.09-1.27.3-1.69.63s-.63.77-.63,1.33.21,1.01.63,1.34.98.5,1.69.5Z"/>
        <path class="cls-1" d="M234.57,142.31h-2.94v-11.7h-4.93v-2.6h12.77v2.6h-4.9v11.7Z"/>
        <path class="cls-1" d="M242.55,140.46c-1.46-1.42-2.18-3.18-2.18-5.29s.73-3.88,2.18-5.31c1.46-1.43,3.26-2.14,5.4-2.14s3.95.71,5.4,2.14c1.46,1.43,2.18,3.2,2.18,5.31s-.73,3.87-2.18,5.29c-1.46,1.42-3.26,2.13-5.4,2.13s-3.95-.71-5.4-2.13ZM244.71,131.8c-.88.91-1.32,2.03-1.32,3.37s.44,2.46,1.32,3.36c.88.9,1.96,1.34,3.25,1.34s2.39-.45,3.26-1.34c.87-.9,1.3-2.02,1.3-3.36s-.43-2.49-1.3-3.39c-.87-.9-1.96-1.34-3.26-1.34s-2.37.45-3.25,1.36Z"/>
        <path class="cls-1" d="M266.33,127.72c2,0,3.67.71,5.03,2.14,1.35,1.43,2.03,3.2,2.03,5.31s-.68,3.87-2.03,5.29c-1.35,1.42-3.03,2.13-5.03,2.13-2.13,0-3.83-.8-5.1-2.41v7.73h-2.94v-19.91h2.94v2.13c1.27-1.6,2.97-2.41,5.1-2.41ZM265.79,139.88c1.29,0,2.37-.45,3.23-1.34.87-.9,1.3-2.02,1.3-3.36s-.43-2.49-1.3-3.39c-.87-.9-1.95-1.34-3.23-1.34s-2.39.45-3.26,1.34-1.3,2.03-1.3,3.39.43,2.46,1.3,3.36,1.96,1.34,3.26,1.34Z"/>
        <path class="cls-1" d="M165.33,168.77c0,2.07-.71,3.82-2.13,5.24-1.42,1.42-3.18,2.15-5.29,2.18v5.32h-2.94v-5.32c-2.13-.04-3.9-.77-5.32-2.18-1.42-1.42-2.13-3.16-2.13-5.24s.71-3.85,2.13-5.26c1.42-1.42,3.19-2.15,5.32-2.18v-6.13h2.94v6.13c2.11.04,3.87.77,5.29,2.18,1.42,1.42,2.13,3.17,2.13,5.26ZM150.55,168.77c0,1.31.42,2.41,1.26,3.3s1.89,1.36,3.16,1.4v-9.44c-1.27.04-2.32.5-3.16,1.4s-1.26,2.01-1.26,3.33ZM157.91,164.04v9.44c1.27-.04,2.32-.5,3.15-1.4.83-.9,1.25-2,1.25-3.3s-.42-2.44-1.25-3.33c-.83-.9-1.88-1.36-3.15-1.4Z"/>
        <path class="cls-1" d="M173.17,172.97l4.4-11.37h3l-8.18,19.91h-3l2.16-5.24-5.99-14.67h3.19l4.42,11.37Z"/>
        <path class="cls-1" d="M189.02,175.91h-2.94v-11.7h-4.93v-2.6h12.77v2.6h-4.9v11.7Z"/>
        <path class="cls-1" d="M204.14,161.88c1.94,0,3.55.68,4.83,2.03,1.28,1.35,1.92,3.01,1.92,4.97,0,2.09-.71,3.83-2.13,5.22-1.42,1.39-3.19,2.09-5.32,2.09s-3.96-.72-5.39-2.17c-1.43-1.45-2.14-3.38-2.14-5.81,0-3.08.38-5.53,1.13-7.36.76-1.83,1.95-3.14,3.57-3.92,1.04-.5,2.58-.89,4.61-1.16,2.02-.27,3.58-.56,4.66-.85v2.69c-.78.24-2.13.49-4.05.76-1.91.26-3.21.56-3.91.9-1.49.73-2.43,2.35-2.8,4.87,1.29-1.49,2.96-2.24,5.01-2.24ZM200.27,172.2c.84.85,1.89,1.27,3.16,1.27s2.32-.42,3.16-1.27c.84-.85,1.26-1.9,1.26-3.15s-.42-2.33-1.26-3.18c-.84-.85-1.89-1.27-3.16-1.27s-2.32.42-3.16,1.27c-.84.85-1.26,1.91-1.26,3.18s.42,2.3,1.26,3.15Z"/>
        <path class="cls-1" d="M215.28,174.06c-1.46-1.42-2.18-3.18-2.18-5.29s.73-3.88,2.18-5.31c1.46-1.43,3.26-2.14,5.4-2.14s3.95.71,5.4,2.14c1.46,1.43,2.18,3.2,2.18,5.31s-.73,3.87-2.18,5.29c-1.46,1.42-3.26,2.13-5.4,2.13s-3.95-.71-5.4-2.13ZM217.44,165.4c-.88.91-1.32,2.03-1.32,3.37s.44,2.46,1.32,3.36c.88.9,1.96,1.34,3.25,1.34s2.39-.45,3.26-1.34,1.3-2.02,1.3-3.36-.43-2.49-1.3-3.39-1.96-1.34-3.26-1.34-2.37.45-3.25,1.36Z"/>
        <path class="cls-1" d="M229.31,176.14h-.22v-2.63h.36c.69,0,1.21-.1,1.57-.29.35-.2.63-.64.84-1.33.21-.69.31-1.73.31-3.11v-7.17h11.87v14.31h-2.94v-11.7h-6.16v4.56c0,2.61-.42,4.49-1.26,5.64s-2.3,1.72-4.37,1.72Z"/>
        <path class="cls-1" d="M254.31,175.91h-6.97v-14.31h2.94v4.51h4.03c1.61,0,2.9.46,3.88,1.37.98.92,1.47,2.09,1.47,3.53s-.49,2.61-1.47,3.53c-.98.92-2.27,1.37-3.88,1.37ZM250.28,168.72v4.59h3.72c.78,0,1.42-.21,1.9-.64.48-.43.73-.98.73-1.65s-.24-1.22-.73-1.65c-.49-.43-1.12-.64-1.9-.64h-3.72Z"/>
        <path class="cls-1" d="M265.07,175.91h-2.94v-14.31h2.94v5.85h7.7v-5.85h2.94v14.31h-2.94v-5.85h-7.7v5.85Z"/>
        <path class="cls-1" d="M280.66,174.06c-1.46-1.42-2.18-3.18-2.18-5.29s.73-3.88,2.18-5.31c1.46-1.43,3.26-2.14,5.4-2.14s3.95.71,5.4,2.14c1.46,1.43,2.18,3.2,2.18,5.31s-.73,3.87-2.18,5.29c-1.46,1.42-3.26,2.13-5.4,2.13s-3.95-.71-5.4-2.13ZM282.82,165.4c-.88.91-1.32,2.03-1.32,3.37s.44,2.46,1.32,3.36c.88.9,1.96,1.34,3.25,1.34s2.39-.45,3.26-1.34c.87-.9,1.3-2.02,1.3-3.36s-.43-2.49-1.3-3.39c-.87-.9-1.96-1.34-3.26-1.34s-2.37.45-3.25,1.36Z"/>
        <path class="cls-1" d="M299.34,175.91h-2.94v-14.31h10.33v2.6h-7.39v11.7Z"/>
        <path class="cls-1" d="M309.75,174.06c-1.46-1.42-2.18-3.18-2.18-5.29s.73-3.88,2.18-5.31c1.46-1.43,3.26-2.14,5.4-2.14s3.95.71,5.4,2.14c1.46,1.43,2.18,3.2,2.18,5.31s-.73,3.87-2.18,5.29c-1.46,1.42-3.26,2.13-5.4,2.13s-3.95-.71-5.4-2.13ZM311.91,165.4c-.88.91-1.32,2.03-1.32,3.37s.44,2.46,1.32,3.36c.88.9,1.96,1.34,3.25,1.34s2.39-.45,3.26-1.34c.87-.9,1.3-2.02,1.3-3.36s-.43-2.49-1.3-3.39c-.87-.9-1.96-1.34-3.26-1.34s-2.37.45-3.25,1.36Z"/>
        <path class="cls-1" d="M156.12,194.92c2,0,3.67.71,5.03,2.14,1.35,1.43,2.03,3.2,2.03,5.31s-.68,3.87-2.03,5.29c-1.35,1.42-3.03,2.13-5.03,2.13-2.13,0-3.83-.8-5.1-2.41v7.73h-2.94v-19.91h2.94v2.13c1.27-1.6,2.97-2.41,5.1-2.41ZM155.59,207.08c1.29,0,2.37-.45,3.23-1.34.87-.9,1.3-2.02,1.3-3.36s-.43-2.49-1.3-3.39c-.87-.9-1.95-1.34-3.23-1.34s-2.39.45-3.26,1.34-1.3,2.03-1.3,3.39.43,2.46,1.3,3.36,1.96,1.34,3.26,1.34Z"/>
        <path class="cls-1" d="M167.4,207.66c-1.46-1.42-2.18-3.18-2.18-5.29s.73-3.88,2.18-5.31c1.46-1.43,3.26-2.14,5.4-2.14s3.95.71,5.4,2.14c1.46,1.43,2.18,3.2,2.18,5.31s-.73,3.87-2.18,5.29c-1.46,1.42-3.26,2.13-5.4,2.13s-3.95-.71-5.4-2.13ZM169.56,199c-.88.91-1.32,2.03-1.32,3.37s.44,2.46,1.32,3.36c.88.9,1.96,1.34,3.25,1.34s2.39-.45,3.26-1.34,1.3-2.02,1.3-3.36-.43-2.49-1.3-3.39-1.96-1.34-3.26-1.34-2.37.45-3.25,1.36Z"/>
        <path class="cls-1" d="M191.57,202.34c1.68.71,2.52,1.81,2.52,3.3,0,1.27-.56,2.28-1.69,3.02-1.13.75-2.55,1.12-4.27,1.12-1.25,0-2.44-.21-3.57-.62-1.13-.41-2.06-1-2.79-1.76l1.62-1.99c.63.6,1.39,1.05,2.25,1.36.87.31,1.69.46,2.48.46.91,0,1.63-.17,2.14-.52.51-.35.77-.79.77-1.33,0-1.21-1.17-1.82-3.5-1.82h-1.99v-2.44h1.99c2.33,0,3.5-.61,3.5-1.82,0-.52-.26-.96-.78-1.32s-1.23-.53-2.13-.53c-.78,0-1.61.15-2.49.46-.88.31-1.62.76-2.24,1.36l-1.62-1.99c.75-.77,1.68-1.35,2.81-1.76,1.13-.41,2.31-.62,3.54-.62,1.72,0,3.14.37,4.27,1.11,1.13.74,1.69,1.75,1.69,3.04,0,.71-.22,1.35-.66,1.93-.44.58-1.06,1.03-1.86,1.34Z"/>
        <path class="cls-1" d="M207.3,202.2c.75.3,1.32.75,1.72,1.36.4.61.6,1.29.6,2.06,0,1.12-.44,2.05-1.32,2.79-.88.74-2.01,1.11-3.39,1.11h-7.95v-14.31h7.31c1.36,0,2.49.37,3.37,1.11.89.74,1.33,1.68,1.33,2.81,0,1.34-.56,2.37-1.68,3.08ZM204.11,197.67h-4.34v3.47h4.34c.58,0,1.05-.17,1.43-.5.37-.34.56-.76.56-1.26s-.19-.89-.56-1.22c-.37-.33-.85-.49-1.43-.49ZM199.77,207.05h5.01c.58,0,1.05-.16,1.41-.49.36-.33.55-.75.55-1.27,0-.49-.18-.89-.55-1.22-.36-.33-.83-.49-1.41-.49h-5.01v3.47Z"/>
        <path class="cls-1" d="M215.48,205.28l7.92-10.08h2.88v14.31h-2.94v-10.08l-7.95,10.08h-2.86v-14.31h2.94v10.08Z"/>
        <path class="cls-1" d="M236.42,209.51h-2.94v-11.7h-4.93v-2.6h12.77v2.6h-4.9v11.7Z"/>
        <path class="cls-1" d="M256.78,195.2l-5.18,6.94,5.63,7.36h-3.56l-4.65-5.85h-2.49v5.85h-2.94v-14.31h2.94v5.85h2.49l4.54-5.85h3.22Z"/>
        <path class="cls-1" d="M265.21,206.57l4.4-11.37h3l-8.18,19.91h-3l2.16-5.24-5.99-14.67h3.19l4.42,11.37Z"/>
      </g>
    </g>
  </g>
</svg>