<?xml version="1.0" encoding="UTF-8"?>
<svg id="Layer_2" data-name="Layer 2" xmlns="http://www.w3.org/2000/svg" viewBox="0 0 545.6 791.56">
  <defs>
    <style>
      .cls-1 {
        fill: none;
        stroke: #fff;
        stroke-miterlimit: 10;
        stroke-width: .25px;
      }
    </style>
  </defs>
  <g id="Layer_2-2" data-name="Layer 2">
    <g id="Layer_1-2" data-name="Layer 1">
      <g>
        <line class="cls-1" x1="9.32" y1=".12" x2=".12" y2=".12"/>
        <polyline class="cls-1" points="36.59 .12 27.39 .12 18.19 .12"/>
        <polyline class="cls-1" points="63.86 .12 54.66 .12 45.46 .12"/>
        <polyline class="cls-1" points="91.13 .12 81.93 .12 72.73 .12"/>
        <polyline class="cls-1" points="118.4 .12 109.2 .12 100 .12"/>
        <polyline class="cls-1" points="145.66 .12 136.46 .12 127.27 .12"/>
        <polyline class="cls-1" points="172.93 .12 163.73 .12 154.53 .12"/>
        <polyline class="cls-1" points="200.2 .12 191 .12 181.8 .12"/>
        <polyline class="cls-1" points="227.46 .12 218.26 .12 209.07 .12"/>
        <polyline class="cls-1" points="254.73 .12 245.53 .12 236.33 .12"/>
        <polyline class="cls-1" points="282 .12 272.8 .12 263.6 .12"/>
        <polyline class="cls-1" points="309.27 .12 300.07 .12 290.87 .12"/>
        <polyline class="cls-1" points="336.54 .12 327.34 .12 318.14 .12"/>
        <polyline class="cls-1" points="363.8 .12 354.6 .12 345.41 .12"/>
        <polyline class="cls-1" points="391.07 .12 381.87 .12 372.67 .12"/>
        <polyline class="cls-1" points="418.34 .12 409.14 .12 399.94 .12"/>
        <polyline class="cls-1" points="445.6 .12 436.4 .12 427.2 .12"/>
        <polyline class="cls-1" points="472.87 .12 463.67 .12 454.47 .12"/>
        <polyline class="cls-1" points="500.14 .12 490.94 .12 481.74 .12"/>
        <polyline class="cls-1" points="527.41 .12 518.21 .12 509.01 .12"/>
        <line class="cls-1" x1="545.48" y1=".12" x2="536.28" y2=".12"/>
        <line class="cls-1" x1="545.48" y1="9.32" x2="545.48" y2=".12"/>
        <line class="cls-1" x1="518.21" y1="9.32" x2="518.21" y2=".12"/>
        <line class="cls-1" x1="490.94" y1="9.32" x2="490.94" y2=".12"/>
        <line class="cls-1" x1="463.67" y1="9.32" x2="463.67" y2=".12"/>
        <line class="cls-1" x1="436.4" y1="9.32" x2="436.4" y2=".12"/>
        <line class="cls-1" x1="409.14" y1="9.32" x2="409.14" y2=".12"/>
        <line class="cls-1" x1="381.87" y1="9.32" x2="381.87" y2=".12"/>
        <line class="cls-1" x1="354.6" y1="9.32" x2="354.6" y2=".12"/>
        <line class="cls-1" x1="327.34" y1="9.32" x2="327.34" y2=".12"/>
        <line class="cls-1" x1="300.07" y1="9.32" x2="300.07" y2=".12"/>
        <line class="cls-1" x1="272.8" y1="9.32" x2="272.8" y2=".12"/>
        <line class="cls-1" x1="245.53" y1="9.32" x2="245.53" y2=".12"/>
        <line class="cls-1" x1="218.26" y1="9.32" x2="218.26" y2=".12"/>
        <line class="cls-1" x1="191" y1="9.32" x2="191" y2=".12"/>
        <line class="cls-1" x1="163.73" y1="9.32" x2="163.73" y2=".12"/>
        <line class="cls-1" x1="136.46" y1="9.32" x2="136.46" y2=".12"/>
        <line class="cls-1" x1="109.2" y1="9.32" x2="109.2" y2=".12"/>
        <line class="cls-1" x1="81.93" y1="9.32" x2="81.93" y2=".12"/>
        <line class="cls-1" x1="54.66" y1="9.32" x2="54.66" y2=".12"/>
        <line class="cls-1" x1="27.39" y1="9.32" x2="27.39" y2=".12"/>
        <line class="cls-1" x1=".12" y1="9.32" x2=".12" y2=".12"/>
        <line class="cls-1" x1="9.32" y1="273.36" x2=".12" y2="273.36"/>
        <polyline class="cls-1" points="31.99 273.36 27.39 273.36 22.79 273.36"/>
        <polyline class="cls-1" points="59.26 273.36 54.66 273.36 50.06 273.36"/>
        <polyline class="cls-1" points="86.53 273.36 81.93 273.36 77.33 273.36"/>
        <polyline class="cls-1" points="113.8 273.36 109.2 273.36 104.6 273.36"/>
        <polyline class="cls-1" points="141.06 273.36 136.46 273.36 131.86 273.36"/>
        <polyline class="cls-1" points="168.33 273.36 163.73 273.36 159.13 273.36"/>
        <polyline class="cls-1" points="195.6 273.36 191 273.36 186.4 273.36"/>
        <polyline class="cls-1" points="222.87 273.36 218.27 273.36 213.67 273.36"/>
        <polyline class="cls-1" points="250.13 273.36 245.53 273.36 240.93 273.36"/>
        <polyline class="cls-1" points="277.4 273.36 272.8 273.36 268.2 273.36"/>
        <polyline class="cls-1" points="304.67 273.36 300.07 273.36 295.47 273.36"/>
        <polyline class="cls-1" points="331.94 273.36 327.34 273.36 322.74 273.36"/>
        <polyline class="cls-1" points="359.2 273.36 354.6 273.36 350 273.36"/>
        <polyline class="cls-1" points="386.47 273.36 381.87 273.36 377.27 273.36"/>
        <polyline class="cls-1" points="413.74 273.36 409.14 273.36 404.54 273.36"/>
        <polyline class="cls-1" points="441 273.36 436.4 273.36 431.8 273.36"/>
        <polyline class="cls-1" points="468.27 273.36 463.67 273.36 459.07 273.36"/>
        <polyline class="cls-1" points="495.54 273.36 490.94 273.36 486.34 273.36"/>
        <polyline class="cls-1" points="522.81 273.36 518.21 273.36 513.61 273.36"/>
        <line class="cls-1" x1="545.48" y1="273.36" x2="536.28" y2="273.36"/>
        <line class="cls-1" x1="545.48" y1="282.56" x2="545.48" y2="264.16"/>
        <line class="cls-1" x1="518.21" y1="277.96" x2="518.21" y2="268.76"/>
        <line class="cls-1" x1="490.94" y1="277.96" x2="490.94" y2="268.76"/>
        <line class="cls-1" x1="463.67" y1="277.96" x2="463.67" y2="268.76"/>
        <line class="cls-1" x1="436.4" y1="277.96" x2="436.4" y2="268.76"/>
        <line class="cls-1" x1="409.14" y1="277.96" x2="409.14" y2="268.76"/>
        <line class="cls-1" x1="381.87" y1="277.96" x2="381.87" y2="268.76"/>
        <line class="cls-1" x1="354.6" y1="277.96" x2="354.6" y2="268.76"/>
        <line class="cls-1" x1="327.34" y1="277.96" x2="327.34" y2="268.76"/>
        <line class="cls-1" x1="300.07" y1="277.96" x2="300.07" y2="268.76"/>
        <line class="cls-1" x1="272.8" y1="277.96" x2="272.8" y2="268.76"/>
        <line class="cls-1" x1="245.53" y1="277.96" x2="245.53" y2="268.76"/>
        <line class="cls-1" x1="218.26" y1="277.96" x2="218.26" y2="268.76"/>
        <line class="cls-1" x1="191" y1="277.96" x2="191" y2="268.76"/>
        <line class="cls-1" x1="163.73" y1="277.96" x2="163.73" y2="268.76"/>
        <line class="cls-1" x1="136.46" y1="277.96" x2="136.46" y2="268.76"/>
        <line class="cls-1" x1="109.2" y1="277.96" x2="109.2" y2="268.76"/>
        <line class="cls-1" x1="81.93" y1="277.96" x2="81.93" y2="268.76"/>
        <line class="cls-1" x1="54.66" y1="277.96" x2="54.66" y2="268.76"/>
        <line class="cls-1" x1="27.39" y1="277.96" x2="27.39" y2="268.76"/>
        <line class="cls-1" x1=".12" y1="282.56" x2=".12" y2="264.16"/>
        <line class="cls-1" x1="9.32" y1="300.63" x2=".12" y2="300.63"/>
        <polyline class="cls-1" points="31.99 300.63 27.39 300.63 22.79 300.63"/>
        <polyline class="cls-1" points="59.26 300.63 54.66 300.63 50.06 300.63"/>
        <polyline class="cls-1" points="86.53 300.63 81.93 300.63 77.33 300.63"/>
        <polyline class="cls-1" points="113.8 300.63 109.2 300.63 104.6 300.63"/>
        <polyline class="cls-1" points="141.06 300.63 136.46 300.63 131.86 300.63"/>
        <polyline class="cls-1" points="168.33 300.63 163.73 300.63 159.13 300.63"/>
        <polyline class="cls-1" points="195.6 300.63 191 300.63 186.4 300.63"/>
        <polyline class="cls-1" points="222.87 300.63 218.27 300.63 213.67 300.63"/>
        <polyline class="cls-1" points="250.13 300.63 245.53 300.63 240.93 300.63"/>
        <polyline class="cls-1" points="277.4 300.63 272.8 300.63 268.2 300.63"/>
        <polyline class="cls-1" points="304.67 300.63 300.07 300.63 295.47 300.63"/>
        <polyline class="cls-1" points="331.94 300.63 327.34 300.63 322.74 300.63"/>
        <polyline class="cls-1" points="359.2 300.63 354.6 300.63 350 300.63"/>
        <polyline class="cls-1" points="386.47 300.63 381.87 300.63 377.27 300.63"/>
        <polyline class="cls-1" points="413.74 300.63 409.14 300.63 404.54 300.63"/>
        <polyline class="cls-1" points="441 300.63 436.4 300.63 431.8 300.63"/>
        <polyline class="cls-1" points="468.27 300.63 463.67 300.63 459.07 300.63"/>
        <polyline class="cls-1" points="495.54 300.63 490.94 300.63 486.34 300.63"/>
        <polyline class="cls-1" points="522.81 300.63 518.21 300.63 513.61 300.63"/>
        <line class="cls-1" x1="545.48" y1="300.63" x2="536.28" y2="300.63"/>
        <line class="cls-1" x1="545.48" y1="309.83" x2="545.48" y2="291.43"/>
        <line class="cls-1" x1="518.21" y1="305.23" x2="518.21" y2="296.03"/>
        <line class="cls-1" x1="490.94" y1="305.23" x2="490.94" y2="296.03"/>
        <line class="cls-1" x1="463.67" y1="305.23" x2="463.67" y2="296.03"/>
        <line class="cls-1" x1="436.4" y1="305.23" x2="436.4" y2="296.03"/>
        <line class="cls-1" x1="409.14" y1="305.23" x2="409.14" y2="296.03"/>
        <line class="cls-1" x1="381.87" y1="305.23" x2="381.87" y2="296.03"/>
        <line class="cls-1" x1="354.6" y1="305.23" x2="354.6" y2="296.03"/>
        <line class="cls-1" x1="327.34" y1="305.23" x2="327.34" y2="296.03"/>
        <line class="cls-1" x1="300.07" y1="305.23" x2="300.07" y2="296.03"/>
        <line class="cls-1" x1="272.8" y1="305.23" x2="272.8" y2="296.03"/>
        <line class="cls-1" x1="245.53" y1="305.23" x2="245.53" y2="296.03"/>
        <line class="cls-1" x1="218.26" y1="305.23" x2="218.26" y2="296.03"/>
        <line class="cls-1" x1="191" y1="305.23" x2="191" y2="296.03"/>
        <line class="cls-1" x1="163.73" y1="305.23" x2="163.73" y2="296.03"/>
        <line class="cls-1" x1="136.46" y1="305.23" x2="136.46" y2="296.03"/>
        <line class="cls-1" x1="109.2" y1="305.23" x2="109.2" y2="296.03"/>
        <line class="cls-1" x1="81.93" y1="305.23" x2="81.93" y2="296.03"/>
        <line class="cls-1" x1="54.66" y1="305.23" x2="54.66" y2="296.03"/>
        <line class="cls-1" x1="27.39" y1="305.23" x2="27.39" y2="296.03"/>
        <line class="cls-1" x1=".12" y1="309.83" x2=".12" y2="291.43"/>
        <line class="cls-1" x1="9.32" y1="327.9" x2=".12" y2="327.9"/>
        <polyline class="cls-1" points="31.99 327.9 27.39 327.9 22.79 327.9"/>
        <polyline class="cls-1" points="59.26 327.9 54.66 327.9 50.06 327.9"/>
        <polyline class="cls-1" points="86.53 327.9 81.93 327.9 77.33 327.9"/>
        <polyline class="cls-1" points="113.8 327.9 109.2 327.9 104.6 327.9"/>
        <polyline class="cls-1" points="141.06 327.9 136.46 327.9 131.86 327.9"/>
        <polyline class="cls-1" points="168.33 327.9 163.73 327.9 159.13 327.9"/>
        <polyline class="cls-1" points="195.6 327.9 191 327.9 186.4 327.9"/>
        <polyline class="cls-1" points="222.87 327.9 218.27 327.9 213.67 327.9"/>
        <polyline class="cls-1" points="250.13 327.9 245.53 327.9 240.93 327.9"/>
        <polyline class="cls-1" points="277.4 327.9 272.8 327.9 268.2 327.9"/>
        <polyline class="cls-1" points="304.67 327.9 300.07 327.9 295.47 327.9"/>
        <polyline class="cls-1" points="331.94 327.9 327.34 327.9 322.74 327.9"/>
        <polyline class="cls-1" points="359.2 327.9 354.6 327.9 350 327.9"/>
        <polyline class="cls-1" points="386.47 327.9 381.87 327.9 377.27 327.9"/>
        <polyline class="cls-1" points="413.74 327.9 409.14 327.9 404.54 327.9"/>
        <polyline class="cls-1" points="441 327.9 436.4 327.9 431.8 327.9"/>
        <polyline class="cls-1" points="468.27 327.9 463.67 327.9 459.07 327.9"/>
        <polyline class="cls-1" points="495.54 327.9 490.94 327.9 486.34 327.9"/>
        <polyline class="cls-1" points="522.81 327.9 518.21 327.9 513.61 327.9"/>
        <line class="cls-1" x1="545.48" y1="327.9" x2="536.28" y2="327.9"/>
        <line class="cls-1" x1="545.48" y1="337.1" x2="545.48" y2="318.7"/>
        <line class="cls-1" x1="518.21" y1="332.5" x2="518.21" y2="323.3"/>
        <line class="cls-1" x1="490.94" y1="332.5" x2="490.94" y2="323.3"/>
        <line class="cls-1" x1="463.67" y1="332.5" x2="463.67" y2="323.3"/>
        <line class="cls-1" x1="436.4" y1="332.5" x2="436.4" y2="323.3"/>
        <line class="cls-1" x1="409.14" y1="332.5" x2="409.14" y2="323.3"/>
        <line class="cls-1" x1="381.87" y1="332.5" x2="381.87" y2="323.3"/>
        <line class="cls-1" x1="354.6" y1="332.5" x2="354.6" y2="323.3"/>
        <line class="cls-1" x1="327.34" y1="332.5" x2="327.34" y2="323.3"/>
        <line class="cls-1" x1="300.07" y1="332.5" x2="300.07" y2="323.3"/>
        <line class="cls-1" x1="272.8" y1="332.5" x2="272.8" y2="323.3"/>
        <line class="cls-1" x1="245.53" y1="332.5" x2="245.53" y2="323.3"/>
        <line class="cls-1" x1="218.26" y1="332.5" x2="218.26" y2="323.3"/>
        <line class="cls-1" x1="191" y1="332.5" x2="191" y2="323.3"/>
        <line class="cls-1" x1="163.73" y1="332.5" x2="163.73" y2="323.3"/>
        <line class="cls-1" x1="136.46" y1="332.5" x2="136.46" y2="323.3"/>
        <line class="cls-1" x1="109.2" y1="332.5" x2="109.2" y2="323.3"/>
        <line class="cls-1" x1="81.93" y1="332.5" x2="81.93" y2="323.3"/>
        <line class="cls-1" x1="54.66" y1="332.5" x2="54.66" y2="323.3"/>
        <line class="cls-1" x1="27.39" y1="332.5" x2="27.39" y2="323.3"/>
        <line class="cls-1" x1=".12" y1="337.1" x2=".12" y2="318.7"/>
        <line class="cls-1" x1="9.32" y1="355.17" x2=".12" y2="355.17"/>
        <polyline class="cls-1" points="31.99 355.17 27.39 355.17 22.79 355.17"/>
        <polyline class="cls-1" points="59.26 355.17 54.66 355.17 50.06 355.17"/>
        <polyline class="cls-1" points="86.53 355.17 81.93 355.17 77.33 355.17"/>
        <polyline class="cls-1" points="113.8 355.17 109.2 355.17 104.6 355.17"/>
        <polyline class="cls-1" points="141.06 355.17 136.46 355.17 131.86 355.17"/>
        <polyline class="cls-1" points="168.33 355.17 163.73 355.17 159.13 355.17"/>
        <polyline class="cls-1" points="195.6 355.17 191 355.17 186.4 355.17"/>
        <polyline class="cls-1" points="222.87 355.17 218.27 355.17 213.67 355.17"/>
        <polyline class="cls-1" points="250.13 355.17 245.53 355.17 240.93 355.17"/>
        <polyline class="cls-1" points="277.4 355.17 272.8 355.17 268.2 355.17"/>
        <polyline class="cls-1" points="304.67 355.17 300.07 355.17 295.47 355.17"/>
        <polyline class="cls-1" points="331.94 355.17 327.34 355.17 322.74 355.17"/>
        <polyline class="cls-1" points="359.2 355.17 354.6 355.17 350 355.17"/>
        <polyline class="cls-1" points="386.47 355.17 381.87 355.17 377.27 355.17"/>
        <polyline class="cls-1" points="413.74 355.17 409.14 355.17 404.54 355.17"/>
        <polyline class="cls-1" points="441 355.17 436.4 355.17 431.8 355.17"/>
        <polyline class="cls-1" points="468.27 355.17 463.67 355.17 459.07 355.17"/>
        <polyline class="cls-1" points="495.54 355.17 490.94 355.17 486.34 355.17"/>
        <polyline class="cls-1" points="522.81 355.17 518.21 355.17 513.61 355.17"/>
        <line class="cls-1" x1="545.48" y1="355.17" x2="536.28" y2="355.17"/>
        <line class="cls-1" x1="545.48" y1="364.37" x2="545.48" y2="345.97"/>
        <line class="cls-1" x1="518.21" y1="359.77" x2="518.21" y2="350.57"/>
        <line class="cls-1" x1="490.94" y1="359.77" x2="490.94" y2="350.57"/>
        <line class="cls-1" x1="463.67" y1="359.77" x2="463.67" y2="350.57"/>
        <line class="cls-1" x1="436.4" y1="359.77" x2="436.4" y2="350.57"/>
        <line class="cls-1" x1="409.14" y1="359.77" x2="409.14" y2="350.57"/>
        <line class="cls-1" x1="381.87" y1="359.77" x2="381.87" y2="350.57"/>
        <line class="cls-1" x1="354.6" y1="359.77" x2="354.6" y2="350.57"/>
        <line class="cls-1" x1="327.34" y1="359.77" x2="327.34" y2="350.57"/>
        <line class="cls-1" x1="300.07" y1="359.77" x2="300.07" y2="350.57"/>
        <line class="cls-1" x1="272.8" y1="359.77" x2="272.8" y2="350.57"/>
        <line class="cls-1" x1="245.53" y1="359.77" x2="245.53" y2="350.57"/>
        <line class="cls-1" x1="218.26" y1="359.77" x2="218.26" y2="350.57"/>
        <line class="cls-1" x1="191" y1="359.77" x2="191" y2="350.57"/>
        <line class="cls-1" x1="163.73" y1="359.77" x2="163.73" y2="350.57"/>
        <line class="cls-1" x1="136.46" y1="359.77" x2="136.46" y2="350.57"/>
        <line class="cls-1" x1="109.2" y1="359.77" x2="109.2" y2="350.57"/>
        <line class="cls-1" x1="81.93" y1="359.77" x2="81.93" y2="350.57"/>
        <line class="cls-1" x1="54.66" y1="359.77" x2="54.66" y2="350.57"/>
        <line class="cls-1" x1="27.39" y1="359.77" x2="27.39" y2="350.57"/>
        <line class="cls-1" x1=".12" y1="364.37" x2=".12" y2="345.97"/>
        <line class="cls-1" x1="9.32" y1="382.43" x2=".12" y2="382.43"/>
        <polyline class="cls-1" points="31.99 382.43 27.39 382.43 22.79 382.43"/>
        <polyline class="cls-1" points="59.26 382.43 54.66 382.43 50.06 382.43"/>
        <polyline class="cls-1" points="86.53 382.43 81.93 382.43 77.33 382.43"/>
        <polyline class="cls-1" points="113.8 382.43 109.2 382.43 104.6 382.43"/>
        <polyline class="cls-1" points="141.06 382.43 136.46 382.43 131.86 382.43"/>
        <polyline class="cls-1" points="168.33 382.43 163.73 382.43 159.13 382.43"/>
        <polyline class="cls-1" points="195.6 382.43 191 382.43 186.4 382.43"/>
        <polyline class="cls-1" points="222.87 382.43 218.27 382.43 213.67 382.43"/>
        <polyline class="cls-1" points="250.13 382.43 245.53 382.43 240.93 382.43"/>
        <polyline class="cls-1" points="277.4 382.43 272.8 382.43 268.2 382.43"/>
        <polyline class="cls-1" points="304.67 382.43 300.07 382.43 295.47 382.43"/>
        <polyline class="cls-1" points="331.94 382.43 327.34 382.43 322.74 382.43"/>
        <polyline class="cls-1" points="359.2 382.43 354.6 382.43 350 382.43"/>
        <polyline class="cls-1" points="386.47 382.43 381.87 382.43 377.27 382.43"/>
        <polyline class="cls-1" points="413.74 382.43 409.14 382.43 404.54 382.43"/>
        <polyline class="cls-1" points="441 382.43 436.4 382.43 431.8 382.43"/>
        <polyline class="cls-1" points="468.27 382.43 463.67 382.43 459.07 382.43"/>
        <polyline class="cls-1" points="495.54 382.43 490.94 382.43 486.34 382.43"/>
        <polyline class="cls-1" points="522.81 382.43 518.21 382.43 513.61 382.43"/>
        <line class="cls-1" x1="545.48" y1="382.43" x2="536.28" y2="382.43"/>
        <line class="cls-1" x1="545.48" y1="391.63" x2="545.48" y2="373.23"/>
        <line class="cls-1" x1="518.21" y1="387.03" x2="518.21" y2="377.83"/>
        <line class="cls-1" x1="490.94" y1="387.03" x2="490.94" y2="377.83"/>
        <line class="cls-1" x1="463.67" y1="387.03" x2="463.67" y2="377.83"/>
        <line class="cls-1" x1="436.4" y1="387.03" x2="436.4" y2="377.83"/>
        <line class="cls-1" x1="409.14" y1="387.03" x2="409.14" y2="377.83"/>
        <line class="cls-1" x1="381.87" y1="387.03" x2="381.87" y2="377.83"/>
        <line class="cls-1" x1="354.6" y1="387.03" x2="354.6" y2="377.83"/>
        <line class="cls-1" x1="327.34" y1="387.03" x2="327.34" y2="377.83"/>
        <line class="cls-1" x1="300.07" y1="387.03" x2="300.07" y2="377.83"/>
        <line class="cls-1" x1="272.8" y1="387.03" x2="272.8" y2="377.83"/>
        <line class="cls-1" x1="245.53" y1="387.03" x2="245.53" y2="377.83"/>
        <line class="cls-1" x1="218.26" y1="387.03" x2="218.26" y2="377.83"/>
        <line class="cls-1" x1="191" y1="387.03" x2="191" y2="377.83"/>
        <line class="cls-1" x1="163.73" y1="387.03" x2="163.73" y2="377.83"/>
        <line class="cls-1" x1="136.46" y1="387.03" x2="136.46" y2="377.83"/>
        <line class="cls-1" x1="109.2" y1="387.03" x2="109.2" y2="377.83"/>
        <line class="cls-1" x1="81.93" y1="387.03" x2="81.93" y2="377.83"/>
        <line class="cls-1" x1="54.66" y1="387.03" x2="54.66" y2="377.83"/>
        <line class="cls-1" x1="27.39" y1="387.03" x2="27.39" y2="377.83"/>
        <line class="cls-1" x1=".12" y1="391.63" x2=".12" y2="373.23"/>
        <line class="cls-1" x1="9.32" y1="409.7" x2=".12" y2="409.7"/>
        <polyline class="cls-1" points="31.99 409.7 27.39 409.7 22.79 409.7"/>
        <polyline class="cls-1" points="59.26 409.7 54.66 409.7 50.06 409.7"/>
        <polyline class="cls-1" points="86.53 409.7 81.93 409.7 77.33 409.7"/>
        <polyline class="cls-1" points="113.8 409.7 109.2 409.7 104.6 409.7"/>
        <polyline class="cls-1" points="141.06 409.7 136.46 409.7 131.86 409.7"/>
        <polyline class="cls-1" points="168.33 409.7 163.73 409.7 159.13 409.7"/>
        <polyline class="cls-1" points="195.6 409.7 191 409.7 186.4 409.7"/>
        <polyline class="cls-1" points="222.87 409.7 218.27 409.7 213.67 409.7"/>
        <polyline class="cls-1" points="250.13 409.7 245.53 409.7 240.93 409.7"/>
        <polyline class="cls-1" points="277.4 409.7 272.8 409.7 268.2 409.7"/>
        <polyline class="cls-1" points="304.67 409.7 300.07 409.7 295.47 409.7"/>
        <polyline class="cls-1" points="331.94 409.7 327.34 409.7 322.74 409.7"/>
        <polyline class="cls-1" points="359.2 409.7 354.6 409.7 350 409.7"/>
        <polyline class="cls-1" points="386.47 409.7 381.87 409.7 377.27 409.7"/>
        <polyline class="cls-1" points="413.74 409.7 409.14 409.7 404.54 409.7"/>
        <polyline class="cls-1" points="441 409.7 436.4 409.7 431.8 409.7"/>
        <polyline class="cls-1" points="468.27 409.7 463.67 409.7 459.07 409.7"/>
        <polyline class="cls-1" points="495.54 409.7 490.94 409.7 486.34 409.7"/>
        <polyline class="cls-1" points="522.81 409.7 518.21 409.7 513.61 409.7"/>
        <line class="cls-1" x1="545.48" y1="409.7" x2="536.28" y2="409.7"/>
        <line class="cls-1" x1="545.48" y1="418.9" x2="545.48" y2="400.5"/>
        <line class="cls-1" x1="518.21" y1="414.3" x2="518.21" y2="405.1"/>
        <line class="cls-1" x1="490.94" y1="414.3" x2="490.94" y2="405.1"/>
        <line class="cls-1" x1="463.67" y1="414.3" x2="463.67" y2="405.1"/>
        <line class="cls-1" x1="436.4" y1="414.3" x2="436.4" y2="405.1"/>
        <line class="cls-1" x1="409.14" y1="414.3" x2="409.14" y2="405.1"/>
        <line class="cls-1" x1="381.87" y1="414.3" x2="381.87" y2="405.1"/>
        <line class="cls-1" x1="354.6" y1="414.3" x2="354.6" y2="405.1"/>
        <line class="cls-1" x1="327.34" y1="414.3" x2="327.34" y2="405.1"/>
        <line class="cls-1" x1="300.07" y1="414.3" x2="300.07" y2="405.1"/>
        <line class="cls-1" x1="272.8" y1="414.3" x2="272.8" y2="405.1"/>
        <line class="cls-1" x1="245.53" y1="414.3" x2="245.53" y2="405.1"/>
        <line class="cls-1" x1="218.26" y1="414.3" x2="218.26" y2="405.1"/>
        <line class="cls-1" x1="191" y1="414.3" x2="191" y2="405.1"/>
        <line class="cls-1" x1="163.73" y1="414.3" x2="163.73" y2="405.1"/>
        <line class="cls-1" x1="136.46" y1="414.3" x2="136.46" y2="405.1"/>
        <line class="cls-1" x1="109.2" y1="414.3" x2="109.2" y2="405.1"/>
        <line class="cls-1" x1="81.93" y1="414.3" x2="81.93" y2="405.1"/>
        <line class="cls-1" x1="54.66" y1="414.3" x2="54.66" y2="405.1"/>
        <line class="cls-1" x1="27.39" y1="414.3" x2="27.39" y2="405.1"/>
        <line class="cls-1" x1=".12" y1="418.9" x2=".12" y2="400.5"/>
        <line class="cls-1" x1="9.32" y1="436.97" x2=".12" y2="436.97"/>
        <polyline class="cls-1" points="31.99 436.97 27.39 436.97 22.79 436.97"/>
        <polyline class="cls-1" points="59.26 436.97 54.66 436.97 50.06 436.97"/>
        <polyline class="cls-1" points="86.53 436.97 81.93 436.97 77.33 436.97"/>
        <polyline class="cls-1" points="113.8 436.97 109.2 436.97 104.6 436.97"/>
        <polyline class="cls-1" points="141.06 436.97 136.46 436.97 131.86 436.97"/>
        <polyline class="cls-1" points="168.33 436.97 163.73 436.97 159.13 436.97"/>
        <polyline class="cls-1" points="195.6 436.97 191 436.97 186.4 436.97"/>
        <polyline class="cls-1" points="222.87 436.97 218.27 436.97 213.67 436.97"/>
        <polyline class="cls-1" points="250.13 436.97 245.53 436.97 240.93 436.97"/>
        <polyline class="cls-1" points="277.4 436.97 272.8 436.97 268.2 436.97"/>
        <polyline class="cls-1" points="304.67 436.97 300.07 436.97 295.47 436.97"/>
        <polyline class="cls-1" points="331.94 436.97 327.34 436.97 322.74 436.97"/>
        <polyline class="cls-1" points="359.2 436.97 354.6 436.97 350 436.97"/>
        <polyline class="cls-1" points="386.47 436.97 381.87 436.97 377.27 436.97"/>
        <polyline class="cls-1" points="413.74 436.97 409.14 436.97 404.54 436.97"/>
        <polyline class="cls-1" points="441 436.97 436.4 436.97 431.8 436.97"/>
        <polyline class="cls-1" points="468.27 436.97 463.67 436.97 459.07 436.97"/>
        <polyline class="cls-1" points="495.54 436.97 490.94 436.97 486.34 436.97"/>
        <polyline class="cls-1" points="522.81 436.97 518.21 436.97 513.61 436.97"/>
        <line class="cls-1" x1="545.48" y1="436.97" x2="536.28" y2="436.97"/>
        <line class="cls-1" x1="545.48" y1="446.17" x2="545.48" y2="427.77"/>
        <line class="cls-1" x1="518.21" y1="441.57" x2="518.21" y2="432.37"/>
        <line class="cls-1" x1="490.94" y1="441.57" x2="490.94" y2="432.37"/>
        <line class="cls-1" x1="463.67" y1="441.57" x2="463.67" y2="432.37"/>
        <line class="cls-1" x1="436.4" y1="441.57" x2="436.4" y2="432.37"/>
        <line class="cls-1" x1="409.14" y1="441.57" x2="409.14" y2="432.37"/>
        <line class="cls-1" x1="381.87" y1="441.57" x2="381.87" y2="432.37"/>
        <line class="cls-1" x1="354.6" y1="441.57" x2="354.6" y2="432.37"/>
        <line class="cls-1" x1="327.34" y1="441.57" x2="327.34" y2="432.37"/>
        <line class="cls-1" x1="300.07" y1="441.57" x2="300.07" y2="432.37"/>
        <line class="cls-1" x1="272.8" y1="441.57" x2="272.8" y2="432.37"/>
        <line class="cls-1" x1="245.53" y1="441.57" x2="245.53" y2="432.37"/>
        <line class="cls-1" x1="218.26" y1="441.57" x2="218.26" y2="432.37"/>
        <line class="cls-1" x1="191" y1="441.57" x2="191" y2="432.37"/>
        <line class="cls-1" x1="163.73" y1="441.57" x2="163.73" y2="432.37"/>
        <line class="cls-1" x1="136.46" y1="441.57" x2="136.46" y2="432.37"/>
        <line class="cls-1" x1="109.2" y1="441.57" x2="109.2" y2="432.37"/>
        <line class="cls-1" x1="81.93" y1="441.57" x2="81.93" y2="432.37"/>
        <line class="cls-1" x1="54.66" y1="441.57" x2="54.66" y2="432.37"/>
        <line class="cls-1" x1="27.39" y1="441.57" x2="27.39" y2="432.37"/>
        <line class="cls-1" x1=".12" y1="446.17" x2=".12" y2="427.77"/>
        <line class="cls-1" x1="9.32" y1="464.23" x2=".12" y2="464.23"/>
        <polyline class="cls-1" points="31.99 464.23 27.39 464.23 22.79 464.23"/>
        <polyline class="cls-1" points="59.26 464.23 54.66 464.23 50.06 464.23"/>
        <polyline class="cls-1" points="86.53 464.23 81.93 464.23 77.33 464.23"/>
        <polyline class="cls-1" points="113.8 464.23 109.2 464.23 104.6 464.23"/>
        <polyline class="cls-1" points="141.06 464.23 136.46 464.23 131.86 464.23"/>
        <polyline class="cls-1" points="168.33 464.23 163.73 464.23 159.13 464.23"/>
        <polyline class="cls-1" points="195.6 464.23 191 464.23 186.4 464.23"/>
        <polyline class="cls-1" points="222.87 464.23 218.27 464.23 213.67 464.23"/>
        <polyline class="cls-1" points="250.13 464.23 245.53 464.23 240.93 464.23"/>
        <polyline class="cls-1" points="277.4 464.23 272.8 464.23 268.2 464.23"/>
        <polyline class="cls-1" points="304.67 464.23 300.07 464.23 295.47 464.23"/>
        <polyline class="cls-1" points="331.94 464.23 327.34 464.23 322.74 464.23"/>
        <polyline class="cls-1" points="359.2 464.23 354.6 464.23 350 464.23"/>
        <polyline class="cls-1" points="386.47 464.23 381.87 464.23 377.27 464.23"/>
        <polyline class="cls-1" points="413.74 464.23 409.14 464.23 404.54 464.23"/>
        <polyline class="cls-1" points="441 464.23 436.4 464.23 431.8 464.23"/>
        <polyline class="cls-1" points="468.27 464.23 463.67 464.23 459.07 464.23"/>
        <polyline class="cls-1" points="495.54 464.23 490.94 464.23 486.34 464.23"/>
        <polyline class="cls-1" points="522.81 464.23 518.21 464.23 513.61 464.23"/>
        <line class="cls-1" x1="545.48" y1="464.23" x2="536.28" y2="464.23"/>
        <line class="cls-1" x1="545.48" y1="473.43" x2="545.48" y2="455.03"/>
        <line class="cls-1" x1="518.21" y1="468.83" x2="518.21" y2="459.63"/>
        <line class="cls-1" x1="490.94" y1="468.83" x2="490.94" y2="459.63"/>
        <line class="cls-1" x1="463.67" y1="468.83" x2="463.67" y2="459.63"/>
        <line class="cls-1" x1="436.4" y1="468.83" x2="436.4" y2="459.63"/>
        <line class="cls-1" x1="409.14" y1="468.83" x2="409.14" y2="459.63"/>
        <line class="cls-1" x1="381.87" y1="468.83" x2="381.87" y2="459.63"/>
        <line class="cls-1" x1="354.6" y1="468.83" x2="354.6" y2="459.63"/>
        <line class="cls-1" x1="327.34" y1="468.83" x2="327.34" y2="459.63"/>
        <line class="cls-1" x1="300.07" y1="468.83" x2="300.07" y2="459.63"/>
        <line class="cls-1" x1="272.8" y1="468.83" x2="272.8" y2="459.63"/>
        <line class="cls-1" x1="245.53" y1="468.83" x2="245.53" y2="459.63"/>
        <line class="cls-1" x1="218.26" y1="468.83" x2="218.26" y2="459.63"/>
        <line class="cls-1" x1="191" y1="468.83" x2="191" y2="459.63"/>
        <line class="cls-1" x1="163.73" y1="468.83" x2="163.73" y2="459.63"/>
        <line class="cls-1" x1="136.46" y1="468.83" x2="136.46" y2="459.63"/>
        <line class="cls-1" x1="109.2" y1="468.83" x2="109.2" y2="459.63"/>
        <line class="cls-1" x1="81.93" y1="468.83" x2="81.93" y2="459.63"/>
        <line class="cls-1" x1="54.66" y1="468.83" x2="54.66" y2="459.63"/>
        <line class="cls-1" x1="27.39" y1="468.83" x2="27.39" y2="459.63"/>
        <line class="cls-1" x1=".12" y1="473.43" x2=".12" y2="455.03"/>
        <line class="cls-1" x1="9.32" y1="491.5" x2=".12" y2="491.5"/>
        <polyline class="cls-1" points="31.99 491.5 27.39 491.5 22.79 491.5"/>
        <polyline class="cls-1" points="59.26 491.5 54.66 491.5 50.06 491.5"/>
        <polyline class="cls-1" points="86.53 491.5 81.93 491.5 77.33 491.5"/>
        <polyline class="cls-1" points="113.8 491.5 109.2 491.5 104.6 491.5"/>
        <polyline class="cls-1" points="141.06 491.5 136.46 491.5 131.86 491.5"/>
        <polyline class="cls-1" points="168.33 491.5 163.73 491.5 159.13 491.5"/>
        <polyline class="cls-1" points="195.6 491.5 191 491.5 186.4 491.5"/>
        <polyline class="cls-1" points="222.87 491.5 218.27 491.5 213.67 491.5"/>
        <polyline class="cls-1" points="250.13 491.5 245.53 491.5 240.93 491.5"/>
        <polyline class="cls-1" points="277.4 491.5 272.8 491.5 268.2 491.5"/>
        <polyline class="cls-1" points="304.67 491.5 300.07 491.5 295.47 491.5"/>
        <polyline class="cls-1" points="331.94 491.5 327.34 491.5 322.74 491.5"/>
        <polyline class="cls-1" points="359.2 491.5 354.6 491.5 350 491.5"/>
        <polyline class="cls-1" points="386.47 491.5 381.87 491.5 377.27 491.5"/>
        <polyline class="cls-1" points="413.74 491.5 409.14 491.5 404.54 491.5"/>
        <polyline class="cls-1" points="441 491.5 436.4 491.5 431.8 491.5"/>
        <polyline class="cls-1" points="468.27 491.5 463.67 491.5 459.07 491.5"/>
        <polyline class="cls-1" points="495.54 491.5 490.94 491.5 486.34 491.5"/>
        <polyline class="cls-1" points="522.81 491.5 518.21 491.5 513.61 491.5"/>
        <line class="cls-1" x1="545.48" y1="491.5" x2="536.28" y2="491.5"/>
        <line class="cls-1" x1="545.48" y1="500.7" x2="545.48" y2="482.3"/>
        <line class="cls-1" x1="518.21" y1="496.1" x2="518.21" y2="486.9"/>
        <line class="cls-1" x1="490.94" y1="496.1" x2="490.94" y2="486.9"/>
        <line class="cls-1" x1="463.67" y1="496.1" x2="463.67" y2="486.9"/>
        <line class="cls-1" x1="436.4" y1="496.1" x2="436.4" y2="486.9"/>
        <line class="cls-1" x1="409.14" y1="496.1" x2="409.14" y2="486.9"/>
        <line class="cls-1" x1="381.87" y1="496.1" x2="381.87" y2="486.9"/>
        <line class="cls-1" x1="354.6" y1="496.1" x2="354.6" y2="486.9"/>
        <line class="cls-1" x1="327.34" y1="496.1" x2="327.34" y2="486.9"/>
        <line class="cls-1" x1="300.07" y1="496.1" x2="300.07" y2="486.9"/>
        <line class="cls-1" x1="272.8" y1="496.1" x2="272.8" y2="486.9"/>
        <line class="cls-1" x1="245.53" y1="496.1" x2="245.53" y2="486.9"/>
        <line class="cls-1" x1="218.26" y1="496.1" x2="218.26" y2="486.9"/>
        <line class="cls-1" x1="191" y1="496.1" x2="191" y2="486.9"/>
        <line class="cls-1" x1="163.73" y1="496.1" x2="163.73" y2="486.9"/>
        <line class="cls-1" x1="136.46" y1="496.1" x2="136.46" y2="486.9"/>
        <line class="cls-1" x1="109.2" y1="496.1" x2="109.2" y2="486.9"/>
        <line class="cls-1" x1="81.93" y1="496.1" x2="81.93" y2="486.9"/>
        <line class="cls-1" x1="54.66" y1="496.1" x2="54.66" y2="486.9"/>
        <line class="cls-1" x1="27.39" y1="496.1" x2="27.39" y2="486.9"/>
        <line class="cls-1" x1=".12" y1="500.7" x2=".12" y2="482.3"/>
        <line class="cls-1" x1="9.32" y1="27.53" x2=".12" y2="27.53"/>
        <polyline class="cls-1" points="31.99 27.53 27.39 27.53 22.79 27.53"/>
        <polyline class="cls-1" points="59.26 27.53 54.66 27.53 50.06 27.53"/>
        <polyline class="cls-1" points="86.53 27.53 81.93 27.53 77.33 27.53"/>
        <polyline class="cls-1" points="113.8 27.53 109.2 27.53 104.6 27.53"/>
        <polyline class="cls-1" points="141.06 27.53 136.46 27.53 131.86 27.53"/>
        <polyline class="cls-1" points="168.33 27.53 163.73 27.53 159.13 27.53"/>
        <polyline class="cls-1" points="195.6 27.53 191 27.53 186.4 27.53"/>
        <polyline class="cls-1" points="222.87 27.53 218.27 27.53 213.67 27.53"/>
        <polyline class="cls-1" points="250.13 27.53 245.53 27.53 240.93 27.53"/>
        <polyline class="cls-1" points="277.4 27.53 272.8 27.53 268.2 27.53"/>
        <polyline class="cls-1" points="304.67 27.53 300.07 27.53 295.47 27.53"/>
        <polyline class="cls-1" points="331.94 27.53 327.34 27.53 322.74 27.53"/>
        <polyline class="cls-1" points="359.2 27.53 354.6 27.53 350 27.53"/>
        <polyline class="cls-1" points="386.47 27.53 381.87 27.53 377.27 27.53"/>
        <polyline class="cls-1" points="413.74 27.53 409.14 27.53 404.54 27.53"/>
        <polyline class="cls-1" points="441 27.53 436.4 27.53 431.8 27.53"/>
        <polyline class="cls-1" points="468.27 27.53 463.67 27.53 459.07 27.53"/>
        <polyline class="cls-1" points="495.54 27.53 490.94 27.53 486.34 27.53"/>
        <polyline class="cls-1" points="522.81 27.53 518.21 27.53 513.61 27.53"/>
        <line class="cls-1" x1="545.48" y1="27.53" x2="536.28" y2="27.53"/>
        <line class="cls-1" x1="545.48" y1="36.73" x2="545.48" y2="18.33"/>
        <line class="cls-1" x1="518.21" y1="32.13" x2="518.21" y2="22.93"/>
        <line class="cls-1" x1="490.94" y1="32.13" x2="490.94" y2="22.93"/>
        <line class="cls-1" x1="463.67" y1="32.13" x2="463.67" y2="22.93"/>
        <line class="cls-1" x1="436.4" y1="32.13" x2="436.4" y2="22.93"/>
        <line class="cls-1" x1="409.14" y1="32.13" x2="409.14" y2="22.93"/>
        <line class="cls-1" x1="381.87" y1="32.13" x2="381.87" y2="22.93"/>
        <line class="cls-1" x1="354.6" y1="32.13" x2="354.6" y2="22.93"/>
        <line class="cls-1" x1="327.34" y1="32.13" x2="327.34" y2="22.93"/>
        <line class="cls-1" x1="300.07" y1="32.13" x2="300.07" y2="22.93"/>
        <line class="cls-1" x1="272.8" y1="32.13" x2="272.8" y2="22.93"/>
        <line class="cls-1" x1="245.53" y1="32.13" x2="245.53" y2="22.93"/>
        <line class="cls-1" x1="218.26" y1="32.13" x2="218.26" y2="22.93"/>
        <line class="cls-1" x1="191" y1="32.13" x2="191" y2="22.93"/>
        <line class="cls-1" x1="163.73" y1="32.13" x2="163.73" y2="22.93"/>
        <line class="cls-1" x1="136.46" y1="32.13" x2="136.46" y2="22.93"/>
        <line class="cls-1" x1="109.2" y1="32.13" x2="109.2" y2="22.93"/>
        <line class="cls-1" x1="81.93" y1="32.13" x2="81.93" y2="22.93"/>
        <line class="cls-1" x1="54.66" y1="32.13" x2="54.66" y2="22.93"/>
        <line class="cls-1" x1="27.39" y1="32.13" x2="27.39" y2="22.93"/>
        <line class="cls-1" x1=".12" y1="36.73" x2=".12" y2="18.33"/>
        <line class="cls-1" x1="9.32" y1="54.8" x2=".12" y2="54.8"/>
        <polyline class="cls-1" points="31.99 54.8 27.39 54.8 22.79 54.8"/>
        <polyline class="cls-1" points="59.26 54.8 54.66 54.8 50.06 54.8"/>
        <polyline class="cls-1" points="86.53 54.8 81.93 54.8 77.33 54.8"/>
        <polyline class="cls-1" points="113.8 54.8 109.2 54.8 104.6 54.8"/>
        <polyline class="cls-1" points="141.06 54.8 136.46 54.8 131.86 54.8"/>
        <polyline class="cls-1" points="168.33 54.8 163.73 54.8 159.13 54.8"/>
        <polyline class="cls-1" points="195.6 54.8 191 54.8 186.4 54.8"/>
        <polyline class="cls-1" points="222.87 54.8 218.27 54.8 213.67 54.8"/>
        <polyline class="cls-1" points="250.13 54.8 245.53 54.8 240.93 54.8"/>
        <polyline class="cls-1" points="277.4 54.8 272.8 54.8 268.2 54.8"/>
        <polyline class="cls-1" points="304.67 54.8 300.07 54.8 295.47 54.8"/>
        <polyline class="cls-1" points="331.94 54.8 327.34 54.8 322.74 54.8"/>
        <polyline class="cls-1" points="359.2 54.8 354.6 54.8 350 54.8"/>
        <polyline class="cls-1" points="386.47 54.8 381.87 54.8 377.27 54.8"/>
        <polyline class="cls-1" points="413.74 54.8 409.14 54.8 404.54 54.8"/>
        <polyline class="cls-1" points="441 54.8 436.4 54.8 431.8 54.8"/>
        <polyline class="cls-1" points="468.27 54.8 463.67 54.8 459.07 54.8"/>
        <polyline class="cls-1" points="495.54 54.8 490.94 54.8 486.34 54.8"/>
        <polyline class="cls-1" points="522.81 54.8 518.21 54.8 513.61 54.8"/>
        <line class="cls-1" x1="545.48" y1="54.8" x2="536.28" y2="54.8"/>
        <line class="cls-1" x1="545.48" y1="64" x2="545.48" y2="45.6"/>
        <line class="cls-1" x1="518.21" y1="59.4" x2="518.21" y2="50.2"/>
        <line class="cls-1" x1="490.94" y1="59.4" x2="490.94" y2="50.2"/>
        <line class="cls-1" x1="463.67" y1="59.4" x2="463.67" y2="50.2"/>
        <line class="cls-1" x1="436.4" y1="59.4" x2="436.4" y2="50.2"/>
        <line class="cls-1" x1="409.14" y1="59.4" x2="409.14" y2="50.2"/>
        <line class="cls-1" x1="381.87" y1="59.4" x2="381.87" y2="50.2"/>
        <line class="cls-1" x1="354.6" y1="59.4" x2="354.6" y2="50.2"/>
        <line class="cls-1" x1="327.34" y1="59.4" x2="327.34" y2="50.2"/>
        <line class="cls-1" x1="300.07" y1="59.4" x2="300.07" y2="50.2"/>
        <line class="cls-1" x1="272.8" y1="59.4" x2="272.8" y2="50.2"/>
        <line class="cls-1" x1="245.53" y1="59.4" x2="245.53" y2="50.2"/>
        <line class="cls-1" x1="218.26" y1="59.4" x2="218.26" y2="50.2"/>
        <line class="cls-1" x1="191" y1="59.4" x2="191" y2="50.2"/>
        <line class="cls-1" x1="163.73" y1="59.4" x2="163.73" y2="50.2"/>
        <line class="cls-1" x1="136.46" y1="59.4" x2="136.46" y2="50.2"/>
        <line class="cls-1" x1="109.2" y1="59.4" x2="109.2" y2="50.2"/>
        <line class="cls-1" x1="81.93" y1="59.4" x2="81.93" y2="50.2"/>
        <line class="cls-1" x1="54.66" y1="59.4" x2="54.66" y2="50.2"/>
        <line class="cls-1" x1="27.39" y1="59.4" x2="27.39" y2="50.2"/>
        <line class="cls-1" x1=".12" y1="64" x2=".12" y2="45.6"/>
        <line class="cls-1" x1="9.32" y1="82.06" x2=".12" y2="82.06"/>
        <polyline class="cls-1" points="31.99 82.06 27.39 82.06 22.79 82.06"/>
        <polyline class="cls-1" points="59.26 82.06 54.66 82.06 50.06 82.06"/>
        <polyline class="cls-1" points="86.53 82.06 81.93 82.06 77.33 82.06"/>
        <polyline class="cls-1" points="113.8 82.06 109.2 82.06 104.6 82.06"/>
        <polyline class="cls-1" points="141.06 82.06 136.46 82.06 131.86 82.06"/>
        <polyline class="cls-1" points="168.33 82.06 163.73 82.06 159.13 82.06"/>
        <polyline class="cls-1" points="195.6 82.06 191 82.06 186.4 82.06"/>
        <polyline class="cls-1" points="222.87 82.06 218.27 82.06 213.67 82.06"/>
        <polyline class="cls-1" points="250.13 82.06 245.53 82.06 240.93 82.06"/>
        <polyline class="cls-1" points="277.4 82.06 272.8 82.06 268.2 82.06"/>
        <polyline class="cls-1" points="304.67 82.06 300.07 82.06 295.47 82.06"/>
        <polyline class="cls-1" points="331.94 82.06 327.34 82.06 322.74 82.06"/>
        <polyline class="cls-1" points="359.2 82.06 354.6 82.06 350 82.06"/>
        <polyline class="cls-1" points="386.47 82.06 381.87 82.06 377.27 82.06"/>
        <polyline class="cls-1" points="413.74 82.06 409.14 82.06 404.54 82.06"/>
        <polyline class="cls-1" points="441 82.06 436.4 82.06 431.8 82.06"/>
        <polyline class="cls-1" points="468.27 82.06 463.67 82.06 459.07 82.06"/>
        <polyline class="cls-1" points="495.54 82.06 490.94 82.06 486.34 82.06"/>
        <polyline class="cls-1" points="522.81 82.06 518.21 82.06 513.61 82.06"/>
        <line class="cls-1" x1="545.48" y1="82.06" x2="536.28" y2="82.06"/>
        <line class="cls-1" x1="545.48" y1="91.26" x2="545.48" y2="72.86"/>
        <line class="cls-1" x1="518.21" y1="86.66" x2="518.21" y2="77.46"/>
        <line class="cls-1" x1="490.94" y1="86.66" x2="490.94" y2="77.46"/>
        <line class="cls-1" x1="463.67" y1="86.66" x2="463.67" y2="77.46"/>
        <line class="cls-1" x1="436.4" y1="86.66" x2="436.4" y2="77.46"/>
        <line class="cls-1" x1="409.14" y1="86.66" x2="409.14" y2="77.46"/>
        <line class="cls-1" x1="381.87" y1="86.66" x2="381.87" y2="77.46"/>
        <line class="cls-1" x1="354.6" y1="86.66" x2="354.6" y2="77.46"/>
        <line class="cls-1" x1="327.34" y1="86.66" x2="327.34" y2="77.46"/>
        <line class="cls-1" x1="300.07" y1="86.66" x2="300.07" y2="77.46"/>
        <line class="cls-1" x1="272.8" y1="86.66" x2="272.8" y2="77.46"/>
        <line class="cls-1" x1="245.53" y1="86.66" x2="245.53" y2="77.46"/>
        <line class="cls-1" x1="218.26" y1="86.66" x2="218.26" y2="77.46"/>
        <line class="cls-1" x1="191" y1="86.66" x2="191" y2="77.46"/>
        <line class="cls-1" x1="163.73" y1="86.66" x2="163.73" y2="77.46"/>
        <line class="cls-1" x1="136.46" y1="86.66" x2="136.46" y2="77.46"/>
        <line class="cls-1" x1="109.2" y1="86.66" x2="109.2" y2="77.46"/>
        <line class="cls-1" x1="81.93" y1="86.66" x2="81.93" y2="77.46"/>
        <line class="cls-1" x1="54.66" y1="86.66" x2="54.66" y2="77.46"/>
        <line class="cls-1" x1="27.39" y1="86.66" x2="27.39" y2="77.46"/>
        <line class="cls-1" x1=".12" y1="91.26" x2=".12" y2="72.86"/>
        <line class="cls-1" x1="9.32" y1="109.33" x2=".12" y2="109.33"/>
        <polyline class="cls-1" points="31.99 109.33 27.39 109.33 22.79 109.33"/>
        <polyline class="cls-1" points="59.26 109.33 54.66 109.33 50.06 109.33"/>
        <polyline class="cls-1" points="86.53 109.33 81.93 109.33 77.33 109.33"/>
        <polyline class="cls-1" points="113.8 109.33 109.2 109.33 104.6 109.33"/>
        <polyline class="cls-1" points="141.06 109.33 136.46 109.33 131.86 109.33"/>
        <polyline class="cls-1" points="168.33 109.33 163.73 109.33 159.13 109.33"/>
        <polyline class="cls-1" points="195.6 109.33 191 109.33 186.4 109.33"/>
        <polyline class="cls-1" points="222.87 109.33 218.27 109.33 213.67 109.33"/>
        <polyline class="cls-1" points="250.13 109.33 245.53 109.33 240.93 109.33"/>
        <polyline class="cls-1" points="277.4 109.33 272.8 109.33 268.2 109.33"/>
        <polyline class="cls-1" points="304.67 109.33 300.07 109.33 295.47 109.33"/>
        <polyline class="cls-1" points="331.94 109.33 327.34 109.33 322.74 109.33"/>
        <polyline class="cls-1" points="359.2 109.33 354.6 109.33 350 109.33"/>
        <polyline class="cls-1" points="386.47 109.33 381.87 109.33 377.27 109.33"/>
        <polyline class="cls-1" points="413.74 109.33 409.14 109.33 404.54 109.33"/>
        <polyline class="cls-1" points="441 109.33 436.4 109.33 431.8 109.33"/>
        <polyline class="cls-1" points="468.27 109.33 463.67 109.33 459.07 109.33"/>
        <polyline class="cls-1" points="495.54 109.33 490.94 109.33 486.34 109.33"/>
        <polyline class="cls-1" points="522.81 109.33 518.21 109.33 513.61 109.33"/>
        <line class="cls-1" x1="545.48" y1="109.33" x2="536.28" y2="109.33"/>
        <line class="cls-1" x1="545.48" y1="118.53" x2="545.48" y2="100.13"/>
        <line class="cls-1" x1="518.21" y1="113.93" x2="518.21" y2="104.73"/>
        <line class="cls-1" x1="490.94" y1="113.93" x2="490.94" y2="104.73"/>
        <line class="cls-1" x1="463.67" y1="113.93" x2="463.67" y2="104.73"/>
        <line class="cls-1" x1="436.4" y1="113.93" x2="436.4" y2="104.73"/>
        <line class="cls-1" x1="409.14" y1="113.93" x2="409.14" y2="104.73"/>
        <line class="cls-1" x1="381.87" y1="113.93" x2="381.87" y2="104.73"/>
        <line class="cls-1" x1="354.6" y1="113.93" x2="354.6" y2="104.73"/>
        <line class="cls-1" x1="327.34" y1="113.93" x2="327.34" y2="104.73"/>
        <line class="cls-1" x1="300.07" y1="113.93" x2="300.07" y2="104.73"/>
        <line class="cls-1" x1="272.8" y1="113.93" x2="272.8" y2="104.73"/>
        <line class="cls-1" x1="245.53" y1="113.93" x2="245.53" y2="104.73"/>
        <line class="cls-1" x1="218.26" y1="113.93" x2="218.26" y2="104.73"/>
        <line class="cls-1" x1="191" y1="113.93" x2="191" y2="104.73"/>
        <line class="cls-1" x1="163.73" y1="113.93" x2="163.73" y2="104.73"/>
        <line class="cls-1" x1="136.46" y1="113.93" x2="136.46" y2="104.73"/>
        <line class="cls-1" x1="109.2" y1="113.93" x2="109.2" y2="104.73"/>
        <line class="cls-1" x1="81.93" y1="113.93" x2="81.93" y2="104.73"/>
        <line class="cls-1" x1="54.66" y1="113.93" x2="54.66" y2="104.73"/>
        <line class="cls-1" x1="27.39" y1="113.93" x2="27.39" y2="104.73"/>
        <line class="cls-1" x1=".12" y1="118.53" x2=".12" y2="100.13"/>
        <line class="cls-1" x1="9.32" y1="136.6" x2=".12" y2="136.6"/>
        <polyline class="cls-1" points="31.99 136.6 27.39 136.6 22.79 136.6"/>
        <polyline class="cls-1" points="59.26 136.6 54.66 136.6 50.06 136.6"/>
        <polyline class="cls-1" points="86.53 136.6 81.93 136.6 77.33 136.6"/>
        <polyline class="cls-1" points="113.8 136.6 109.2 136.6 104.6 136.6"/>
        <polyline class="cls-1" points="141.06 136.6 136.46 136.6 131.86 136.6"/>
        <polyline class="cls-1" points="168.33 136.6 163.73 136.6 159.13 136.6"/>
        <polyline class="cls-1" points="195.6 136.6 191 136.6 186.4 136.6"/>
        <polyline class="cls-1" points="222.87 136.6 218.27 136.6 213.67 136.6"/>
        <polyline class="cls-1" points="250.13 136.6 245.53 136.6 240.93 136.6"/>
        <polyline class="cls-1" points="277.4 136.6 272.8 136.6 268.2 136.6"/>
        <polyline class="cls-1" points="304.67 136.6 300.07 136.6 295.47 136.6"/>
        <polyline class="cls-1" points="331.94 136.6 327.34 136.6 322.74 136.6"/>
        <polyline class="cls-1" points="359.2 136.6 354.6 136.6 350 136.6"/>
        <polyline class="cls-1" points="386.47 136.6 381.87 136.6 377.27 136.6"/>
        <polyline class="cls-1" points="413.74 136.6 409.14 136.6 404.54 136.6"/>
        <polyline class="cls-1" points="441 136.6 436.4 136.6 431.8 136.6"/>
        <polyline class="cls-1" points="468.27 136.6 463.67 136.6 459.07 136.6"/>
        <polyline class="cls-1" points="495.54 136.6 490.94 136.6 486.34 136.6"/>
        <polyline class="cls-1" points="522.81 136.6 518.21 136.6 513.61 136.6"/>
        <line class="cls-1" x1="545.48" y1="136.6" x2="536.28" y2="136.6"/>
        <line class="cls-1" x1="545.48" y1="145.8" x2="545.48" y2="127.4"/>
        <line class="cls-1" x1="518.21" y1="141.2" x2="518.21" y2="132"/>
        <line class="cls-1" x1="490.94" y1="141.2" x2="490.94" y2="132"/>
        <line class="cls-1" x1="463.67" y1="141.2" x2="463.67" y2="132"/>
        <line class="cls-1" x1="436.4" y1="141.2" x2="436.4" y2="132"/>
        <line class="cls-1" x1="409.14" y1="141.2" x2="409.14" y2="132"/>
        <line class="cls-1" x1="381.87" y1="141.2" x2="381.87" y2="132"/>
        <line class="cls-1" x1="354.6" y1="141.2" x2="354.6" y2="132"/>
        <line class="cls-1" x1="327.34" y1="141.2" x2="327.34" y2="132"/>
        <line class="cls-1" x1="300.07" y1="141.2" x2="300.07" y2="132"/>
        <line class="cls-1" x1="272.8" y1="141.2" x2="272.8" y2="132"/>
        <line class="cls-1" x1="245.53" y1="141.2" x2="245.53" y2="132"/>
        <line class="cls-1" x1="218.26" y1="141.2" x2="218.26" y2="132"/>
        <line class="cls-1" x1="191" y1="141.2" x2="191" y2="132"/>
        <line class="cls-1" x1="163.73" y1="141.2" x2="163.73" y2="132"/>
        <line class="cls-1" x1="136.46" y1="141.2" x2="136.46" y2="132"/>
        <line class="cls-1" x1="109.2" y1="141.2" x2="109.2" y2="132"/>
        <line class="cls-1" x1="81.93" y1="141.2" x2="81.93" y2="132"/>
        <line class="cls-1" x1="54.66" y1="141.2" x2="54.66" y2="132"/>
        <line class="cls-1" x1="27.39" y1="141.2" x2="27.39" y2="132"/>
        <line class="cls-1" x1=".12" y1="145.8" x2=".12" y2="127.4"/>
        <line class="cls-1" x1="9.32" y1="163.86" x2=".12" y2="163.86"/>
        <polyline class="cls-1" points="31.99 163.86 27.39 163.86 22.79 163.86"/>
        <polyline class="cls-1" points="59.26 163.86 54.66 163.86 50.06 163.86"/>
        <polyline class="cls-1" points="86.53 163.86 81.93 163.86 77.33 163.86"/>
        <polyline class="cls-1" points="113.8 163.86 109.2 163.86 104.6 163.86"/>
        <polyline class="cls-1" points="141.06 163.86 136.46 163.86 131.86 163.86"/>
        <polyline class="cls-1" points="168.33 163.86 163.73 163.86 159.13 163.86"/>
        <polyline class="cls-1" points="195.6 163.86 191 163.86 186.4 163.86"/>
        <polyline class="cls-1" points="222.87 163.86 218.27 163.86 213.67 163.86"/>
        <polyline class="cls-1" points="250.13 163.86 245.53 163.86 240.93 163.86"/>
        <polyline class="cls-1" points="277.4 163.86 272.8 163.86 268.2 163.86"/>
        <polyline class="cls-1" points="304.67 163.86 300.07 163.86 295.47 163.86"/>
        <polyline class="cls-1" points="331.94 163.86 327.34 163.86 322.74 163.86"/>
        <polyline class="cls-1" points="359.2 163.86 354.6 163.86 350 163.86"/>
        <polyline class="cls-1" points="386.47 163.86 381.87 163.86 377.27 163.86"/>
        <polyline class="cls-1" points="413.74 163.86 409.14 163.86 404.54 163.86"/>
        <polyline class="cls-1" points="441 163.86 436.4 163.86 431.8 163.86"/>
        <polyline class="cls-1" points="468.27 163.86 463.67 163.86 459.07 163.86"/>
        <polyline class="cls-1" points="495.54 163.86 490.94 163.86 486.34 163.86"/>
        <polyline class="cls-1" points="522.81 163.86 518.21 163.86 513.61 163.86"/>
        <line class="cls-1" x1="545.48" y1="163.86" x2="536.28" y2="163.86"/>
        <line class="cls-1" x1="545.48" y1="173.06" x2="545.48" y2="154.66"/>
        <line class="cls-1" x1="518.21" y1="168.46" x2="518.21" y2="159.26"/>
        <line class="cls-1" x1="490.94" y1="168.46" x2="490.94" y2="159.26"/>
        <line class="cls-1" x1="463.67" y1="168.46" x2="463.67" y2="159.26"/>
        <line class="cls-1" x1="436.4" y1="168.46" x2="436.4" y2="159.26"/>
        <line class="cls-1" x1="409.14" y1="168.46" x2="409.14" y2="159.26"/>
        <line class="cls-1" x1="381.87" y1="168.46" x2="381.87" y2="159.26"/>
        <line class="cls-1" x1="354.6" y1="168.46" x2="354.6" y2="159.26"/>
        <line class="cls-1" x1="327.34" y1="168.46" x2="327.34" y2="159.26"/>
        <line class="cls-1" x1="300.07" y1="168.46" x2="300.07" y2="159.26"/>
        <line class="cls-1" x1="272.8" y1="168.46" x2="272.8" y2="159.26"/>
        <line class="cls-1" x1="245.53" y1="168.46" x2="245.53" y2="159.26"/>
        <line class="cls-1" x1="218.26" y1="168.46" x2="218.26" y2="159.26"/>
        <line class="cls-1" x1="191" y1="168.46" x2="191" y2="159.26"/>
        <line class="cls-1" x1="163.73" y1="168.46" x2="163.73" y2="159.26"/>
        <line class="cls-1" x1="136.46" y1="168.46" x2="136.46" y2="159.26"/>
        <line class="cls-1" x1="109.2" y1="168.46" x2="109.2" y2="159.26"/>
        <line class="cls-1" x1="81.93" y1="168.46" x2="81.93" y2="159.26"/>
        <line class="cls-1" x1="54.66" y1="168.46" x2="54.66" y2="159.26"/>
        <line class="cls-1" x1="27.39" y1="168.46" x2="27.39" y2="159.26"/>
        <line class="cls-1" x1=".12" y1="173.06" x2=".12" y2="154.66"/>
        <line class="cls-1" x1="9.32" y1="191.13" x2=".12" y2="191.13"/>
        <polyline class="cls-1" points="31.99 191.13 27.39 191.13 22.79 191.13"/>
        <polyline class="cls-1" points="59.26 191.13 54.66 191.13 50.06 191.13"/>
        <polyline class="cls-1" points="86.53 191.13 81.93 191.13 77.33 191.13"/>
        <polyline class="cls-1" points="113.8 191.13 109.2 191.13 104.6 191.13"/>
        <polyline class="cls-1" points="141.06 191.13 136.46 191.13 131.86 191.13"/>
        <polyline class="cls-1" points="168.33 191.13 163.73 191.13 159.13 191.13"/>
        <polyline class="cls-1" points="195.6 191.13 191 191.13 186.4 191.13"/>
        <polyline class="cls-1" points="222.87 191.13 218.27 191.13 213.67 191.13"/>
        <polyline class="cls-1" points="250.13 191.13 245.53 191.13 240.93 191.13"/>
        <polyline class="cls-1" points="277.4 191.13 272.8 191.13 268.2 191.13"/>
        <polyline class="cls-1" points="304.67 191.13 300.07 191.13 295.47 191.13"/>
        <polyline class="cls-1" points="331.94 191.13 327.34 191.13 322.74 191.13"/>
        <polyline class="cls-1" points="359.2 191.13 354.6 191.13 350 191.13"/>
        <polyline class="cls-1" points="386.47 191.13 381.87 191.13 377.27 191.13"/>
        <polyline class="cls-1" points="413.74 191.13 409.14 191.13 404.54 191.13"/>
        <polyline class="cls-1" points="441 191.13 436.4 191.13 431.8 191.13"/>
        <polyline class="cls-1" points="468.27 191.13 463.67 191.13 459.07 191.13"/>
        <polyline class="cls-1" points="495.54 191.13 490.94 191.13 486.34 191.13"/>
        <polyline class="cls-1" points="522.81 191.13 518.21 191.13 513.61 191.13"/>
        <line class="cls-1" x1="545.48" y1="191.13" x2="536.28" y2="191.13"/>
        <line class="cls-1" x1="545.48" y1="200.33" x2="545.48" y2="181.93"/>
        <line class="cls-1" x1="518.21" y1="195.73" x2="518.21" y2="186.53"/>
        <line class="cls-1" x1="490.94" y1="195.73" x2="490.94" y2="186.53"/>
        <line class="cls-1" x1="463.67" y1="195.73" x2="463.67" y2="186.53"/>
        <line class="cls-1" x1="436.4" y1="195.73" x2="436.4" y2="186.53"/>
        <line class="cls-1" x1="409.14" y1="195.73" x2="409.14" y2="186.53"/>
        <line class="cls-1" x1="381.87" y1="195.73" x2="381.87" y2="186.53"/>
        <line class="cls-1" x1="354.6" y1="195.73" x2="354.6" y2="186.53"/>
        <line class="cls-1" x1="327.34" y1="195.73" x2="327.34" y2="186.53"/>
        <line class="cls-1" x1="300.07" y1="195.73" x2="300.07" y2="186.53"/>
        <line class="cls-1" x1="272.8" y1="195.73" x2="272.8" y2="186.53"/>
        <line class="cls-1" x1="245.53" y1="195.73" x2="245.53" y2="186.53"/>
        <line class="cls-1" x1="218.26" y1="195.73" x2="218.26" y2="186.53"/>
        <line class="cls-1" x1="191" y1="195.73" x2="191" y2="186.53"/>
        <line class="cls-1" x1="163.73" y1="195.73" x2="163.73" y2="186.53"/>
        <line class="cls-1" x1="136.46" y1="195.73" x2="136.46" y2="186.53"/>
        <line class="cls-1" x1="109.2" y1="195.73" x2="109.2" y2="186.53"/>
        <line class="cls-1" x1="81.93" y1="195.73" x2="81.93" y2="186.53"/>
        <line class="cls-1" x1="54.66" y1="195.73" x2="54.66" y2="186.53"/>
        <line class="cls-1" x1="27.39" y1="195.73" x2="27.39" y2="186.53"/>
        <line class="cls-1" x1=".12" y1="200.33" x2=".12" y2="181.93"/>
        <line class="cls-1" x1="9.32" y1="218.4" x2=".12" y2="218.4"/>
        <polyline class="cls-1" points="31.99 218.4 27.39 218.4 22.79 218.4"/>
        <polyline class="cls-1" points="59.26 218.4 54.66 218.4 50.06 218.4"/>
        <polyline class="cls-1" points="86.53 218.4 81.93 218.4 77.33 218.4"/>
        <polyline class="cls-1" points="113.8 218.4 109.2 218.4 104.6 218.4"/>
        <polyline class="cls-1" points="141.06 218.4 136.46 218.4 131.86 218.4"/>
        <polyline class="cls-1" points="168.33 218.4 163.73 218.4 159.13 218.4"/>
        <polyline class="cls-1" points="195.6 218.4 191 218.4 186.4 218.4"/>
        <polyline class="cls-1" points="222.87 218.4 218.27 218.4 213.67 218.4"/>
        <polyline class="cls-1" points="250.13 218.4 245.53 218.4 240.93 218.4"/>
        <polyline class="cls-1" points="277.4 218.4 272.8 218.4 268.2 218.4"/>
        <polyline class="cls-1" points="304.67 218.4 300.07 218.4 295.47 218.4"/>
        <polyline class="cls-1" points="331.94 218.4 327.34 218.4 322.74 218.4"/>
        <polyline class="cls-1" points="359.2 218.4 354.6 218.4 350 218.4"/>
        <polyline class="cls-1" points="386.47 218.4 381.87 218.4 377.27 218.4"/>
        <polyline class="cls-1" points="413.74 218.4 409.14 218.4 404.54 218.4"/>
        <polyline class="cls-1" points="441 218.4 436.4 218.4 431.8 218.4"/>
        <polyline class="cls-1" points="468.27 218.4 463.67 218.4 459.07 218.4"/>
        <polyline class="cls-1" points="495.54 218.4 490.94 218.4 486.34 218.4"/>
        <polyline class="cls-1" points="522.81 218.4 518.21 218.4 513.61 218.4"/>
        <line class="cls-1" x1="545.48" y1="218.4" x2="536.28" y2="218.4"/>
        <line class="cls-1" x1="545.48" y1="227.6" x2="545.48" y2="209.2"/>
        <line class="cls-1" x1="518.21" y1="223" x2="518.21" y2="213.8"/>
        <line class="cls-1" x1="490.94" y1="223" x2="490.94" y2="213.8"/>
        <line class="cls-1" x1="463.67" y1="223" x2="463.67" y2="213.8"/>
        <line class="cls-1" x1="436.4" y1="223" x2="436.4" y2="213.8"/>
        <line class="cls-1" x1="409.14" y1="223" x2="409.14" y2="213.8"/>
        <line class="cls-1" x1="381.87" y1="223" x2="381.87" y2="213.8"/>
        <line class="cls-1" x1="354.6" y1="223" x2="354.6" y2="213.8"/>
        <line class="cls-1" x1="327.34" y1="223" x2="327.34" y2="213.8"/>
        <line class="cls-1" x1="300.07" y1="223" x2="300.07" y2="213.8"/>
        <line class="cls-1" x1="272.8" y1="223" x2="272.8" y2="213.8"/>
        <line class="cls-1" x1="245.53" y1="223" x2="245.53" y2="213.8"/>
        <line class="cls-1" x1="218.26" y1="223" x2="218.26" y2="213.8"/>
        <line class="cls-1" x1="191" y1="223" x2="191" y2="213.8"/>
        <line class="cls-1" x1="163.73" y1="223" x2="163.73" y2="213.8"/>
        <line class="cls-1" x1="136.46" y1="223" x2="136.46" y2="213.8"/>
        <line class="cls-1" x1="109.2" y1="223" x2="109.2" y2="213.8"/>
        <line class="cls-1" x1="81.93" y1="223" x2="81.93" y2="213.8"/>
        <line class="cls-1" x1="54.66" y1="223" x2="54.66" y2="213.8"/>
        <line class="cls-1" x1="27.39" y1="223" x2="27.39" y2="213.8"/>
        <line class="cls-1" x1=".12" y1="227.6" x2=".12" y2="209.2"/>
        <line class="cls-1" x1="9.32" y1="245.67" x2=".12" y2="245.67"/>
        <polyline class="cls-1" points="31.99 245.67 27.39 245.67 22.79 245.67"/>
        <polyline class="cls-1" points="59.26 245.67 54.66 245.67 50.06 245.67"/>
        <polyline class="cls-1" points="86.53 245.67 81.93 245.67 77.33 245.67"/>
        <polyline class="cls-1" points="113.8 245.67 109.2 245.67 104.6 245.67"/>
        <polyline class="cls-1" points="141.06 245.67 136.46 245.67 131.86 245.67"/>
        <polyline class="cls-1" points="168.33 245.67 163.73 245.67 159.13 245.67"/>
        <polyline class="cls-1" points="195.6 245.67 191 245.67 186.4 245.67"/>
        <polyline class="cls-1" points="222.87 245.67 218.27 245.67 213.67 245.67"/>
        <polyline class="cls-1" points="250.13 245.67 245.53 245.67 240.93 245.67"/>
        <polyline class="cls-1" points="277.4 245.67 272.8 245.67 268.2 245.67"/>
        <polyline class="cls-1" points="304.67 245.67 300.07 245.67 295.47 245.67"/>
        <polyline class="cls-1" points="331.94 245.67 327.34 245.67 322.74 245.67"/>
        <polyline class="cls-1" points="359.2 245.67 354.6 245.67 350 245.67"/>
        <polyline class="cls-1" points="386.47 245.67 381.87 245.67 377.27 245.67"/>
        <polyline class="cls-1" points="413.74 245.67 409.14 245.67 404.54 245.67"/>
        <polyline class="cls-1" points="441 245.67 436.4 245.67 431.8 245.67"/>
        <polyline class="cls-1" points="468.27 245.67 463.67 245.67 459.07 245.67"/>
        <polyline class="cls-1" points="495.54 245.67 490.94 245.67 486.34 245.67"/>
        <polyline class="cls-1" points="522.81 245.67 518.21 245.67 513.61 245.67"/>
        <line class="cls-1" x1="545.48" y1="245.67" x2="536.28" y2="245.67"/>
        <line class="cls-1" x1="545.48" y1="254.87" x2="545.48" y2="236.47"/>
        <line class="cls-1" x1="518.21" y1="250.27" x2="518.21" y2="241.07"/>
        <line class="cls-1" x1="490.94" y1="250.27" x2="490.94" y2="241.07"/>
        <line class="cls-1" x1="463.67" y1="250.27" x2="463.67" y2="241.07"/>
        <line class="cls-1" x1="436.4" y1="250.27" x2="436.4" y2="241.07"/>
        <line class="cls-1" x1="409.14" y1="250.27" x2="409.14" y2="241.07"/>
        <line class="cls-1" x1="381.87" y1="250.27" x2="381.87" y2="241.07"/>
        <line class="cls-1" x1="354.6" y1="250.27" x2="354.6" y2="241.07"/>
        <line class="cls-1" x1="327.34" y1="250.27" x2="327.34" y2="241.07"/>
        <line class="cls-1" x1="300.07" y1="250.27" x2="300.07" y2="241.07"/>
        <line class="cls-1" x1="272.8" y1="250.27" x2="272.8" y2="241.07"/>
        <line class="cls-1" x1="245.53" y1="250.27" x2="245.53" y2="241.07"/>
        <line class="cls-1" x1="218.26" y1="250.27" x2="218.26" y2="241.07"/>
        <line class="cls-1" x1="191" y1="250.27" x2="191" y2="241.07"/>
        <line class="cls-1" x1="163.73" y1="250.27" x2="163.73" y2="241.07"/>
        <line class="cls-1" x1="136.46" y1="250.27" x2="136.46" y2="241.07"/>
        <line class="cls-1" x1="109.2" y1="250.27" x2="109.2" y2="241.07"/>
        <line class="cls-1" x1="81.93" y1="250.27" x2="81.93" y2="241.07"/>
        <line class="cls-1" x1="54.66" y1="250.27" x2="54.66" y2="241.07"/>
        <line class="cls-1" x1="27.39" y1="250.27" x2="27.39" y2="241.07"/>
        <line class="cls-1" x1=".12" y1="254.87" x2=".12" y2="236.47"/>
        <line class="cls-1" x1="9.32" y1="518.77" x2=".12" y2="518.77"/>
        <polyline class="cls-1" points="31.99 518.77 27.39 518.77 22.79 518.77"/>
        <polyline class="cls-1" points="59.26 518.77 54.66 518.77 50.06 518.77"/>
        <polyline class="cls-1" points="86.53 518.77 81.93 518.77 77.33 518.77"/>
        <polyline class="cls-1" points="113.8 518.77 109.2 518.77 104.6 518.77"/>
        <polyline class="cls-1" points="141.06 518.77 136.46 518.77 131.86 518.77"/>
        <polyline class="cls-1" points="168.33 518.77 163.73 518.77 159.13 518.77"/>
        <polyline class="cls-1" points="195.6 518.77 191 518.77 186.4 518.77"/>
        <polyline class="cls-1" points="222.87 518.77 218.27 518.77 213.67 518.77"/>
        <polyline class="cls-1" points="250.13 518.77 245.53 518.77 240.93 518.77"/>
        <polyline class="cls-1" points="277.4 518.77 272.8 518.77 268.2 518.77"/>
        <polyline class="cls-1" points="304.67 518.77 300.07 518.77 295.47 518.77"/>
        <polyline class="cls-1" points="331.94 518.77 327.34 518.77 322.74 518.77"/>
        <polyline class="cls-1" points="359.2 518.77 354.6 518.77 350 518.77"/>
        <polyline class="cls-1" points="386.47 518.77 381.87 518.77 377.27 518.77"/>
        <polyline class="cls-1" points="413.74 518.77 409.14 518.77 404.54 518.77"/>
        <polyline class="cls-1" points="441 518.77 436.4 518.77 431.8 518.77"/>
        <polyline class="cls-1" points="468.27 518.77 463.67 518.77 459.07 518.77"/>
        <polyline class="cls-1" points="495.54 518.77 490.94 518.77 486.34 518.77"/>
        <polyline class="cls-1" points="522.81 518.77 518.21 518.77 513.61 518.77"/>
        <line class="cls-1" x1="545.48" y1="518.77" x2="536.28" y2="518.77"/>
        <line class="cls-1" x1="545.48" y1="527.97" x2="545.48" y2="509.57"/>
        <line class="cls-1" x1="518.21" y1="523.37" x2="518.21" y2="514.17"/>
        <line class="cls-1" x1="490.94" y1="523.37" x2="490.94" y2="514.17"/>
        <line class="cls-1" x1="463.67" y1="523.37" x2="463.67" y2="514.17"/>
        <line class="cls-1" x1="436.4" y1="523.37" x2="436.4" y2="514.17"/>
        <line class="cls-1" x1="409.14" y1="523.37" x2="409.14" y2="514.17"/>
        <line class="cls-1" x1="381.87" y1="523.37" x2="381.87" y2="514.17"/>
        <line class="cls-1" x1="354.6" y1="523.37" x2="354.6" y2="514.17"/>
        <line class="cls-1" x1="327.34" y1="523.37" x2="327.34" y2="514.17"/>
        <line class="cls-1" x1="300.07" y1="523.37" x2="300.07" y2="514.17"/>
        <line class="cls-1" x1="272.8" y1="523.37" x2="272.8" y2="514.17"/>
        <line class="cls-1" x1="245.53" y1="523.37" x2="245.53" y2="514.17"/>
        <line class="cls-1" x1="218.26" y1="523.37" x2="218.26" y2="514.17"/>
        <line class="cls-1" x1="191" y1="523.37" x2="191" y2="514.17"/>
        <line class="cls-1" x1="163.73" y1="523.37" x2="163.73" y2="514.17"/>
        <line class="cls-1" x1="136.46" y1="523.37" x2="136.46" y2="514.17"/>
        <line class="cls-1" x1="109.2" y1="523.37" x2="109.2" y2="514.17"/>
        <line class="cls-1" x1="81.93" y1="523.37" x2="81.93" y2="514.17"/>
        <line class="cls-1" x1="54.66" y1="523.37" x2="54.66" y2="514.17"/>
        <line class="cls-1" x1="27.39" y1="523.37" x2="27.39" y2="514.17"/>
        <line class="cls-1" x1=".12" y1="527.97" x2=".12" y2="509.57"/>
        <line class="cls-1" x1="9.32" y1="546.03" x2=".12" y2="546.03"/>
        <polyline class="cls-1" points="31.99 546.03 27.39 546.03 22.79 546.03"/>
        <polyline class="cls-1" points="59.26 546.03 54.66 546.03 50.06 546.03"/>
        <polyline class="cls-1" points="86.53 546.03 81.93 546.03 77.33 546.03"/>
        <polyline class="cls-1" points="113.8 546.03 109.2 546.03 104.6 546.03"/>
        <polyline class="cls-1" points="141.06 546.03 136.46 546.03 131.86 546.03"/>
        <polyline class="cls-1" points="168.33 546.03 163.73 546.03 159.13 546.03"/>
        <polyline class="cls-1" points="195.6 546.03 191 546.03 186.4 546.03"/>
        <polyline class="cls-1" points="222.87 546.03 218.27 546.03 213.67 546.03"/>
        <polyline class="cls-1" points="250.13 546.03 245.53 546.03 240.93 546.03"/>
        <polyline class="cls-1" points="277.4 546.03 272.8 546.03 268.2 546.03"/>
        <polyline class="cls-1" points="304.67 546.03 300.07 546.03 295.47 546.03"/>
        <polyline class="cls-1" points="331.94 546.03 327.34 546.03 322.74 546.03"/>
        <polyline class="cls-1" points="359.2 546.03 354.6 546.03 350 546.03"/>
        <polyline class="cls-1" points="386.47 546.03 381.87 546.03 377.27 546.03"/>
        <polyline class="cls-1" points="413.74 546.03 409.14 546.03 404.54 546.03"/>
        <polyline class="cls-1" points="441 546.03 436.4 546.03 431.8 546.03"/>
        <polyline class="cls-1" points="468.27 546.03 463.67 546.03 459.07 546.03"/>
        <polyline class="cls-1" points="495.54 546.03 490.94 546.03 486.34 546.03"/>
        <polyline class="cls-1" points="522.81 546.03 518.21 546.03 513.61 546.03"/>
        <line class="cls-1" x1="545.48" y1="546.03" x2="536.28" y2="546.03"/>
        <line class="cls-1" x1="545.48" y1="555.23" x2="545.48" y2="536.83"/>
        <line class="cls-1" x1="518.21" y1="550.63" x2="518.21" y2="541.43"/>
        <line class="cls-1" x1="490.94" y1="550.63" x2="490.94" y2="541.43"/>
        <line class="cls-1" x1="463.67" y1="550.63" x2="463.67" y2="541.43"/>
        <line class="cls-1" x1="436.4" y1="550.63" x2="436.4" y2="541.43"/>
        <line class="cls-1" x1="409.14" y1="550.63" x2="409.14" y2="541.43"/>
        <line class="cls-1" x1="381.87" y1="550.63" x2="381.87" y2="541.43"/>
        <line class="cls-1" x1="354.6" y1="550.63" x2="354.6" y2="541.43"/>
        <line class="cls-1" x1="327.34" y1="550.63" x2="327.34" y2="541.43"/>
        <line class="cls-1" x1="300.07" y1="550.63" x2="300.07" y2="541.43"/>
        <line class="cls-1" x1="272.8" y1="550.63" x2="272.8" y2="541.43"/>
        <line class="cls-1" x1="245.53" y1="550.63" x2="245.53" y2="541.43"/>
        <line class="cls-1" x1="218.26" y1="550.63" x2="218.26" y2="541.43"/>
        <line class="cls-1" x1="191" y1="550.63" x2="191" y2="541.43"/>
        <line class="cls-1" x1="163.73" y1="550.63" x2="163.73" y2="541.43"/>
        <line class="cls-1" x1="136.46" y1="550.63" x2="136.46" y2="541.43"/>
        <line class="cls-1" x1="109.2" y1="550.63" x2="109.2" y2="541.43"/>
        <line class="cls-1" x1="81.93" y1="550.63" x2="81.93" y2="541.43"/>
        <line class="cls-1" x1="54.66" y1="550.63" x2="54.66" y2="541.43"/>
        <line class="cls-1" x1="27.39" y1="550.63" x2="27.39" y2="541.43"/>
        <line class="cls-1" x1=".12" y1="555.23" x2=".12" y2="536.83"/>
        <line class="cls-1" x1="9.32" y1="573.3" x2=".12" y2="573.3"/>
        <polyline class="cls-1" points="31.99 573.3 27.39 573.3 22.79 573.3"/>
        <polyline class="cls-1" points="59.26 573.3 54.66 573.3 50.06 573.3"/>
        <polyline class="cls-1" points="86.53 573.3 81.93 573.3 77.33 573.3"/>
        <polyline class="cls-1" points="113.8 573.3 109.2 573.3 104.6 573.3"/>
        <polyline class="cls-1" points="141.06 573.3 136.46 573.3 131.86 573.3"/>
        <polyline class="cls-1" points="168.33 573.3 163.73 573.3 159.13 573.3"/>
        <polyline class="cls-1" points="195.6 573.3 191 573.3 186.4 573.3"/>
        <polyline class="cls-1" points="222.87 573.3 218.27 573.3 213.67 573.3"/>
        <polyline class="cls-1" points="250.13 573.3 245.53 573.3 240.93 573.3"/>
        <polyline class="cls-1" points="277.4 573.3 272.8 573.3 268.2 573.3"/>
        <polyline class="cls-1" points="304.67 573.3 300.07 573.3 295.47 573.3"/>
        <polyline class="cls-1" points="331.94 573.3 327.34 573.3 322.74 573.3"/>
        <polyline class="cls-1" points="359.2 573.3 354.6 573.3 350 573.3"/>
        <polyline class="cls-1" points="386.47 573.3 381.87 573.3 377.27 573.3"/>
        <polyline class="cls-1" points="413.74 573.3 409.14 573.3 404.54 573.3"/>
        <polyline class="cls-1" points="441 573.3 436.4 573.3 431.8 573.3"/>
        <polyline class="cls-1" points="468.27 573.3 463.67 573.3 459.07 573.3"/>
        <polyline class="cls-1" points="495.54 573.3 490.94 573.3 486.34 573.3"/>
        <polyline class="cls-1" points="522.81 573.3 518.21 573.3 513.61 573.3"/>
        <line class="cls-1" x1="545.48" y1="573.3" x2="536.28" y2="573.3"/>
        <line class="cls-1" x1="545.48" y1="582.5" x2="545.48" y2="564.1"/>
        <line class="cls-1" x1="518.21" y1="577.9" x2="518.21" y2="568.7"/>
        <line class="cls-1" x1="490.94" y1="577.9" x2="490.94" y2="568.7"/>
        <line class="cls-1" x1="463.67" y1="577.9" x2="463.67" y2="568.7"/>
        <line class="cls-1" x1="436.4" y1="577.9" x2="436.4" y2="568.7"/>
        <line class="cls-1" x1="409.14" y1="577.9" x2="409.14" y2="568.7"/>
        <line class="cls-1" x1="381.87" y1="577.9" x2="381.87" y2="568.7"/>
        <line class="cls-1" x1="354.6" y1="577.9" x2="354.6" y2="568.7"/>
        <line class="cls-1" x1="327.34" y1="577.9" x2="327.34" y2="568.7"/>
        <line class="cls-1" x1="300.07" y1="577.9" x2="300.07" y2="568.7"/>
        <line class="cls-1" x1="272.8" y1="577.9" x2="272.8" y2="568.7"/>
        <line class="cls-1" x1="245.53" y1="577.9" x2="245.53" y2="568.7"/>
        <line class="cls-1" x1="218.26" y1="577.9" x2="218.26" y2="568.7"/>
        <line class="cls-1" x1="191" y1="577.9" x2="191" y2="568.7"/>
        <line class="cls-1" x1="163.73" y1="577.9" x2="163.73" y2="568.7"/>
        <line class="cls-1" x1="136.46" y1="577.9" x2="136.46" y2="568.7"/>
        <line class="cls-1" x1="109.2" y1="577.9" x2="109.2" y2="568.7"/>
        <line class="cls-1" x1="81.93" y1="577.9" x2="81.93" y2="568.7"/>
        <line class="cls-1" x1="54.66" y1="577.9" x2="54.66" y2="568.7"/>
        <line class="cls-1" x1="27.39" y1="577.9" x2="27.39" y2="568.7"/>
        <line class="cls-1" x1=".12" y1="582.5" x2=".12" y2="564.1"/>
        <line class="cls-1" x1="9.32" y1="600.57" x2=".12" y2="600.57"/>
        <polyline class="cls-1" points="31.99 600.57 27.39 600.57 22.79 600.57"/>
        <polyline class="cls-1" points="59.26 600.57 54.66 600.57 50.06 600.57"/>
        <polyline class="cls-1" points="86.53 600.57 81.93 600.57 77.33 600.57"/>
        <polyline class="cls-1" points="113.8 600.57 109.2 600.57 104.6 600.57"/>
        <polyline class="cls-1" points="141.06 600.57 136.46 600.57 131.86 600.57"/>
        <polyline class="cls-1" points="168.33 600.57 163.73 600.57 159.13 600.57"/>
        <polyline class="cls-1" points="195.6 600.57 191 600.57 186.4 600.57"/>
        <polyline class="cls-1" points="222.87 600.57 218.27 600.57 213.67 600.57"/>
        <polyline class="cls-1" points="250.13 600.57 245.53 600.57 240.93 600.57"/>
        <polyline class="cls-1" points="277.4 600.57 272.8 600.57 268.2 600.57"/>
        <polyline class="cls-1" points="304.67 600.57 300.07 600.57 295.47 600.57"/>
        <polyline class="cls-1" points="331.94 600.57 327.34 600.57 322.74 600.57"/>
        <polyline class="cls-1" points="359.2 600.57 354.6 600.57 350 600.57"/>
        <polyline class="cls-1" points="386.47 600.57 381.87 600.57 377.27 600.57"/>
        <polyline class="cls-1" points="413.74 600.57 409.14 600.57 404.54 600.57"/>
        <polyline class="cls-1" points="441 600.57 436.4 600.57 431.8 600.57"/>
        <polyline class="cls-1" points="468.27 600.57 463.67 600.57 459.07 600.57"/>
        <polyline class="cls-1" points="495.54 600.57 490.94 600.57 486.34 600.57"/>
        <polyline class="cls-1" points="522.81 600.57 518.21 600.57 513.61 600.57"/>
        <line class="cls-1" x1="545.48" y1="600.57" x2="536.28" y2="600.57"/>
        <line class="cls-1" x1="545.48" y1="609.77" x2="545.48" y2="591.37"/>
        <line class="cls-1" x1="518.21" y1="605.17" x2="518.21" y2="595.97"/>
        <line class="cls-1" x1="490.94" y1="605.17" x2="490.94" y2="595.97"/>
        <line class="cls-1" x1="463.67" y1="605.17" x2="463.67" y2="595.97"/>
        <line class="cls-1" x1="436.4" y1="605.17" x2="436.4" y2="595.97"/>
        <line class="cls-1" x1="409.14" y1="605.17" x2="409.14" y2="595.97"/>
        <line class="cls-1" x1="381.87" y1="605.17" x2="381.87" y2="595.97"/>
        <line class="cls-1" x1="354.6" y1="605.17" x2="354.6" y2="595.97"/>
        <line class="cls-1" x1="327.34" y1="605.17" x2="327.34" y2="595.97"/>
        <line class="cls-1" x1="300.07" y1="605.17" x2="300.07" y2="595.97"/>
        <line class="cls-1" x1="272.8" y1="605.17" x2="272.8" y2="595.97"/>
        <line class="cls-1" x1="245.53" y1="605.17" x2="245.53" y2="595.97"/>
        <line class="cls-1" x1="218.26" y1="605.17" x2="218.26" y2="595.97"/>
        <line class="cls-1" x1="191" y1="605.17" x2="191" y2="595.97"/>
        <line class="cls-1" x1="163.73" y1="605.17" x2="163.73" y2="595.97"/>
        <line class="cls-1" x1="136.46" y1="605.17" x2="136.46" y2="595.97"/>
        <line class="cls-1" x1="109.2" y1="605.17" x2="109.2" y2="595.97"/>
        <line class="cls-1" x1="81.93" y1="605.17" x2="81.93" y2="595.97"/>
        <line class="cls-1" x1="54.66" y1="605.17" x2="54.66" y2="595.97"/>
        <line class="cls-1" x1="27.39" y1="605.17" x2="27.39" y2="595.97"/>
        <line class="cls-1" x1=".12" y1="609.77" x2=".12" y2="591.37"/>
        <line class="cls-1" x1="9.32" y1="627.84" x2=".12" y2="627.84"/>
        <polyline class="cls-1" points="31.99 627.84 27.39 627.84 22.79 627.84"/>
        <polyline class="cls-1" points="59.26 627.84 54.66 627.84 50.06 627.84"/>
        <polyline class="cls-1" points="86.53 627.84 81.93 627.84 77.33 627.84"/>
        <polyline class="cls-1" points="113.8 627.84 109.2 627.84 104.6 627.84"/>
        <polyline class="cls-1" points="141.06 627.84 136.46 627.84 131.86 627.84"/>
        <polyline class="cls-1" points="168.33 627.84 163.73 627.84 159.13 627.84"/>
        <polyline class="cls-1" points="195.6 627.84 191 627.84 186.4 627.84"/>
        <polyline class="cls-1" points="222.87 627.84 218.27 627.84 213.67 627.84"/>
        <polyline class="cls-1" points="250.13 627.84 245.53 627.84 240.93 627.84"/>
        <polyline class="cls-1" points="277.4 627.84 272.8 627.84 268.2 627.84"/>
        <polyline class="cls-1" points="304.67 627.84 300.07 627.84 295.47 627.84"/>
        <polyline class="cls-1" points="331.94 627.84 327.34 627.84 322.74 627.84"/>
        <polyline class="cls-1" points="359.2 627.84 354.6 627.84 350 627.84"/>
        <polyline class="cls-1" points="386.47 627.84 381.87 627.84 377.27 627.84"/>
        <polyline class="cls-1" points="413.74 627.84 409.14 627.84 404.54 627.84"/>
        <polyline class="cls-1" points="441 627.84 436.4 627.84 431.8 627.84"/>
        <polyline class="cls-1" points="468.27 627.84 463.67 627.84 459.07 627.84"/>
        <polyline class="cls-1" points="495.54 627.84 490.94 627.84 486.34 627.84"/>
        <polyline class="cls-1" points="522.81 627.84 518.21 627.84 513.61 627.84"/>
        <line class="cls-1" x1="545.48" y1="627.84" x2="536.28" y2="627.84"/>
        <line class="cls-1" x1="545.48" y1="637.04" x2="545.48" y2="618.64"/>
        <line class="cls-1" x1="518.21" y1="632.44" x2="518.21" y2="623.24"/>
        <line class="cls-1" x1="490.94" y1="632.44" x2="490.94" y2="623.24"/>
        <line class="cls-1" x1="463.67" y1="632.44" x2="463.67" y2="623.24"/>
        <line class="cls-1" x1="436.4" y1="632.44" x2="436.4" y2="623.24"/>
        <line class="cls-1" x1="409.14" y1="632.44" x2="409.14" y2="623.24"/>
        <line class="cls-1" x1="381.87" y1="632.44" x2="381.87" y2="623.24"/>
        <line class="cls-1" x1="354.6" y1="632.44" x2="354.6" y2="623.24"/>
        <line class="cls-1" x1="327.34" y1="632.44" x2="327.34" y2="623.24"/>
        <line class="cls-1" x1="300.07" y1="632.44" x2="300.07" y2="623.24"/>
        <line class="cls-1" x1="272.8" y1="632.44" x2="272.8" y2="623.24"/>
        <line class="cls-1" x1="245.53" y1="632.44" x2="245.53" y2="623.24"/>
        <line class="cls-1" x1="218.26" y1="632.44" x2="218.26" y2="623.24"/>
        <line class="cls-1" x1="191" y1="632.44" x2="191" y2="623.24"/>
        <line class="cls-1" x1="163.73" y1="632.44" x2="163.73" y2="623.24"/>
        <line class="cls-1" x1="136.46" y1="632.44" x2="136.46" y2="623.24"/>
        <line class="cls-1" x1="109.2" y1="632.44" x2="109.2" y2="623.24"/>
        <line class="cls-1" x1="81.93" y1="632.44" x2="81.93" y2="623.24"/>
        <line class="cls-1" x1="54.66" y1="632.44" x2="54.66" y2="623.24"/>
        <line class="cls-1" x1="27.39" y1="632.44" x2="27.39" y2="623.24"/>
        <line class="cls-1" x1=".12" y1="637.04" x2=".12" y2="618.64"/>
        <line class="cls-1" x1="9.32" y1="655.1" x2=".12" y2="655.1"/>
        <polyline class="cls-1" points="31.99 655.1 27.39 655.1 22.79 655.1"/>
        <polyline class="cls-1" points="59.26 655.1 54.66 655.1 50.06 655.1"/>
        <polyline class="cls-1" points="86.53 655.1 81.93 655.1 77.33 655.1"/>
        <polyline class="cls-1" points="113.8 655.1 109.2 655.1 104.6 655.1"/>
        <polyline class="cls-1" points="141.06 655.1 136.46 655.1 131.86 655.1"/>
        <polyline class="cls-1" points="168.33 655.1 163.73 655.1 159.13 655.1"/>
        <polyline class="cls-1" points="195.6 655.1 191 655.1 186.4 655.1"/>
        <polyline class="cls-1" points="222.87 655.1 218.27 655.1 213.67 655.1"/>
        <polyline class="cls-1" points="250.13 655.1 245.53 655.1 240.93 655.1"/>
        <polyline class="cls-1" points="277.4 655.1 272.8 655.1 268.2 655.1"/>
        <polyline class="cls-1" points="304.67 655.1 300.07 655.1 295.47 655.1"/>
        <polyline class="cls-1" points="331.94 655.1 327.34 655.1 322.74 655.1"/>
        <polyline class="cls-1" points="359.2 655.1 354.6 655.1 350 655.1"/>
        <polyline class="cls-1" points="386.47 655.1 381.87 655.1 377.27 655.1"/>
        <polyline class="cls-1" points="413.74 655.1 409.14 655.1 404.54 655.1"/>
        <polyline class="cls-1" points="441 655.1 436.4 655.1 431.8 655.1"/>
        <polyline class="cls-1" points="468.27 655.1 463.67 655.1 459.07 655.1"/>
        <polyline class="cls-1" points="495.54 655.1 490.94 655.1 486.34 655.1"/>
        <polyline class="cls-1" points="522.81 655.1 518.21 655.1 513.61 655.1"/>
        <line class="cls-1" x1="545.48" y1="655.1" x2="536.28" y2="655.1"/>
        <line class="cls-1" x1="545.48" y1="664.3" x2="545.48" y2="645.9"/>
        <line class="cls-1" x1="518.21" y1="659.7" x2="518.21" y2="650.5"/>
        <line class="cls-1" x1="490.94" y1="659.7" x2="490.94" y2="650.5"/>
        <line class="cls-1" x1="463.67" y1="659.7" x2="463.67" y2="650.5"/>
        <line class="cls-1" x1="436.4" y1="659.7" x2="436.4" y2="650.5"/>
        <line class="cls-1" x1="409.14" y1="659.7" x2="409.14" y2="650.5"/>
        <line class="cls-1" x1="381.87" y1="659.7" x2="381.87" y2="650.5"/>
        <line class="cls-1" x1="354.6" y1="659.7" x2="354.6" y2="650.5"/>
        <line class="cls-1" x1="327.34" y1="659.7" x2="327.34" y2="650.5"/>
        <line class="cls-1" x1="300.07" y1="659.7" x2="300.07" y2="650.5"/>
        <line class="cls-1" x1="272.8" y1="659.7" x2="272.8" y2="650.5"/>
        <line class="cls-1" x1="245.53" y1="659.7" x2="245.53" y2="650.5"/>
        <line class="cls-1" x1="218.26" y1="659.7" x2="218.26" y2="650.5"/>
        <line class="cls-1" x1="191" y1="659.7" x2="191" y2="650.5"/>
        <line class="cls-1" x1="163.73" y1="659.7" x2="163.73" y2="650.5"/>
        <line class="cls-1" x1="136.46" y1="659.7" x2="136.46" y2="650.5"/>
        <line class="cls-1" x1="109.2" y1="659.7" x2="109.2" y2="650.5"/>
        <line class="cls-1" x1="81.93" y1="659.7" x2="81.93" y2="650.5"/>
        <line class="cls-1" x1="54.66" y1="659.7" x2="54.66" y2="650.5"/>
        <line class="cls-1" x1="27.39" y1="659.7" x2="27.39" y2="650.5"/>
        <line class="cls-1" x1=".12" y1="664.3" x2=".12" y2="645.9"/>
        <line class="cls-1" x1="9.32" y1="682.37" x2=".12" y2="682.37"/>
        <polyline class="cls-1" points="31.99 682.37 27.39 682.37 22.79 682.37"/>
        <polyline class="cls-1" points="59.26 682.37 54.66 682.37 50.06 682.37"/>
        <polyline class="cls-1" points="86.53 682.37 81.93 682.37 77.33 682.37"/>
        <polyline class="cls-1" points="113.8 682.37 109.2 682.37 104.6 682.37"/>
        <polyline class="cls-1" points="141.06 682.37 136.46 682.37 131.86 682.37"/>
        <polyline class="cls-1" points="168.33 682.37 163.73 682.37 159.13 682.37"/>
        <polyline class="cls-1" points="195.6 682.37 191 682.37 186.4 682.37"/>
        <polyline class="cls-1" points="222.87 682.37 218.27 682.37 213.67 682.37"/>
        <polyline class="cls-1" points="250.13 682.37 245.53 682.37 240.93 682.37"/>
        <polyline class="cls-1" points="277.4 682.37 272.8 682.37 268.2 682.37"/>
        <polyline class="cls-1" points="304.67 682.37 300.07 682.37 295.47 682.37"/>
        <polyline class="cls-1" points="331.94 682.37 327.34 682.37 322.74 682.37"/>
        <polyline class="cls-1" points="359.2 682.37 354.6 682.37 350 682.37"/>
        <polyline class="cls-1" points="386.47 682.37 381.87 682.37 377.27 682.37"/>
        <polyline class="cls-1" points="413.74 682.37 409.14 682.37 404.54 682.37"/>
        <polyline class="cls-1" points="441 682.37 436.4 682.37 431.8 682.37"/>
        <polyline class="cls-1" points="468.27 682.37 463.67 682.37 459.07 682.37"/>
        <polyline class="cls-1" points="495.54 682.37 490.94 682.37 486.34 682.37"/>
        <polyline class="cls-1" points="522.81 682.37 518.21 682.37 513.61 682.37"/>
        <line class="cls-1" x1="545.48" y1="682.37" x2="536.28" y2="682.37"/>
        <line class="cls-1" x1="545.48" y1="691.57" x2="545.48" y2="673.17"/>
        <line class="cls-1" x1="518.21" y1="686.97" x2="518.21" y2="677.77"/>
        <line class="cls-1" x1="490.94" y1="686.97" x2="490.94" y2="677.77"/>
        <line class="cls-1" x1="463.67" y1="686.97" x2="463.67" y2="677.77"/>
        <line class="cls-1" x1="436.4" y1="686.97" x2="436.4" y2="677.77"/>
        <line class="cls-1" x1="409.14" y1="686.97" x2="409.14" y2="677.77"/>
        <line class="cls-1" x1="381.87" y1="686.97" x2="381.87" y2="677.77"/>
        <line class="cls-1" x1="354.6" y1="686.97" x2="354.6" y2="677.77"/>
        <line class="cls-1" x1="327.34" y1="686.97" x2="327.34" y2="677.77"/>
        <line class="cls-1" x1="300.07" y1="686.97" x2="300.07" y2="677.77"/>
        <line class="cls-1" x1="272.8" y1="686.97" x2="272.8" y2="677.77"/>
        <line class="cls-1" x1="245.53" y1="686.97" x2="245.53" y2="677.77"/>
        <line class="cls-1" x1="218.26" y1="686.97" x2="218.26" y2="677.77"/>
        <line class="cls-1" x1="191" y1="686.97" x2="191" y2="677.77"/>
        <line class="cls-1" x1="163.73" y1="686.97" x2="163.73" y2="677.77"/>
        <line class="cls-1" x1="136.46" y1="686.97" x2="136.46" y2="677.77"/>
        <line class="cls-1" x1="109.2" y1="686.97" x2="109.2" y2="677.77"/>
        <line class="cls-1" x1="81.93" y1="686.97" x2="81.93" y2="677.77"/>
        <line class="cls-1" x1="54.66" y1="686.97" x2="54.66" y2="677.77"/>
        <line class="cls-1" x1="27.39" y1="686.97" x2="27.39" y2="677.77"/>
        <line class="cls-1" x1=".12" y1="691.57" x2=".12" y2="673.17"/>
        <line class="cls-1" x1="9.32" y1="709.64" x2=".12" y2="709.64"/>
        <polyline class="cls-1" points="31.99 709.64 27.39 709.64 22.79 709.64"/>
        <polyline class="cls-1" points="59.26 709.64 54.66 709.64 50.06 709.64"/>
        <polyline class="cls-1" points="86.53 709.64 81.93 709.64 77.33 709.64"/>
        <polyline class="cls-1" points="113.8 709.64 109.2 709.64 104.6 709.64"/>
        <polyline class="cls-1" points="141.06 709.64 136.46 709.64 131.86 709.64"/>
        <polyline class="cls-1" points="168.33 709.64 163.73 709.64 159.13 709.64"/>
        <polyline class="cls-1" points="195.6 709.64 191 709.64 186.4 709.64"/>
        <polyline class="cls-1" points="222.87 709.64 218.27 709.64 213.67 709.64"/>
        <polyline class="cls-1" points="250.13 709.64 245.53 709.64 240.93 709.64"/>
        <polyline class="cls-1" points="277.4 709.64 272.8 709.64 268.2 709.64"/>
        <polyline class="cls-1" points="304.67 709.64 300.07 709.64 295.47 709.64"/>
        <polyline class="cls-1" points="331.94 709.64 327.34 709.64 322.74 709.64"/>
        <polyline class="cls-1" points="359.2 709.64 354.6 709.64 350 709.64"/>
        <polyline class="cls-1" points="386.47 709.64 381.87 709.64 377.27 709.64"/>
        <polyline class="cls-1" points="413.74 709.64 409.14 709.64 404.54 709.64"/>
        <polyline class="cls-1" points="441 709.64 436.4 709.64 431.8 709.64"/>
        <polyline class="cls-1" points="468.27 709.64 463.67 709.64 459.07 709.64"/>
        <polyline class="cls-1" points="495.54 709.64 490.94 709.64 486.34 709.64"/>
        <polyline class="cls-1" points="522.81 709.64 518.21 709.64 513.61 709.64"/>
        <line class="cls-1" x1="545.48" y1="709.64" x2="536.28" y2="709.64"/>
        <line class="cls-1" x1="545.48" y1="718.84" x2="545.48" y2="700.44"/>
        <line class="cls-1" x1="518.21" y1="714.24" x2="518.21" y2="705.04"/>
        <line class="cls-1" x1="490.94" y1="714.24" x2="490.94" y2="705.04"/>
        <line class="cls-1" x1="463.67" y1="714.24" x2="463.67" y2="705.04"/>
        <line class="cls-1" x1="436.4" y1="714.24" x2="436.4" y2="705.04"/>
        <line class="cls-1" x1="409.14" y1="714.24" x2="409.14" y2="705.04"/>
        <line class="cls-1" x1="381.87" y1="714.24" x2="381.87" y2="705.04"/>
        <line class="cls-1" x1="354.6" y1="714.24" x2="354.6" y2="705.04"/>
        <line class="cls-1" x1="327.34" y1="714.24" x2="327.34" y2="705.04"/>
        <line class="cls-1" x1="300.07" y1="714.24" x2="300.07" y2="705.04"/>
        <line class="cls-1" x1="272.8" y1="714.24" x2="272.8" y2="705.04"/>
        <line class="cls-1" x1="245.53" y1="714.24" x2="245.53" y2="705.04"/>
        <line class="cls-1" x1="218.26" y1="714.24" x2="218.26" y2="705.04"/>
        <line class="cls-1" x1="191" y1="714.24" x2="191" y2="705.04"/>
        <line class="cls-1" x1="163.73" y1="714.24" x2="163.73" y2="705.04"/>
        <line class="cls-1" x1="136.46" y1="714.24" x2="136.46" y2="705.04"/>
        <line class="cls-1" x1="109.2" y1="714.24" x2="109.2" y2="705.04"/>
        <line class="cls-1" x1="81.93" y1="714.24" x2="81.93" y2="705.04"/>
        <line class="cls-1" x1="54.66" y1="714.24" x2="54.66" y2="705.04"/>
        <line class="cls-1" x1="27.39" y1="714.24" x2="27.39" y2="705.04"/>
        <line class="cls-1" x1=".12" y1="718.84" x2=".12" y2="700.44"/>
        <line class="cls-1" x1="9.32" y1="736.9" x2=".12" y2="736.9"/>
        <polyline class="cls-1" points="31.99 736.9 27.39 736.9 22.79 736.9"/>
        <polyline class="cls-1" points="59.26 736.9 54.66 736.9 50.06 736.9"/>
        <polyline class="cls-1" points="86.53 736.9 81.93 736.9 77.33 736.9"/>
        <polyline class="cls-1" points="113.8 736.9 109.2 736.9 104.6 736.9"/>
        <polyline class="cls-1" points="141.06 736.9 136.46 736.9 131.86 736.9"/>
        <polyline class="cls-1" points="168.33 736.9 163.73 736.9 159.13 736.9"/>
        <polyline class="cls-1" points="195.6 736.9 191 736.9 186.4 736.9"/>
        <polyline class="cls-1" points="222.87 736.9 218.27 736.9 213.67 736.9"/>
        <polyline class="cls-1" points="250.13 736.9 245.53 736.9 240.93 736.9"/>
        <polyline class="cls-1" points="277.4 736.9 272.8 736.9 268.2 736.9"/>
        <polyline class="cls-1" points="304.67 736.9 300.07 736.9 295.47 736.9"/>
        <polyline class="cls-1" points="331.94 736.9 327.34 736.9 322.74 736.9"/>
        <polyline class="cls-1" points="359.2 736.9 354.6 736.9 350 736.9"/>
        <polyline class="cls-1" points="386.47 736.9 381.87 736.9 377.27 736.9"/>
        <polyline class="cls-1" points="413.74 736.9 409.14 736.9 404.54 736.9"/>
        <polyline class="cls-1" points="441 736.9 436.4 736.9 431.8 736.9"/>
        <polyline class="cls-1" points="468.27 736.9 463.67 736.9 459.07 736.9"/>
        <polyline class="cls-1" points="495.54 736.9 490.94 736.9 486.34 736.9"/>
        <polyline class="cls-1" points="522.81 736.9 518.21 736.9 513.61 736.9"/>
        <line class="cls-1" x1="545.48" y1="736.9" x2="536.28" y2="736.9"/>
        <line class="cls-1" x1="545.48" y1="746.1" x2="545.48" y2="727.7"/>
        <line class="cls-1" x1="518.21" y1="741.5" x2="518.21" y2="732.3"/>
        <line class="cls-1" x1="490.94" y1="741.5" x2="490.94" y2="732.3"/>
        <line class="cls-1" x1="463.67" y1="741.5" x2="463.67" y2="732.3"/>
        <line class="cls-1" x1="436.4" y1="741.5" x2="436.4" y2="732.3"/>
        <line class="cls-1" x1="409.14" y1="741.5" x2="409.14" y2="732.3"/>
        <line class="cls-1" x1="381.87" y1="741.5" x2="381.87" y2="732.3"/>
        <line class="cls-1" x1="354.6" y1="741.5" x2="354.6" y2="732.3"/>
        <line class="cls-1" x1="327.34" y1="741.5" x2="327.34" y2="732.3"/>
        <line class="cls-1" x1="300.07" y1="741.5" x2="300.07" y2="732.3"/>
        <line class="cls-1" x1="272.8" y1="741.5" x2="272.8" y2="732.3"/>
        <line class="cls-1" x1="245.53" y1="741.5" x2="245.53" y2="732.3"/>
        <line class="cls-1" x1="218.26" y1="741.5" x2="218.26" y2="732.3"/>
        <line class="cls-1" x1="191" y1="741.5" x2="191" y2="732.3"/>
        <line class="cls-1" x1="163.73" y1="741.5" x2="163.73" y2="732.3"/>
        <line class="cls-1" x1="136.46" y1="741.5" x2="136.46" y2="732.3"/>
        <line class="cls-1" x1="109.2" y1="741.5" x2="109.2" y2="732.3"/>
        <line class="cls-1" x1="81.93" y1="741.5" x2="81.93" y2="732.3"/>
        <line class="cls-1" x1="54.66" y1="741.5" x2="54.66" y2="732.3"/>
        <line class="cls-1" x1="27.39" y1="741.5" x2="27.39" y2="732.3"/>
        <line class="cls-1" x1=".12" y1="746.1" x2=".12" y2="727.7"/>
        <line class="cls-1" x1="9.32" y1="764.17" x2=".12" y2="764.17"/>
        <polyline class="cls-1" points="31.99 764.17 27.39 764.17 22.79 764.17"/>
        <polyline class="cls-1" points="59.26 764.17 54.66 764.17 50.06 764.17"/>
        <polyline class="cls-1" points="86.53 764.17 81.93 764.17 77.33 764.17"/>
        <polyline class="cls-1" points="113.8 764.17 109.2 764.17 104.6 764.17"/>
        <polyline class="cls-1" points="141.06 764.17 136.46 764.17 131.86 764.17"/>
        <polyline class="cls-1" points="168.33 764.17 163.73 764.17 159.13 764.17"/>
        <polyline class="cls-1" points="195.6 764.17 191 764.17 186.4 764.17"/>
        <polyline class="cls-1" points="222.87 764.17 218.27 764.17 213.67 764.17"/>
        <polyline class="cls-1" points="250.13 764.17 245.53 764.17 240.93 764.17"/>
        <polyline class="cls-1" points="277.4 764.17 272.8 764.17 268.2 764.17"/>
        <polyline class="cls-1" points="304.67 764.17 300.07 764.17 295.47 764.17"/>
        <polyline class="cls-1" points="331.94 764.17 327.34 764.17 322.74 764.17"/>
        <polyline class="cls-1" points="359.2 764.17 354.6 764.17 350 764.17"/>
        <polyline class="cls-1" points="386.47 764.17 381.87 764.17 377.27 764.17"/>
        <polyline class="cls-1" points="413.74 764.17 409.14 764.17 404.54 764.17"/>
        <polyline class="cls-1" points="441 764.17 436.4 764.17 431.8 764.17"/>
        <polyline class="cls-1" points="468.27 764.17 463.67 764.17 459.07 764.17"/>
        <polyline class="cls-1" points="495.54 764.17 490.94 764.17 486.34 764.17"/>
        <polyline class="cls-1" points="522.81 764.17 518.21 764.17 513.61 764.17"/>
        <line class="cls-1" x1="545.48" y1="764.17" x2="536.28" y2="764.17"/>
        <line class="cls-1" x1="545.48" y1="773.37" x2="545.48" y2="754.97"/>
        <line class="cls-1" x1="518.21" y1="768.77" x2="518.21" y2="759.57"/>
        <line class="cls-1" x1="490.94" y1="768.77" x2="490.94" y2="759.57"/>
        <line class="cls-1" x1="463.67" y1="768.77" x2="463.67" y2="759.57"/>
        <line class="cls-1" x1="436.4" y1="768.77" x2="436.4" y2="759.57"/>
        <line class="cls-1" x1="409.14" y1="768.77" x2="409.14" y2="759.57"/>
        <line class="cls-1" x1="381.87" y1="768.77" x2="381.87" y2="759.57"/>
        <line class="cls-1" x1="354.6" y1="768.77" x2="354.6" y2="759.57"/>
        <line class="cls-1" x1="327.34" y1="768.77" x2="327.34" y2="759.57"/>
        <line class="cls-1" x1="300.07" y1="768.77" x2="300.07" y2="759.57"/>
        <line class="cls-1" x1="272.8" y1="768.77" x2="272.8" y2="759.57"/>
        <line class="cls-1" x1="245.53" y1="768.77" x2="245.53" y2="759.57"/>
        <line class="cls-1" x1="218.26" y1="768.77" x2="218.26" y2="759.57"/>
        <line class="cls-1" x1="191" y1="768.77" x2="191" y2="759.57"/>
        <line class="cls-1" x1="163.73" y1="768.77" x2="163.73" y2="759.57"/>
        <line class="cls-1" x1="136.46" y1="768.77" x2="136.46" y2="759.57"/>
        <line class="cls-1" x1="109.2" y1="768.77" x2="109.2" y2="759.57"/>
        <line class="cls-1" x1="81.93" y1="768.77" x2="81.93" y2="759.57"/>
        <line class="cls-1" x1="54.66" y1="768.77" x2="54.66" y2="759.57"/>
        <line class="cls-1" x1="27.39" y1="768.77" x2="27.39" y2="759.57"/>
        <line class="cls-1" x1=".12" y1="773.37" x2=".12" y2="754.97"/>
        <line class="cls-1" x1="9.32" y1="791.44" x2=".12" y2="791.44"/>
        <polyline class="cls-1" points="36.59 791.44 27.39 791.44 18.19 791.44"/>
        <polyline class="cls-1" points="63.86 791.44 54.66 791.44 45.46 791.44"/>
        <polyline class="cls-1" points="91.13 791.44 81.93 791.44 72.73 791.44"/>
        <polyline class="cls-1" points="118.4 791.44 109.2 791.44 100 791.44"/>
        <polyline class="cls-1" points="145.66 791.44 136.46 791.44 127.27 791.44"/>
        <polyline class="cls-1" points="172.93 791.44 163.73 791.44 154.53 791.44"/>
        <polyline class="cls-1" points="200.2 791.44 191 791.44 181.8 791.44"/>
        <polyline class="cls-1" points="227.46 791.44 218.26 791.44 209.07 791.44"/>
        <polyline class="cls-1" points="254.73 791.44 245.53 791.44 236.33 791.44"/>
        <polyline class="cls-1" points="282 791.44 272.8 791.44 263.6 791.44"/>
        <polyline class="cls-1" points="309.27 791.44 300.07 791.44 290.87 791.44"/>
        <polyline class="cls-1" points="336.54 791.44 327.34 791.44 318.14 791.44"/>
        <polyline class="cls-1" points="363.8 791.44 354.6 791.44 345.41 791.44"/>
        <polyline class="cls-1" points="391.07 791.44 381.87 791.44 372.67 791.44"/>
        <polyline class="cls-1" points="418.34 791.44 409.14 791.44 399.94 791.44"/>
        <polyline class="cls-1" points="445.6 791.44 436.4 791.44 427.2 791.44"/>
        <polyline class="cls-1" points="472.87 791.44 463.67 791.44 454.47 791.44"/>
        <polyline class="cls-1" points="500.14 791.44 490.94 791.44 481.74 791.44"/>
        <polyline class="cls-1" points="527.41 791.44 518.21 791.44 509.01 791.44"/>
        <line class="cls-1" x1="545.48" y1="791.44" x2="536.28" y2="791.44"/>
        <line class="cls-1" x1="545.48" y1="791.44" x2="545.48" y2="782.24"/>
        <line class="cls-1" x1="518.21" y1="791.44" x2="518.21" y2="782.24"/>
        <line class="cls-1" x1="490.94" y1="791.44" x2="490.94" y2="782.24"/>
        <line class="cls-1" x1="463.67" y1="791.44" x2="463.67" y2="782.24"/>
        <line class="cls-1" x1="436.4" y1="791.44" x2="436.4" y2="782.24"/>
        <line class="cls-1" x1="409.14" y1="791.44" x2="409.14" y2="782.24"/>
        <line class="cls-1" x1="381.87" y1="791.44" x2="381.87" y2="782.24"/>
        <line class="cls-1" x1="354.6" y1="791.44" x2="354.6" y2="782.24"/>
        <line class="cls-1" x1="327.34" y1="791.44" x2="327.34" y2="782.24"/>
        <line class="cls-1" x1="300.07" y1="791.44" x2="300.07" y2="782.24"/>
        <line class="cls-1" x1="272.8" y1="791.44" x2="272.8" y2="782.24"/>
        <line class="cls-1" x1="245.53" y1="791.44" x2="245.53" y2="782.24"/>
        <line class="cls-1" x1="218.26" y1="791.44" x2="218.26" y2="782.24"/>
        <line class="cls-1" x1="191" y1="791.44" x2="191" y2="782.24"/>
        <line class="cls-1" x1="163.73" y1="791.44" x2="163.73" y2="782.24"/>
        <line class="cls-1" x1="136.46" y1="791.44" x2="136.46" y2="782.24"/>
        <line class="cls-1" x1="109.2" y1="791.44" x2="109.2" y2="782.24"/>
        <line class="cls-1" x1="81.93" y1="791.44" x2="81.93" y2="782.24"/>
        <line class="cls-1" x1="54.66" y1="791.44" x2="54.66" y2="782.24"/>
        <line class="cls-1" x1="27.39" y1="791.44" x2="27.39" y2="782.24"/>
        <line class="cls-1" x1=".12" y1="791.44" x2=".12" y2="782.24"/>
      </g>
    </g>
  </g>
</svg>