<?xml version="1.0" encoding="UTF-8"?>
<svg id="Layer_2" data-name="Layer 2" xmlns="http://www.w3.org/2000/svg" viewBox="0 0 608.07 128.54">
  <defs>
    <style>
      .cls-1 {
        fill: #e50914;
      }
    </style>
  </defs>
  <g id="Layer_1-2" data-name="Layer 1">
    <g>
      <g>
        <g>
          <g>
            <path d="M180.65,17.55h6.46l2.53,13.06h.49c.37-4.4,1.81-7.85,4.32-10.35,2.5-2.5,5.91-3.75,10.21-3.75,5.19,0,9.22,1.6,12.07,4.81,2.85,3.21,4.28,7.73,4.28,13.58s-1.38,10.38-4.14,13.58c-2.76,3.21-6.65,4.81-11.65,4.81-4.26,0-7.72-1.26-10.39-3.79-2.67-2.53-4.24-6.04-4.7-10.53h-.49l.42,11.44v14.95h-9.41V17.55ZM193.35,42.78c1.97,1.85,4.68,2.77,8.14,2.77,3.18,0,5.64-.94,7.37-2.81,1.73-1.87,2.6-4.49,2.6-7.86s-.87-6.05-2.6-7.9c-1.73-1.85-4.19-2.77-7.37-2.77-3.51,0-6.24.95-8.18,2.84-1.94,1.9-2.91,4.58-2.91,8.04,0,3.28.98,5.84,2.95,7.69Z"/>
            <path d="M236.03,0v52.22h-9.41V0h9.41Z"/>
            <path d="M269.16,40.08h-.49c-.14,2.01-.7,4.02-1.68,6.04-.98,2.01-2.52,3.7-4.6,5.05-2.08,1.36-4.71,2.04-7.9,2.04-3.93,0-6.96-.91-9.09-2.74-2.13-1.82-3.19-4.33-3.19-7.51,0-3.6,1.31-6.26,3.93-7.97,2.62-1.71,6.18-2.56,10.67-2.56,3.93,0,7.88.31,11.86.91v-1.26c-.05-2.53-.84-4.43-2.39-5.72-1.55-1.29-3.75-1.93-6.6-1.93-4.26,0-8.47.91-12.63,2.74l-.84-7.79c2.01-.94,4.26-1.65,6.74-2.14,2.48-.49,5.01-.74,7.58-.74,5.94,0,10.35,1.3,13.23,3.9,2.88,2.6,4.32,6.21,4.32,10.84v20.99h-6.53l-2.39-12.14ZM253.55,44.68c1.19.87,2.82,1.3,4.88,1.3,2.67,0,4.99-.77,6.98-2.32s3.1-3.91,3.34-7.09v-.56c-3.28-.28-5.99-.42-8.14-.42-2.9,0-5.1.46-6.6,1.37-1.5.91-2.25,2.26-2.25,4.04,0,1.59.6,2.82,1.79,3.69Z"/>
            <path d="M297.71,65.35l4.31-13.34h-8.77l-12.07-34.46h9.83l11.02,33.76h.28l11.09-33.76h9.76l-17.51,47.8h-7.92Z"/>
          </g>
          <g>
            <path d="M210.62,109.94h-17.9l-12.07-34.68h9.83l11.02,33.97h.28l11.09-33.97h9.76l-12,34.68Z"/>
            <path d="M237.71,109.94h-9.48v-27.03h-3.3v-7.65h12.78v34.68ZM227.68,68.7c-.98-.77-1.47-1.88-1.47-3.33s.49-2.56,1.47-3.33c.98-.77,2.39-1.16,4.21-1.16s3.16.39,4.14,1.16c.98.77,1.47,1.88,1.47,3.33s-.49,2.56-1.47,3.33c-.98.77-2.36,1.16-4.14,1.16s-3.23-.39-4.21-1.16Z"/>
            <path d="M248.38,76.77c2.81-1.71,6.78-2.56,11.93-2.56,2.67,0,5.25.23,7.76.7,2.5.47,4.67,1.1,6.49,1.89l-.49,7.65c-1.87-.84-3.99-1.5-6.35-1.97-2.36-.47-4.67-.7-6.91-.7-4.31,0-6.46,1.19-6.46,3.58,0,1.17.55,2.08,1.65,2.74,1.1.66,3.01,1.22,5.72,1.68,5.05.8,8.76,2.01,11.13,3.65,2.36,1.64,3.55,3.93,3.55,6.88,0,3.37-1.53,5.99-4.6,7.86-3.06,1.87-7.36,2.81-12.88,2.81-6.08,0-11.16-.91-15.23-2.74l.49-8c2.25,1.03,4.62,1.83,7.12,2.39,2.5.56,4.95.84,7.34.84,4.96,0,7.44-1.36,7.44-4.07,0-1.36-.62-2.41-1.86-3.16-1.24-.75-3.22-1.31-5.93-1.68-5.05-.79-8.67-1.98-10.84-3.54-2.18-1.57-3.27-3.85-3.27-6.84,0-3.23,1.4-5.7,4.21-7.41Z"/>
            <path d="M292.67,109.94h-9.48v-27.03h-3.3v-7.65h12.78v34.68ZM282.64,68.7c-.98-.77-1.47-1.88-1.47-3.33s.49-2.56,1.47-3.33c.98-.77,2.39-1.16,4.21-1.16s3.16.39,4.14,1.16c.98.77,1.47,1.88,1.47,3.33s-.49,2.56-1.47,3.33c-.98.77-2.36,1.16-4.14,1.16s-3.23-.39-4.21-1.16Z"/>
            <path d="M304.54,106.15c-3.56-3.23-5.34-7.74-5.34-13.55s1.78-10.32,5.34-13.55c3.56-3.23,8.54-4.84,14.95-4.84s11.39,1.61,14.95,4.84c3.56,3.23,5.33,7.77,5.33,13.62s-1.78,10.31-5.33,13.51c-3.56,3.21-8.54,4.81-14.95,4.81s-11.4-1.62-14.95-4.84ZM311.52,100.67c1.85,1.87,4.5,2.81,7.97,2.81s6.05-.93,7.9-2.81c1.85-1.87,2.77-4.56,2.77-8.07s-.92-6.21-2.77-8.11c-1.85-1.9-4.48-2.84-7.9-2.84s-6.12.94-7.97,2.81c-1.85,1.87-2.77,4.59-2.77,8.14s.92,6.2,2.77,8.07Z"/>
            <path d="M351.64,75.26l2.6,13.62h.35c.33-4.26,1.72-7.77,4.18-10.53,2.46-2.76,5.93-4.14,10.42-4.14s7.86,1.36,10.39,4.07c2.53,2.71,3.79,6.5,3.79,11.37v20.29h-9.41v-19.37c0-2.76-.76-4.9-2.28-6.42-1.52-1.52-3.69-2.28-6.49-2.28-3.32,0-5.92,1.21-7.79,3.62-1.87,2.41-2.81,5.42-2.81,9.02v15.44h-9.48v-34.68h6.53Z"/>
          </g>
        </g>
        <g>
          <path class="cls-1" d="M32.41,41.07c-1.9-5.38,3.28-10.57,8.66-8.66l80.12,28.17c3.65,1.28,7.48-1.49,7.35-5.36-.26-7.76-.84-15.51-1.78-23.22-.95-7.88-4.52-14.92-9.83-20.23-5.31-5.31-12.35-8.88-20.22-9.83-10.75-1.29-21.56-1.93-32.36-1.93s-21.61.64-32.36,1.93c-7.88.95-14.92,4.52-20.23,9.83C6.45,17.08,2.88,24.12,1.93,31.99c-1.29,10.75-1.93,21.56-1.93,32.36s.64,21.61,1.93,32.36c1.9,15.74,14.31,28.16,30.06,30.05,7.72.94,15.47,1.52,23.22,1.78,3.87.13,6.64-3.7,5.36-7.35l-28.17-80.12Z"/>
          <path class="cls-1" d="M92.07,87.41c-2.25.66-4.02,2.41-4.66,4.66l-8.3,28.81c-1.06,3.67,1.85,7.31,5.67,7.03,3.98-.29,7.96-.67,11.93-1.15,7.88-.95,14.92-4.52,20.22-9.83,5.31-5.31,8.88-12.35,9.83-20.22.48-3.97.86-7.95,1.15-11.93.28-3.81-3.36-6.73-7.03-5.67l-28.81,8.3Z"/>
        </g>
      </g>
      <g>
        <path d="M436.34,36.92h-2.94v-14.31h2.94v5.85h7.7v-5.85h2.94v14.31h-2.94v-5.85h-7.7v5.85Z"/>
        <path d="M456.2,22.34c1.72,0,3.12.45,4.2,1.34,1.08.9,1.62,2.18,1.62,3.86v9.38h-2.94v-2.13c-1.18,1.61-2.84,2.41-4.98,2.41-1.36,0-2.47-.36-3.33-1.09s-1.29-1.7-1.29-2.91c0-1.4.49-2.45,1.48-3.15.99-.7,2.25-1.13,3.78-1.3l2.77-.28c1.04-.09,1.57-.56,1.57-1.4,0-.69-.27-1.24-.8-1.65-.53-.41-1.23-.62-2.09-.62s-1.62.22-2.23.67c-.61.45-.99,1.1-1.16,1.96l-2.91-.7c.26-1.34.96-2.41,2.1-3.21,1.14-.79,2.54-1.19,4.2-1.19ZM454.74,34.82c1.21,0,2.24-.41,3.08-1.22.84-.81,1.26-1.76,1.26-2.84v-.56c-.24.22-.78.38-1.62.48l-2.72.34c-.71.09-1.27.3-1.69.63s-.63.77-.63,1.33.21,1.01.63,1.34.98.5,1.69.5Z"/>
        <path d="M475.52,29.62c.75.3,1.32.75,1.72,1.36.4.61.6,1.29.6,2.06,0,1.12-.44,2.05-1.32,2.79-.88.74-2.01,1.11-3.39,1.11h-7.95v-14.31h7.31c1.36,0,2.49.37,3.37,1.11.89.74,1.33,1.68,1.33,2.81,0,1.34-.56,2.37-1.68,3.08ZM472.32,25.08h-4.34v3.47h4.34c.58,0,1.05-.17,1.43-.5.37-.34.56-.76.56-1.26s-.19-.89-.56-1.22c-.37-.33-.85-.49-1.43-.49ZM467.98,34.46h5.01c.58,0,1.05-.16,1.41-.49.36-.33.55-.75.55-1.27,0-.49-.18-.89-.55-1.22-.36-.33-.83-.49-1.41-.49h-5.01v3.47Z"/>
        <path d="M480.93,19.79c-.36-.35-.55-.78-.55-1.29s.18-.93.55-1.29.8-.53,1.3-.53.93.18,1.29.53.53.78.53,1.29-.18.93-.53,1.29c-.35.35-.78.53-1.29.53s-.94-.18-1.3-.53ZM483.69,36.92h-2.94v-14.31h2.94v14.31Z"/>
        <path d="M489.93,36.92h-2.94v-14.31h10.33v2.6h-7.39v11.7Z"/>
        <path d="M504.63,22.34c1.72,0,3.12.45,4.2,1.34,1.08.9,1.62,2.18,1.62,3.86v9.38h-2.94v-2.13c-1.18,1.61-2.84,2.41-4.98,2.41-1.36,0-2.47-.36-3.33-1.09-.86-.73-1.29-1.7-1.29-2.91,0-1.4.49-2.45,1.48-3.15s2.25-1.13,3.78-1.3l2.77-.28c1.04-.09,1.57-.56,1.57-1.4,0-.69-.27-1.24-.8-1.65s-1.23-.62-2.09-.62-1.62.22-2.23.67c-.61.45-.99,1.1-1.16,1.96l-2.91-.7c.26-1.34.96-2.41,2.1-3.21s2.54-1.19,4.2-1.19ZM503.18,34.82c1.21,0,2.24-.41,3.08-1.22s1.26-1.76,1.26-2.84v-.56c-.24.22-.78.38-1.62.48l-2.72.34c-.71.09-1.27.3-1.69.63s-.63.77-.63,1.33.21,1.01.63,1.34.98.5,1.69.5Z"/>
        <path d="M519.89,36.92h-2.94v-11.7h-4.93v-2.6h12.77v2.6h-4.9v11.7Z"/>
        <path d="M527.88,35.08c-1.46-1.42-2.18-3.18-2.18-5.29s.73-3.88,2.18-5.31c1.46-1.43,3.26-2.14,5.4-2.14s3.95.71,5.4,2.14c1.46,1.43,2.18,3.2,2.18,5.31s-.73,3.87-2.18,5.29c-1.46,1.42-3.26,2.13-5.4,2.13s-3.95-.71-5.4-2.13ZM530.03,26.41c-.88.91-1.32,2.03-1.32,3.37s.44,2.46,1.32,3.36c.88.9,1.96,1.34,3.25,1.34s2.39-.45,3.26-1.34c.87-.9,1.3-2.02,1.3-3.36s-.43-2.49-1.3-3.39c-.87-.9-1.96-1.34-3.26-1.34s-2.37.45-3.25,1.36Z"/>
        <path d="M551.65,22.34c2,0,3.67.71,5.03,2.14,1.35,1.43,2.03,3.2,2.03,5.31s-.68,3.87-2.03,5.29c-1.35,1.42-3.03,2.13-5.03,2.13-2.13,0-3.83-.8-5.1-2.41v7.73h-2.94v-19.91h2.94v2.13c1.27-1.6,2.97-2.41,5.1-2.41ZM551.12,34.49c1.29,0,2.37-.45,3.23-1.34.87-.9,1.3-2.02,1.3-3.36s-.43-2.49-1.3-3.39c-.87-.9-1.95-1.34-3.23-1.34s-2.39.45-3.26,1.34-1.3,2.03-1.3,3.39.43,2.46,1.3,3.36,1.96,1.34,3.26,1.34Z"/>
        <path d="M450.65,63.38c0,2.07-.71,3.82-2.13,5.24-1.42,1.42-3.18,2.15-5.29,2.18v5.32h-2.94v-5.32c-2.13-.04-3.9-.77-5.32-2.18-1.42-1.42-2.13-3.16-2.13-5.24s.71-3.85,2.13-5.26c1.42-1.42,3.19-2.15,5.32-2.18v-6.13h2.94v6.13c2.11.04,3.87.77,5.29,2.18,1.42,1.42,2.13,3.17,2.13,5.26ZM435.87,63.38c0,1.31.42,2.41,1.26,3.3s1.89,1.36,3.16,1.4v-9.44c-1.27.04-2.32.5-3.16,1.4s-1.26,2.01-1.26,3.33ZM443.23,58.65v9.44c1.27-.04,2.32-.5,3.15-1.4.83-.9,1.25-2,1.25-3.3s-.42-2.44-1.25-3.33c-.83-.9-1.88-1.36-3.15-1.4Z"/>
        <path d="M458.49,67.58l4.4-11.37h3l-8.18,19.91h-3l2.16-5.24-5.99-14.67h3.19l4.42,11.37Z"/>
        <path d="M474.34,70.52h-2.94v-11.7h-4.93v-2.6h12.77v2.6h-4.9v11.7Z"/>
        <path d="M489.46,56.5c1.94,0,3.55.68,4.83,2.03,1.28,1.35,1.92,3.01,1.92,4.97,0,2.09-.71,3.83-2.13,5.22-1.42,1.39-3.19,2.09-5.32,2.09s-3.96-.72-5.39-2.17c-1.43-1.45-2.14-3.38-2.14-5.81,0-3.08.38-5.53,1.13-7.36.76-1.83,1.95-3.14,3.57-3.92,1.04-.5,2.58-.89,4.61-1.16,2.02-.27,3.58-.56,4.66-.85v2.69c-.78.24-2.13.49-4.05.76-1.91.26-3.21.56-3.91.9-1.49.73-2.43,2.35-2.8,4.87,1.29-1.49,2.96-2.24,5.01-2.24ZM485.6,66.81c.84.85,1.89,1.27,3.16,1.27s2.32-.42,3.16-1.27c.84-.85,1.26-1.9,1.26-3.15s-.42-2.33-1.26-3.18c-.84-.85-1.89-1.27-3.16-1.27s-2.32.42-3.16,1.27c-.84.85-1.26,1.91-1.26,3.18s.42,2.3,1.26,3.15Z"/>
        <path d="M500.6,68.68c-1.46-1.42-2.18-3.18-2.18-5.29s.73-3.88,2.18-5.31c1.46-1.43,3.26-2.14,5.4-2.14s3.95.71,5.4,2.14c1.46,1.43,2.18,3.2,2.18,5.31s-.73,3.87-2.18,5.29c-1.46,1.42-3.26,2.13-5.4,2.13s-3.95-.71-5.4-2.13ZM502.76,60.01c-.88.91-1.32,2.03-1.32,3.37s.44,2.46,1.32,3.36c.88.9,1.96,1.34,3.25,1.34s2.39-.45,3.26-1.34,1.3-2.02,1.3-3.36-.43-2.49-1.3-3.39-1.96-1.34-3.26-1.34-2.37.45-3.25,1.36Z"/>
        <path d="M514.63,70.75h-.22v-2.63h.36c.69,0,1.21-.1,1.57-.29.35-.2.63-.64.84-1.33.21-.69.31-1.73.31-3.11v-7.17h11.87v14.31h-2.94v-11.7h-6.16v4.56c0,2.61-.42,4.49-1.26,5.64s-2.3,1.72-4.37,1.72Z"/>
        <path d="M539.63,70.52h-6.97v-14.31h2.94v4.51h4.03c1.61,0,2.9.46,3.88,1.37.98.92,1.47,2.09,1.47,3.53s-.49,2.61-1.47,3.53c-.98.92-2.27,1.37-3.88,1.37ZM535.6,63.33v4.59h3.72c.78,0,1.42-.21,1.9-.64.48-.43.73-.98.73-1.65s-.24-1.22-.73-1.65c-.49-.43-1.12-.64-1.9-.64h-3.72Z"/>
        <path d="M550.39,70.52h-2.94v-14.31h2.94v5.85h7.7v-5.85h2.94v14.31h-2.94v-5.85h-7.7v5.85Z"/>
        <path d="M565.98,68.68c-1.46-1.42-2.18-3.18-2.18-5.29s.73-3.88,2.18-5.31c1.46-1.43,3.26-2.14,5.4-2.14s3.95.71,5.4,2.14c1.46,1.43,2.18,3.2,2.18,5.31s-.73,3.87-2.18,5.29c-1.46,1.42-3.26,2.13-5.4,2.13s-3.95-.71-5.4-2.13ZM568.14,60.01c-.88.91-1.32,2.03-1.32,3.37s.44,2.46,1.32,3.36c.88.9,1.96,1.34,3.25,1.34s2.39-.45,3.26-1.34c.87-.9,1.3-2.02,1.3-3.36s-.43-2.49-1.3-3.39c-.87-.9-1.96-1.34-3.26-1.34s-2.37.45-3.25,1.36Z"/>
        <path d="M584.66,70.52h-2.94v-14.31h10.33v2.6h-7.39v11.7Z"/>
        <path d="M595.07,68.68c-1.46-1.42-2.18-3.18-2.18-5.29s.73-3.88,2.18-5.31c1.46-1.43,3.26-2.14,5.4-2.14s3.95.71,5.4,2.14c1.46,1.43,2.18,3.2,2.18,5.31s-.73,3.87-2.18,5.29c-1.46,1.42-3.26,2.13-5.4,2.13s-3.95-.71-5.4-2.13ZM597.23,60.01c-.88.91-1.32,2.03-1.32,3.37s.44,2.46,1.32,3.36c.88.9,1.96,1.34,3.25,1.34s2.39-.45,3.26-1.34c.87-.9,1.3-2.02,1.3-3.36s-.43-2.49-1.3-3.39c-.87-.9-1.96-1.34-3.26-1.34s-2.37.45-3.25,1.36Z"/>
        <path d="M441.44,89.54c2,0,3.67.71,5.03,2.14,1.35,1.43,2.03,3.2,2.03,5.31s-.68,3.87-2.03,5.29c-1.35,1.42-3.03,2.13-5.03,2.13-2.13,0-3.83-.8-5.1-2.41v7.73h-2.94v-19.91h2.94v2.13c1.27-1.6,2.97-2.41,5.1-2.41ZM440.91,101.69c1.29,0,2.37-.45,3.23-1.34.87-.9,1.3-2.02,1.3-3.36s-.43-2.49-1.3-3.39c-.87-.9-1.95-1.34-3.23-1.34s-2.39.45-3.26,1.34-1.3,2.03-1.3,3.39.43,2.46,1.3,3.36,1.96,1.34,3.26,1.34Z"/>
        <path d="M452.72,102.28c-1.46-1.42-2.18-3.18-2.18-5.29s.73-3.88,2.18-5.31c1.46-1.43,3.26-2.14,5.4-2.14s3.95.71,5.4,2.14c1.46,1.43,2.18,3.2,2.18,5.31s-.73,3.87-2.18,5.29c-1.46,1.42-3.26,2.13-5.4,2.13s-3.95-.71-5.4-2.13ZM454.88,93.61c-.88.91-1.32,2.03-1.32,3.37s.44,2.46,1.32,3.36c.88.9,1.96,1.34,3.25,1.34s2.39-.45,3.26-1.34,1.3-2.02,1.3-3.36-.43-2.49-1.3-3.39-1.96-1.34-3.26-1.34-2.37.45-3.25,1.36Z"/>
        <path d="M476.89,96.96c1.68.71,2.52,1.81,2.52,3.3,0,1.27-.56,2.28-1.69,3.02-1.13.75-2.55,1.12-4.27,1.12-1.25,0-2.44-.21-3.57-.62-1.13-.41-2.06-1-2.79-1.76l1.62-1.99c.63.6,1.39,1.05,2.25,1.36.87.31,1.69.46,2.48.46.91,0,1.63-.17,2.14-.52.51-.35.77-.79.77-1.33,0-1.21-1.17-1.82-3.5-1.82h-1.99v-2.44h1.99c2.33,0,3.5-.61,3.5-1.82,0-.52-.26-.96-.78-1.32s-1.23-.53-2.13-.53c-.78,0-1.61.15-2.49.46-.88.31-1.62.76-2.24,1.36l-1.62-1.99c.75-.77,1.68-1.35,2.81-1.76,1.13-.41,2.31-.62,3.54-.62,1.72,0,3.14.37,4.27,1.11,1.13.74,1.69,1.75,1.69,3.04,0,.71-.22,1.35-.66,1.93-.44.58-1.06,1.03-1.86,1.34Z"/>
        <path d="M492.62,96.82c.75.3,1.32.75,1.72,1.36.4.61.6,1.29.6,2.06,0,1.12-.44,2.05-1.32,2.79-.88.74-2.01,1.11-3.39,1.11h-7.95v-14.31h7.31c1.36,0,2.49.37,3.37,1.11.89.74,1.33,1.68,1.33,2.81,0,1.34-.56,2.37-1.68,3.08ZM489.43,92.28h-4.34v3.47h4.34c.58,0,1.05-.17,1.43-.5.37-.34.56-.76.56-1.26s-.19-.89-.56-1.22c-.37-.33-.85-.49-1.43-.49ZM485.09,101.66h5.01c.58,0,1.05-.16,1.41-.49.36-.33.55-.75.55-1.27,0-.49-.18-.89-.55-1.22-.36-.33-.83-.49-1.41-.49h-5.01v3.47Z"/>
        <path d="M500.8,99.9l7.92-10.08h2.88v14.31h-2.94v-10.08l-7.95,10.08h-2.86v-14.31h2.94v10.08Z"/>
        <path d="M521.74,104.12h-2.94v-11.7h-4.93v-2.6h12.77v2.6h-4.9v11.7Z"/>
        <path d="M542.1,89.82l-5.18,6.94,5.63,7.36h-3.56l-4.65-5.85h-2.49v5.85h-2.94v-14.31h2.94v5.85h2.49l4.54-5.85h3.22Z"/>
        <path d="M550.53,101.18l4.4-11.37h3l-8.18,19.91h-3l2.16-5.24-5.99-14.67h3.19l4.42,11.37Z"/>
      </g>
    </g>
  </g>
</svg>