<svg xmlns="http://www.w3.org/2000/svg" xmlns:xlink="http://www.w3.org/1999/xlink" width="1080" zoomAndPan="magnify" viewBox="0 0 810 809.999993" height="1080" preserveAspectRatio="xMidYMid meet" version="1.0"><defs><clipPath id="79a74aa32e"><path d="M 0 0 L 799.5 0 L 799.5 799.5 L 0 799.5 Z M 0 0 " clip-rule="nonzero"/></clipPath></defs><g clip-path="url(#79a74aa32e)"><path fill="#666666" d="M 799.535156 399.765625 C 799.535156 297.46875 760.496094 195.148438 682.441406 117.09375 C 604.386719 39.039062 502.066406 0 399.765625 0 C 297.46875 0 195.148438 39.039062 117.09375 117.09375 C 39.039062 195.148438 0 297.46875 0 399.765625 C 0 502.066406 39.039062 604.386719 117.09375 682.441406 C 195.148438 760.496094 297.46875 799.535156 399.765625 799.535156 C 502.066406 799.535156 604.386719 760.496094 682.441406 682.441406 C 760.496094 604.386719 799.535156 502.066406 799.535156 399.765625 Z M 399.765625 773.832031 C 304.042969 773.832031 208.300781 737.3125 135.261719 664.273438 C 62.222656 591.234375 25.703125 495.492188 25.703125 399.765625 C 25.703125 304.042969 62.222656 208.300781 135.261719 135.261719 C 208.300781 62.222656 304.042969 25.703125 399.765625 25.703125 C 495.492188 25.703125 591.234375 62.222656 664.273438 135.261719 C 737.3125 208.300781 773.832031 304.042969 773.832031 399.765625 C 773.832031 495.492188 737.3125 591.234375 664.273438 664.273438 C 591.234375 737.3125 495.492188 773.832031 399.765625 773.832031 Z M 737.472656 393.03125 C 737.511719 392.652344 737.691406 392.332031 737.691406 391.953125 C 737.691406 391.472656 737.472656 391.050781 737.410156 390.59375 C 737.332031 385.636719 737.230469 380.640625 736.953125 375.480469 L 736.351562 368.464844 C 736.351562 367.707031 736.273438 366.988281 736.132812 366.265625 L 735.414062 359.332031 C 733.253906 343.039062 730.554688 328.328125 726.378906 312.398438 C 726.238281 311.679688 726.058594 310.960938 725.796875 310.28125 C 722.960938 300.046875 719.800781 290.3125 716.125 280.335938 C 711.726562 269.964844 707.949219 260.230469 702.972656 250.015625 C 687.378906 221.609375 675.265625 201.34375 653.738281 176.597656 L 651.621094 174.320312 C 651.101562 173.617188 650.523438 172.960938 649.863281 172.378906 C 646.222656 168.402344 642.585938 164.605469 638.808594 160.707031 C 579.824219 106.179688 514.601562 70.078125 433.128906 63.382812 C 425.351562 62.625 417.457031 62.464844 409.5625 62.222656 C 408.882812 62.105469 408.261719 61.824219 407.5625 61.824219 C 407.125 61.824219 406.761719 62.023438 406.34375 62.0625 C 404.144531 62.023438 401.984375 61.742188 399.789062 61.742188 L 399.789062 61.683594 C 389.113281 61.683594 378.199219 62.222656 367.085938 63.304688 C 366.328125 63.304688 365.585938 63.382812 364.847656 63.523438 C 340.003906 66.121094 310.898438 71.957031 287.574219 80.8125 L 287.554688 80.773438 C 274.480469 85.429688 262.507812 90.605469 249.996094 96.605469 C 245.015625 99.140625 239.519531 101.820312 234.703125 104.660156 C 221.3125 112.15625 208.398438 120.570312 196.085938 129.882812 C 183.691406 139.257812 171.878906 149.53125 160.726562 160.667969 C 154.789062 166.601562 148.933594 172.941406 143.15625 179.675781 C 137.480469 186.273438 132.125 193.007812 127.105469 199.84375 L 126.984375 200.003906 C 124.808594 202.980469 122.410156 206.378906 119.789062 210.257812 C 117.070312 214.253906 114.773438 217.773438 112.875 220.8125 L 112.792969 220.953125 C 108.4375 227.925781 104.320312 235.101562 100.460938 242.460938 C 96.703125 249.613281 93.105469 257.128906 89.707031 264.925781 L 86.488281 272.542969 L 83.390625 280.535156 C 82.03125 284.175781 80.671875 287.953125 79.375 291.832031 C 78.035156 295.828125 76.796875 299.746094 75.65625 303.542969 C 75.257812 304.984375 73.898438 310.359375 73.417969 311.398438 C 72 316.675781 70.699219 321.972656 69.539062 327.25 C 68.421875 332.367188 67.378906 337.703125 66.460938 343.21875 L 66.421875 343.480469 C 65.523438 348.878906 64.761719 354.132812 64.144531 359.25 C 63.503906 364.546875 62.984375 369.945312 62.605469 375.421875 C 62.34375 380.957031 61.925781 386.355469 61.84375 391.910156 L 61.804688 391.910156 C 61.964844 396.847656 62.003906 401.625 62.0625 406.445312 C 62.023438 406.824219 61.84375 407.144531 61.84375 407.523438 C 61.84375 408.003906 62.0625 408.421875 62.125 408.882812 C 62.203125 413.839844 62.304688 418.835938 62.605469 423.992188 L 63.203125 431.007812 C 63.203125 431.769531 63.285156 432.488281 63.421875 433.207031 L 64.144531 440.144531 C 66.300781 456.375 68.980469 471.226562 73.199219 487.097656 C 73.335938 487.816406 73.515625 488.515625 73.777344 489.195312 C 76.617188 499.429688 79.773438 509.164062 83.453125 519.136719 C 87.828125 529.511719 91.625 539.246094 96.605469 549.460938 C 112.195312 577.863281 124.308594 598.132812 145.835938 622.878906 L 147.933594 625.15625 C 148.453125 625.855469 149.035156 626.515625 149.691406 627.09375 L 154.691406 632.492188 L 160.746094 638.75 C 196.625 671.910156 226.1875 693.957031 271.5625 712.503906 L 271.542969 712.546875 C 302.0625 724.976562 333.207031 732.632812 365.945312 736.011719 C 374.640625 736.871094 383.15625 737.3125 391.574219 737.53125 C 391.710938 737.53125 391.851562 737.609375 391.992188 737.609375 C 392.113281 737.609375 392.210938 737.550781 392.3125 737.550781 C 394.789062 737.609375 397.308594 737.75 399.765625 737.75 C 410.460938 737.75 421.414062 737.210938 432.570312 736.132812 C 433.289062 736.132812 433.988281 736.050781 434.6875 735.933594 C 475.84375 731.65625 512.300781 720.722656 549.558594 702.851562 C 554.519531 700.332031 560.054688 697.632812 564.851562 694.796875 C 578.242188 687.300781 591.175781 678.886719 603.488281 669.570312 C 615.882812 660.195312 627.695312 649.941406 638.847656 638.789062 C 644.785156 632.851562 650.640625 626.515625 656.417969 619.78125 C 662.09375 613.183594 667.453125 606.449219 672.46875 599.613281 L 672.589844 599.453125 C 674.769531 596.472656 677.167969 593.074219 679.785156 589.199219 C 682.503906 585.199219 684.800781 581.683594 686.699219 578.644531 L 686.78125 578.503906 C 691.136719 571.527344 695.253906 564.351562 699.113281 556.996094 C 702.871094 549.839844 706.46875 542.324219 709.867188 534.53125 L 713.085938 526.914062 L 716.183594 518.917969 C 717.542969 515.28125 718.902344 511.503906 720.203125 507.625 C 721.539062 503.628906 722.78125 499.710938 723.917969 495.910156 C 724.320312 494.472656 725.679688 489.097656 726.15625 488.054688 C 727.578125 482.78125 728.875 477.484375 730.035156 472.207031 C 731.15625 467.089844 732.195312 461.75 733.113281 456.234375 L 733.152344 455.976562 C 734.054688 450.578125 734.8125 445.320312 735.433594 440.203125 C 736.070312 434.90625 736.589844 429.511719 736.972656 424.035156 C 737.230469 418.496094 737.652344 413.101562 737.730469 407.542969 L 737.769531 407.542969 C 737.589844 402.625 737.53125 397.847656 737.472656 393.03125 Z M 711.867188 413.78125 C 711.804688 414.300781 711.765625 414.820312 711.785156 415.359375 L 711.304688 422.914062 C 710.964844 427.613281 710.488281 432.386719 709.90625 437.226562 C 709.328125 442.023438 708.667969 446.699219 707.910156 451.199219 L 707.628906 452.898438 C 706.847656 457.394531 705.949219 462.050781 704.890625 466.808594 C 703.851562 471.507812 702.730469 476.203125 701.492188 480.800781 C 700.8125 483.4375 700.09375 486.117188 699.273438 488.714844 C 698.175781 492.433594 697.035156 496.050781 695.855469 499.53125 C 694.777344 502.726562 693.617188 506.003906 692.378906 509.34375 C 692.097656 509.921875 691.878906 510.542969 691.699219 511.164062 L 689.257812 517.300781 L 686.699219 523.457031 C 686.359375 524.09375 686.082031 524.753906 685.859375 525.433594 C 683.042969 531.851562 679.882812 538.40625 676.386719 545.042969 C 672.96875 551.539062 669.269531 557.996094 665.292969 564.410156 L 664.453125 565.769531 C 662.253906 569.269531 660.296875 572.308594 658.578125 574.847656 C 656.796875 577.464844 654.699219 580.441406 652.261719 583.761719 L 651.242188 585.160156 C 646.683594 591.316406 641.925781 597.3125 636.929688 603.109375 C 631.992188 608.867188 626.554688 614.703125 620.660156 620.597656 C 610.226562 631.03125 599.292969 640.527344 588 649.082031 C 576.464844 657.816406 564.53125 665.613281 552.359375 672.429688 C 547.582031 674.886719 543.042969 677.425781 538.207031 679.863281 C 503.046875 696.695312 469.925781 706.488281 431.070312 710.546875 C 422.554688 711.40625 413.699219 711.6875 404.785156 711.828125 L 404.785156 636.191406 C 404.785156 629.113281 399.046875 623.398438 391.992188 623.398438 C 384.9375 623.398438 379.199219 629.132812 379.199219 636.191406 L 379.199219 711.066406 C 375.660156 710.847656 371.945312 710.886719 368.464844 710.546875 C 337.644531 707.128906 310.058594 700.53125 281.175781 688.78125 L 281.15625 688.820312 C 222.3125 663.8125 175.238281 625.9375 139.398438 572.40625 C 139.097656 571.847656 138.738281 571.308594 138.339844 570.789062 C 130.125 558.175781 123.089844 545.523438 116.671875 531.910156 C 116.453125 531.351562 116.191406 530.8125 115.894531 530.292969 C 107.675781 512.222656 101.300781 494.050781 96.523438 474.824219 C 96.425781 474.246094 96.285156 473.683594 96.105469 473.125 C 93.90625 463.390625 92.148438 454.355469 90.628906 444.480469 L 89.667969 437.125 L 88.828125 429.648438 L 88.230469 422.15625 C 88.1875 421.515625 88.1875 420.914062 88.148438 420.277344 L 163.324219 420.277344 C 170.382812 420.277344 176.117188 414.539062 176.117188 407.484375 C 176.117188 400.40625 170.382812 394.691406 163.324219 394.691406 L 87.46875 394.691406 C 87.488281 393.75 87.46875 392.832031 87.527344 391.890625 L 87.488281 391.890625 L 87.710938 385.695312 C 87.769531 385.175781 87.808594 384.636719 87.789062 384.097656 L 88.269531 376.542969 C 88.609375 371.84375 89.089844 367.066406 89.667969 362.230469 C 90.246094 357.433594 90.90625 352.753906 91.667969 348.238281 L 91.945312 346.539062 C 92.726562 342.042969 93.625 337.382812 94.683594 332.605469 C 95.722656 327.910156 96.84375 323.230469 98.082031 318.613281 C 98.761719 315.976562 99.480469 313.296875 100.300781 310.699219 C 101.402344 306.980469 102.539062 303.363281 103.71875 299.886719 C 104.800781 296.6875 105.957031 293.410156 107.199219 290.070312 C 107.476562 289.492188 107.699219 288.871094 107.878906 288.230469 L 110.316406 282.097656 L 112.875 275.941406 C 113.214844 275.300781 113.492188 274.621094 113.714844 273.941406 C 116.53125 267.523438 119.691406 260.96875 123.1875 254.332031 C 126.585938 247.855469 130.304688 241.378906 134.28125 234.964844 L 135.121094 233.605469 C 137.320312 230.105469 139.277344 227.066406 141 224.53125 C 142.777344 221.910156 144.875 218.933594 147.3125 215.613281 L 148.332031 214.214844 C 152.890625 208.058594 157.648438 202.0625 162.644531 196.265625 C 167.582031 190.507812 173.019531 184.671875 178.917969 178.777344 C 189.351562 168.34375 200.285156 158.847656 211.578125 150.292969 C 223.109375 141.558594 235.042969 133.761719 247.214844 126.945312 C 251.992188 124.488281 256.53125 121.949219 261.367188 119.511719 C 296.269531 102.800781 329.609375 92.886719 368.105469 88.867188 L 368.445312 88.828125 C 376.980469 87.96875 385.855469 87.6875 394.789062 87.550781 L 394.789062 163.164062 C 394.789062 170.242188 400.527344 175.957031 407.582031 175.957031 C 414.640625 175.957031 420.375 170.222656 420.375 163.164062 L 420.375 88.269531 C 423.792969 88.488281 427.191406 88.429688 430.609375 88.769531 C 526.972656 101.199219 605.289062 144.976562 660.175781 226.949219 C 660.476562 227.507812 660.835938 228.046875 661.234375 228.566406 C 669.449219 241.179688 676.488281 253.832031 682.902344 267.445312 C 683.121094 268.003906 683.382812 268.542969 683.683594 269.0625 C 692.496094 288.453125 698.09375 305.84375 703.492188 326.230469 C 705.691406 335.945312 707.449219 345.019531 708.96875 354.875 L 709.925781 362.230469 L 710.765625 369.703125 L 711.367188 377.199219 C 711.40625 377.839844 711.40625 378.441406 711.445312 379.058594 L 636.269531 379.058594 C 629.195312 379.058594 623.476562 384.796875 623.476562 391.851562 C 623.476562 398.929688 629.214844 404.644531 636.269531 404.644531 L 712.125 404.644531 C 712.105469 405.585938 712.125 406.503906 712.066406 407.441406 L 712.105469 407.441406 Z M 399.765625 799.535156 Z M 560.675781 222.152344 L 326.03125 318.65625 C 324.390625 319.273438 322.851562 320.214844 321.53125 321.53125 C 320.214844 322.851562 319.292969 324.390625 318.65625 326.03125 L 222.152344 560.675781 C 220.910156 563.691406 220.8125 567.171875 222.152344 570.410156 C 224.828125 576.945312 232.324219 580.0625 238.859375 577.382812 L 473.523438 480.859375 C 475.144531 480.242188 476.683594 479.300781 478.003906 478.003906 C 479.320312 476.703125 480.242188 475.164062 480.859375 473.523438 L 577.382812 238.859375 C 578.625 235.84375 578.722656 232.363281 577.382812 229.125 C 574.6875 222.589844 567.210938 219.472656 560.675781 222.152344 Z M 335.144531 353.316406 L 354.535156 372.703125 C 349.558594 381.039062 346.878906 390.371094 346.878906 399.765625 C 346.878906 413.300781 352.054688 426.832031 362.371094 437.144531 C 372.683594 447.460938 386.234375 452.636719 399.746094 452.636719 C 409.140625 452.636719 418.476562 449.976562 426.8125 444.980469 L 446.21875 464.390625 L 257.511719 542.003906 Z M 399.765625 372.582031 C 406.722656 372.582031 413.679688 375.242188 418.976562 380.539062 C 424.273438 385.835938 426.933594 392.792969 426.933594 399.746094 C 426.933594 406.703125 424.273438 413.660156 418.976562 418.957031 C 413.679688 424.253906 406.703125 426.910156 399.765625 426.910156 C 392.8125 426.910156 385.855469 424.253906 380.558594 418.957031 C 375.261719 413.660156 372.601562 406.683594 372.601562 399.746094 C 372.601562 392.792969 375.261719 385.835938 380.558594 380.539062 C 385.855469 375.242188 392.8125 372.582031 399.765625 372.582031 Z M 464.390625 446.21875 L 444.980469 426.8125 C 449.957031 418.476562 452.636719 409.140625 452.636719 399.746094 C 452.636719 386.214844 447.460938 372.683594 437.144531 362.371094 C 426.832031 352.054688 413.28125 346.878906 399.765625 346.878906 C 390.371094 346.878906 381.039062 349.535156 372.703125 354.535156 L 353.316406 335.144531 L 542.023438 257.53125 Z M 464.390625 446.21875 " fill-opacity="1" fill-rule="nonzero"/></g></svg>