<?xml version="1.0" encoding="UTF-8"?>
<svg id="_Шар_1" data-name="Шар 1" xmlns="http://www.w3.org/2000/svg" viewBox="0 0 1080 1080">
  <defs>
    <style>
      .cls-1 {
        fill: #e31019;
      }
    </style>
  </defs>
  <path class="cls-1" d="M282.35,352.25c-15.42-43.5,26.56-85.47,70.06-70.06l647.99,227.88c29.53,10.38,60.52-12.06,59.45-43.35-2.06-62.73-6.79-125.46-14.35-187.81-7.71-63.72-36.55-120.65-79.52-163.62-42.89-42.89-99.82-71.81-163.54-79.52-86.92-10.46-174.38-15.64-261.76-15.64s-174.84,5.19-261.76,15.64c-63.72,7.71-120.65,36.55-163.62,79.52-42.89,43.04-71.81,99.97-79.52,163.62-10.46,86.92-15.64,174.38-15.64,261.76s5.19,174.84,15.64,261.76c15.34,127.37,115.77,227.8,243.14,243.06,62.43,7.56,125.08,12.29,187.81,14.35,31.29,1.07,53.73-29.92,43.35-59.45l-227.88-647.99.15-.15Z"/>
  <path class="cls-1" d="M764.89,727.03c-18.16,5.34-32.51,19.54-37.7,37.7l-67.16,233.07c-8.55,29.69,14.96,59.14,45.87,56.85,32.2-2.37,64.41-5.42,96.54-9.31,63.72-7.71,120.65-36.55,163.54-79.52,42.89-42.89,71.81-99.82,79.52-163.54,3.89-32.13,6.94-64.33,9.31-96.54,2.29-30.83-27.17-54.41-56.85-45.87l-233.07,67.16h0Z"/>
</svg>