<?xml version="1.0" encoding="UTF-8"?>
<svg id="_Шар_1" data-name="Шар 1" xmlns="http://www.w3.org/2000/svg" viewBox="0 0 1080 203.69">
  <defs>
    <style>
      .cls-1 {
        fill: #e50914;
      }
    </style>
  </defs>
  <g>
    <path d="M299.08,57.27h14.17l5.54,28.65h1.08c.82-9.65,3.98-17.22,9.47-22.72,5.49-5.49,12.96-8.24,22.41-8.24,11.4,0,20.23,3.52,26.49,10.55,6.26,7.04,9.4,16.97,9.4,29.8s-3.03,22.77-9.09,29.8c-6.06,7.04-14.58,10.55-25.57,10.55-9.34,0-16.94-2.77-22.79-8.32-5.85-5.54-9.29-13.25-10.32-23.1h-1.08l.92,25.1v32.81h-20.64V57.27ZM326.95,112.63c4.31,4.06,10.27,6.08,17.86,6.08,6.98,0,12.37-2.05,16.17-6.16,3.8-4.1,5.7-9.86,5.7-17.25s-1.9-13.27-5.7-17.33c-3.8-4.06-9.19-6.08-16.17-6.08-7.7,0-13.68,2.08-17.94,6.24-4.26,4.16-6.39,10.04-6.39,17.64,0,7.19,2.16,12.81,6.47,16.86Z"/>
    <path d="M420.6,18.76v114.59h-20.64V18.76h20.64Z"/>
    <path d="M493.3,106.7h-1.08c-.31,4.42-1.54,8.83-3.7,13.25-2.16,4.42-5.52,8.11-10.09,11.09-4.57,2.98-10.34,4.47-17.32,4.47-8.63,0-15.28-2-19.95-6.01-4.68-4-7.01-9.5-7.01-16.48,0-7.91,2.87-13.73,8.63-17.48,5.75-3.75,13.55-5.62,23.41-5.62,8.62,0,17.3.67,26.03,2v-2.77c-.1-5.54-1.85-9.73-5.24-12.55-3.39-2.82-8.22-4.23-14.48-4.23-9.34,0-18.58,2-27.72,6.01l-1.85-17.1c4.41-2.05,9.34-3.62,14.79-4.7,5.44-1.08,10.99-1.62,16.64-1.62,13.04,0,22.72,2.85,29.03,8.55,6.31,5.7,9.47,13.63,9.47,23.79v46.05h-14.33l-5.24-26.65ZM459.03,116.79c2.62,1.9,6.19,2.85,10.7,2.85,5.85,0,10.96-1.69,15.32-5.08,4.36-3.39,6.8-8.57,7.32-15.56v-1.23c-7.19-.62-13.14-.92-17.87-.92-6.37,0-11.19,1-14.48,3-3.29,2-4.93,4.96-4.93,8.86,0,3.49,1.31,6.19,3.93,8.09Z"/>
    <path d="M540.04,163.77c-3.54-.46-6.24-1.06-8.09-1.77l.92-16.17c4.21.93,9.4,1.39,15.56,1.39,7.39,0,12.27-2.98,14.63-8.93l2.31-5.39h-19.25l-26.49-75.62h21.56l24.18,74.08h.62l24.33-74.08h21.41l-26.49,75.62-3.39,8.32c-3.08,8.42-7.06,14.4-11.94,17.94-4.88,3.54-11.47,5.31-19.79,5.31-3.18,0-6.55-.23-10.09-.69Z"/>
    <path d="M682.43,133.35h-39.28l-26.49-76.08h21.56l24.18,74.54h.62l24.33-74.54h21.41l-26.34,76.08Z"/>
    <path d="M741.88,133.35h-20.79v-59.3h-7.24v-16.79h28.03v76.08ZM719.85,42.86c-2.16-1.69-3.24-4.13-3.24-7.32s1.08-5.62,3.24-7.32c2.16-1.7,5.23-2.54,9.24-2.54s6.93.85,9.09,2.54c2.16,1.69,3.23,4.13,3.23,7.32s-1.08,5.62-3.23,7.32c-2.16,1.7-5.19,2.54-9.09,2.54s-7.08-.85-9.24-2.54Z"/>
    <path d="M765.29,60.58c6.16-3.75,14.89-5.62,26.18-5.62,5.85,0,11.52.52,17.02,1.54,5.49,1.03,10.24,2.41,14.25,4.16l-1.08,16.79c-4.11-1.85-8.76-3.28-13.94-4.31-5.18-1.03-10.24-1.54-15.17-1.54-9.45,0-14.17,2.62-14.17,7.86,0,2.57,1.21,4.57,3.62,6,2.41,1.44,6.6,2.67,12.55,3.7,11.09,1.75,19.23,4.42,24.41,8.01,5.19,3.59,7.78,8.62,7.78,15.09,0,7.39-3.36,13.14-10.09,17.25-6.73,4.11-16.15,6.16-28.26,6.16-13.35,0-24.49-2-33.42-6.01l1.08-17.56c4.93,2.26,10.14,4.01,15.63,5.24,5.49,1.23,10.86,1.85,16.1,1.85,10.88,0,16.33-2.98,16.33-8.93,0-2.98-1.36-5.29-4.08-6.93-2.72-1.64-7.06-2.87-13.02-3.7-11.09-1.74-19.02-4.34-23.79-7.78-4.78-3.44-7.16-8.44-7.16-15.02,0-7.09,3.08-12.5,9.24-16.25Z"/>
    <path d="M862.47,133.35h-20.79v-59.3h-7.24v-16.79h28.03v76.08ZM840.45,42.86c-2.16-1.69-3.24-4.13-3.24-7.32s1.08-5.62,3.24-7.32c2.16-1.7,5.24-2.54,9.24-2.54s6.93.85,9.09,2.54c2.16,1.69,3.24,4.13,3.24,7.32s-1.08,5.62-3.24,7.32c-2.16,1.7-5.19,2.54-9.09,2.54s-7.09-.85-9.24-2.54Z"/>
    <path d="M888.5,125.03c-7.81-7.08-11.71-16.99-11.71-29.72s3.9-22.64,11.71-29.73c7.8-7.09,18.74-10.63,32.81-10.63s25,3.54,32.81,10.63c7.8,7.09,11.7,17.05,11.7,29.88s-3.9,22.62-11.7,29.65c-7.81,7.04-18.74,10.55-32.81,10.55s-25-3.54-32.81-10.63ZM903.82,113.02c4.05,4.11,9.88,6.16,17.48,6.16s13.27-2.05,17.33-6.16c4.05-4.11,6.08-10.01,6.08-17.71s-2.03-13.63-6.08-17.79c-4.06-4.16-9.83-6.24-17.33-6.24s-13.43,2.05-17.48,6.16c-4.06,4.11-6.08,10.06-6.08,17.87s2.03,13.61,6.08,17.71Z"/>
    <path d="M991.84,57.27l5.7,29.88h.77c.72-9.34,3.77-17.04,9.16-23.1,5.39-6.06,13.02-9.09,22.87-9.09s17.25,2.98,22.8,8.93c5.54,5.95,8.32,14.27,8.32,24.95v44.51h-20.64v-42.51c0-6.06-1.67-10.75-5-14.09-3.34-3.34-8.09-5.01-14.25-5.01-7.29,0-12.99,2.65-17.1,7.93-4.11,5.29-6.16,11.89-6.16,19.79v33.88h-20.79V57.27h14.32Z"/>
  </g>
  <g>
    <path class="cls-1" d="M64.05,69.26c-2.67-7.56,4.61-14.84,12.16-12.16l112.51,39.56c5.13,1.8,10.5-2.1,10.32-7.53-.36-10.89-1.18-21.78-2.49-32.61-1.33-11.06-6.35-20.95-13.8-28.41-7.45-7.45-17.34-12.47-28.4-13.8-15.09-1.81-30.27-2.71-45.44-2.71s-30.35.9-45.44,2.71c-11.06,1.33-20.95,6.35-28.41,13.8-7.45,7.47-12.47,17.35-13.8,28.41-1.81,15.09-2.71,30.27-2.71,45.44s.9,30.35,2.71,45.44c2.67,22.11,20.09,39.55,42.22,42.2,10.84,1.31,21.72,2.14,32.61,2.5,5.43.18,9.33-5.2,7.53-10.32l-39.56-112.51Z"/>
    <path class="cls-1" d="M147.84,134.34c-3.16.93-5.64,3.39-6.55,6.55l-11.66,40.46c-1.49,5.16,2.6,10.27,7.96,9.88,5.6-.41,11.18-.94,16.76-1.62,11.06-1.33,20.95-6.35,28.4-13.8,7.45-7.45,12.47-17.34,13.8-28.4.68-5.58,1.21-11.16,1.62-16.76.39-5.36-4.71-9.45-9.88-7.96l-40.46,11.66Z"/>
  </g>
</svg>