<svg width="85" height="84" viewBox="0 0 85 84" fill="none" xmlns="http://www.w3.org/2000/svg">
<path d="M21.1938 26.8084C19.9447 23.2889 23.3494 19.9102 26.8548 21.1571L79.2952 39.5589C81.6926 40.4036 84.1907 38.5936 84.1101 36.0596C83.949 30.9915 83.5662 25.9235 82.9417 20.8956C82.3171 15.7472 79.9802 11.1417 76.5151 7.68252C73.0499 4.22338 68.4364 1.89047 63.279 1.26702C56.248 0.422347 49.1768 0 42.1055 0C35.0342 0 27.9629 0.422347 20.9319 1.26702C15.7745 1.89047 11.161 4.22338 7.69584 7.68252C4.2307 11.1618 1.89375 15.7673 1.26922 20.8956C0.423079 27.9145 0 34.9736 0 42.0326C0 49.0917 0.423079 56.1507 1.26922 63.1695C2.51828 73.4665 10.6372 81.5714 20.952 82.7982C26.0087 83.4015 31.0654 83.7836 36.1422 83.9646C38.6806 84.045 40.4938 81.5513 39.6476 79.158L21.2139 26.8084H21.1938Z" fill="white"/>
<path d="M60.2371 57.0757C58.7664 57.498 57.5979 58.6444 57.195 60.1125L51.7555 78.9366C51.0705 81.3299 52.9643 83.7231 55.4624 83.522C58.0612 83.3209 60.6802 83.0796 63.2791 82.7779C68.4365 82.1545 73.05 79.8215 76.5151 76.3624C79.9803 72.9033 82.3172 68.2978 82.9417 63.1493C83.2641 60.555 83.5058 57.9606 83.6871 55.3462C83.8685 52.8524 81.4912 50.9418 79.0938 51.6457L60.2371 57.0757Z" fill="white"/>
</svg>
