<svg xmlns="http://www.w3.org/2000/svg" xmlns:xlink="http://www.w3.org/1999/xlink" width="1080" zoomAndPan="magnify" viewBox="0 0 810 809.999993" height="1080" preserveAspectRatio="xMidYMid meet" version="1.0"><defs><clipPath id="15a3e7a5bf"><path d="M 53.558594 215 L 97.878906 215 L 97.878906 245.984375 L 53.558594 245.984375 Z M 53.558594 215 " clip-rule="nonzero"/></clipPath><clipPath id="6544228932"><path d="M 57.601562 236.699219 C 68.101562 234.75 69.375 233.925781 70.5 232.875 C 71.625 231.75 71.925781 230.398438 73.199219 228.824219 C 75.449219 226.125 80.925781 220.875 83.699219 218.699219 C 85.351562 217.425781 86.550781 216.75 87.976562 216.148438 C 89.324219 215.550781 90.75 214.949219 92.101562 215.101562 C 93.601562 215.175781 95.699219 215.925781 96.601562 216.898438 C 97.351562 217.648438 97.726562 218.925781 97.800781 219.976562 C 97.875 221.023438 97.574219 222.300781 96.898438 223.125 C 96.074219 224.175781 94.050781 225.375 92.625 225.375 C 91.199219 225.375 89.175781 224.101562 88.351562 223.050781 C 87.675781 222.226562 87.300781 221.023438 87.449219 219.898438 C 87.675781 218.550781 88.949219 216.523438 90 215.773438 C 90.898438 215.101562 92.175781 214.949219 93.226562 215.101562 C 94.273438 215.175781 95.476562 215.773438 96.226562 216.449219 C 96.976562 217.199219 97.574219 218.398438 97.726562 219.449219 C 97.949219 220.425781 97.726562 221.773438 97.199219 222.675781 C 96.675781 223.574219 95.773438 224.324219 94.800781 224.925781 C 93.675781 225.601562 92.175781 225.375 90.75 226.199219 C 88.5 227.476562 85.648438 230.476562 83.324219 232.800781 C 80.925781 235.199219 78.75 238.5 76.726562 240.300781 C 75.375 241.574219 74.324219 242.324219 72.898438 243.074219 C 71.398438 243.75 69.976562 244.199219 67.949219 244.648438 C 65.023438 245.25 58.875 246.375 56.550781 245.625 C 55.351562 245.25 54.601562 244.351562 54.074219 243.449219 C 53.625 242.550781 53.550781 241.125 53.699219 240.226562 C 53.851562 239.476562 54.148438 238.800781 54.75 238.273438 C 55.425781 237.601562 57.601562 236.699219 57.601562 236.699219 " clip-rule="nonzero"/></clipPath><clipPath id="de66a081ae"><path d="M 0.558594 0 L 44.878906 0 L 44.878906 30.984375 L 0.558594 30.984375 Z M 0.558594 0 " clip-rule="nonzero"/></clipPath><clipPath id="262fedfc1d"><path d="M 4.601562 21.699219 C 15.101562 19.75 16.375 18.925781 17.5 17.875 C 18.625 16.75 18.925781 15.398438 20.199219 13.824219 C 22.449219 11.125 27.925781 5.875 30.699219 3.699219 C 32.351562 2.425781 33.550781 1.75 34.976562 1.148438 C 36.324219 0.550781 37.75 -0.0507812 39.101562 0.101562 C 40.601562 0.175781 42.699219 0.925781 43.601562 1.898438 C 44.351562 2.648438 44.726562 3.925781 44.800781 4.976562 C 44.875 6.023438 44.574219 7.300781 43.898438 8.125 C 43.074219 9.175781 41.050781 10.375 39.625 10.375 C 38.199219 10.375 36.175781 9.101562 35.351562 8.050781 C 34.675781 7.226562 34.300781 6.023438 34.449219 4.898438 C 34.675781 3.550781 35.949219 1.523438 37 0.773438 C 37.898438 0.101562 39.175781 -0.0507812 40.226562 0.101562 C 41.273438 0.175781 42.476562 0.773438 43.226562 1.449219 C 43.976562 2.199219 44.574219 3.398438 44.726562 4.449219 C 44.949219 5.425781 44.726562 6.773438 44.199219 7.675781 C 43.675781 8.574219 42.773438 9.324219 41.800781 9.925781 C 40.675781 10.601562 39.175781 10.375 37.75 11.199219 C 35.5 12.476562 32.648438 15.476562 30.324219 17.800781 C 27.925781 20.199219 25.75 23.5 23.726562 25.300781 C 22.375 26.574219 21.324219 27.324219 19.898438 28.074219 C 18.398438 28.75 16.976562 29.199219 14.949219 29.648438 C 12.023438 30.25 5.875 31.375 3.550781 30.625 C 2.351562 30.25 1.601562 29.351562 1.074219 28.449219 C 0.625 27.550781 0.550781 26.125 0.699219 25.226562 C 0.851562 24.476562 1.148438 23.800781 1.75 23.273438 C 2.425781 22.601562 4.601562 21.699219 4.601562 21.699219 " clip-rule="nonzero"/></clipPath><clipPath id="08be671a51"><rect x="0" width="45" y="0" height="31"/></clipPath></defs><path fill="#666666" d="M 261.984375 171.492188 C 263.882812 171.492188 272.109375 167.695312 274.007812 166.429688 C 280.335938 163.265625 282.234375 155.039062 279.070312 149.34375 C 275.90625 143.015625 267.679688 141.117188 261.984375 144.28125 C 260.085938 145.546875 258.1875 146.8125 256.289062 147.445312 C 249.960938 151.242188 248.0625 158.835938 251.859375 164.53125 C 253.125 168.960938 257.554688 171.492188 261.984375 171.492188 Z M 261.984375 171.492188 " fill-opacity="1" fill-rule="nonzero"/><path fill="#666666" d="M 213.890625 206.296875 C 217.054688 206.296875 220.21875 205.03125 222.117188 203.132812 C 223.382812 201.867188 225.28125 200.601562 226.546875 198.703125 C 231.609375 194.273438 232.242188 186.046875 227.8125 180.984375 C 223.382812 175.921875 215.15625 175.289062 210.09375 179.71875 C 208.195312 180.984375 206.296875 182.882812 205.03125 184.148438 C 199.96875 188.578125 199.335938 196.804688 204.398438 201.867188 C 206.929688 205.03125 210.726562 206.296875 213.890625 206.296875 Z M 213.890625 206.296875 " fill-opacity="1" fill-rule="nonzero"/><path fill="#666666" d="M 123.398438 358.804688 C 124.03125 358.804688 125.296875 358.804688 125.929688 358.804688 C 131.625 358.804688 137.320312 355.007812 138.585938 348.679688 C 139.21875 346.78125 139.21875 344.25 139.851562 342.351562 C 141.75 335.390625 137.320312 328.429688 130.359375 327.164062 C 123.398438 325.898438 116.4375 329.695312 115.171875 336.65625 C 114.539062 339.1875 113.90625 341.085938 113.90625 343.617188 C 112.640625 350.578125 117.070312 357.539062 123.398438 358.804688 Z M 123.398438 358.804688 " fill-opacity="1" fill-rule="nonzero"/><path fill="#666666" d="M 132.890625 405 C 132.890625 403.101562 132.890625 401.203125 132.890625 399.304688 C 132.890625 392.34375 127.195312 386.648438 120.234375 386.648438 C 113.273438 386.648438 107.578125 392.34375 107.578125 399.304688 C 107.578125 401.203125 107.578125 403.734375 107.578125 405.632812 L 107.578125 406.265625 C 107.578125 413.226562 113.273438 418.921875 120.234375 418.921875 C 127.195312 418.921875 132.890625 411.960938 132.890625 405 Z M 132.890625 405 " fill-opacity="1" fill-rule="nonzero"/><path fill="#666666" d="M 153.773438 510.046875 C 151.242188 503.71875 143.648438 500.554688 137.320312 503.085938 C 130.992188 505.617188 127.828125 513.210938 130.359375 519.539062 C 130.992188 521.4375 132.257812 523.96875 132.890625 525.867188 C 134.789062 530.296875 139.851562 533.460938 144.28125 533.460938 C 146.179688 533.460938 148.078125 532.828125 149.34375 532.195312 C 155.671875 529.03125 158.835938 522.070312 155.671875 515.742188 C 155.671875 514.476562 155.039062 512.578125 153.773438 510.046875 Z M 153.773438 510.046875 " fill-opacity="1" fill-rule="nonzero"/><path fill="#666666" d="M 138.585938 461.953125 C 137.953125 460.054688 137.953125 457.523438 137.320312 455.625 C 136.054688 448.664062 129.09375 444.234375 122.765625 445.5 C 115.804688 446.765625 111.375 453.726562 112.640625 460.054688 C 113.273438 462.585938 113.273438 464.484375 113.90625 467.015625 C 115.171875 472.710938 120.234375 477.140625 126.5625 477.140625 C 127.195312 477.140625 128.460938 477.140625 129.09375 477.140625 C 136.054688 475.875 140.484375 468.914062 138.585938 461.953125 Z M 138.585938 461.953125 " fill-opacity="1" fill-rule="nonzero"/><path fill="#666666" d="M 316.40625 146.8125 C 317.671875 146.8125 324.632812 144.914062 326.53125 144.28125 C 333.492188 142.382812 337.289062 135.421875 334.757812 128.460938 C 332.859375 121.5 325.898438 117.703125 318.9375 120.234375 C 317.039062 120.867188 314.507812 121.5 312.609375 122.132812 C 306.28125 124.03125 302.484375 131.625 304.382812 137.953125 C 305.648438 143.648438 310.710938 146.8125 316.40625 146.8125 Z M 316.40625 146.8125 " fill-opacity="1" fill-rule="nonzero"/><path fill="#666666" d="M 139.21875 301.21875 C 141.117188 301.851562 142.382812 302.484375 144.28125 302.484375 C 149.34375 302.484375 153.773438 299.953125 155.671875 294.890625 C 156.304688 292.992188 157.570312 291.09375 158.203125 289.195312 C 161.367188 282.867188 158.203125 275.273438 151.875 272.109375 C 145.546875 268.945312 137.953125 272.109375 134.789062 278.4375 C 133.523438 280.335938 132.890625 282.867188 131.625 284.765625 C 130.359375 291.09375 132.890625 298.6875 139.21875 301.21875 Z M 139.21875 301.21875 " fill-opacity="1" fill-rule="nonzero"/><path fill="#666666" d="M 655.59375 299.320312 C 657.492188 304.382812 662.554688 306.914062 666.984375 306.914062 C 668.882812 306.914062 670.148438 306.28125 672.046875 305.648438 C 678.375 303.117188 681.539062 295.523438 679.007812 289.195312 C 678.375 287.296875 677.109375 284.765625 676.476562 282.867188 C 673.3125 276.539062 666.351562 273.375 660.023438 276.539062 C 653.695312 279.703125 650.53125 286.664062 653.695312 292.992188 C 654.328125 295.523438 654.960938 297.421875 655.59375 299.320312 Z M 655.59375 299.320312 " fill-opacity="1" fill-rule="nonzero"/><path fill="#666666" d="M 628.382812 249.328125 C 630.914062 253.125 634.710938 255.023438 638.507812 255.023438 C 641.039062 255.023438 643.570312 254.390625 645.46875 252.492188 C 651.164062 248.695312 652.429688 240.46875 648.632812 234.773438 C 647.367188 232.875 646.101562 230.976562 644.835938 229.078125 C 640.40625 223.382812 632.8125 222.117188 627.117188 226.546875 C 621.421875 230.976562 620.15625 238.570312 624.585938 244.265625 C 625.851562 246.164062 627.117188 247.429688 628.382812 249.328125 Z M 628.382812 249.328125 " fill-opacity="1" fill-rule="nonzero"/><path fill="#666666" d="M 670.78125 347.414062 C 671.414062 349.3125 671.414062 351.84375 672.046875 353.742188 C 673.3125 360.070312 678.375 363.867188 684.703125 363.867188 C 685.335938 363.867188 686.601562 363.867188 687.234375 363.867188 C 694.195312 362.601562 698.625 355.640625 697.359375 349.3125 C 696.726562 346.78125 696.726562 344.882812 696.09375 342.351562 C 694.828125 335.390625 687.867188 330.960938 680.90625 332.859375 C 673.945312 333.492188 669.515625 340.453125 670.78125 347.414062 Z M 670.78125 347.414062 " fill-opacity="1" fill-rule="nonzero"/><path fill="#666666" d="M 540.421875 168.960938 C 542.320312 170.226562 544.21875 170.859375 546.117188 172.125 C 548.015625 173.390625 550.546875 174.023438 552.445312 174.023438 C 556.875 174.023438 560.671875 172.125 563.203125 167.695312 C 567 162 565.101562 153.773438 558.773438 150.609375 C 556.875 149.34375 554.976562 148.078125 553.078125 146.8125 C 546.75 143.648438 539.15625 145.546875 535.992188 151.242188 C 532.195312 157.570312 534.09375 165.164062 540.421875 168.960938 Z M 540.421875 168.960938 " fill-opacity="1" fill-rule="nonzero"/><path fill="#666666" d="M 374.625 134.789062 C 375.257812 134.789062 380.320312 134.15625 382.21875 134.15625 C 389.179688 133.523438 394.242188 127.195312 393.609375 120.234375 C 392.976562 113.273438 386.648438 108.210938 379.6875 108.84375 C 377.15625 108.84375 375.257812 109.476562 372.726562 109.476562 C 365.765625 110.109375 360.703125 116.4375 361.335938 123.398438 C 362.601562 129.726562 368.296875 134.789062 374.625 134.789062 Z M 374.625 134.789062 " fill-opacity="1" fill-rule="nonzero"/><path fill="#666666" d="M 432.84375 134.15625 C 434.742188 134.15625 437.273438 134.789062 439.171875 134.789062 C 439.804688 134.789062 440.4375 134.789062 440.4375 134.789062 C 446.765625 134.789062 452.460938 130.359375 453.09375 123.398438 C 453.726562 116.4375 449.296875 110.109375 442.335938 109.476562 C 439.804688 109.476562 437.90625 108.84375 435.375 108.84375 C 428.414062 108.210938 422.085938 113.273438 421.453125 120.234375 C 420.820312 127.195312 425.882812 133.523438 432.84375 134.15625 Z M 432.84375 134.15625 " fill-opacity="1" fill-rule="nonzero"/><path fill="#666666" d="M 488.53125 145.546875 C 490.429688 146.179688 497.390625 148.078125 498.65625 148.078125 C 503.71875 148.078125 508.78125 144.914062 510.679688 139.851562 C 513.210938 133.523438 509.414062 125.929688 503.085938 124.03125 C 501.1875 123.398438 498.65625 122.765625 496.757812 122.132812 C 490.429688 120.234375 482.835938 123.398438 480.9375 130.359375 C 477.773438 136.6875 481.570312 143.648438 488.53125 145.546875 Z M 488.53125 145.546875 " fill-opacity="1" fill-rule="nonzero"/><path fill="#666666" d="M 321.46875 663.820312 C 319.570312 663.1875 317.671875 662.554688 315.773438 661.921875 C 309.445312 659.390625 301.851562 663.1875 299.953125 669.515625 C 297.421875 675.84375 301.21875 683.4375 307.546875 685.335938 C 309.445312 685.96875 311.976562 686.601562 313.875 687.867188 C 315.140625 688.5 316.40625 688.5 317.671875 688.5 C 322.734375 688.5 327.796875 685.335938 329.695312 679.640625 C 331.59375 673.3125 327.796875 666.351562 321.46875 663.820312 Z M 321.46875 663.820312 " fill-opacity="1" fill-rule="nonzero"/><path fill="#666666" d="M 603.070312 183.515625 C 598.007812 179.085938 589.78125 179.085938 585.351562 184.78125 C 580.921875 189.84375 580.921875 198.070312 586.617188 202.5 C 587.882812 203.765625 589.78125 205.03125 591.046875 206.929688 C 593.578125 209.460938 596.742188 210.09375 599.90625 210.09375 C 603.070312 210.09375 606.867188 208.828125 609.398438 206.296875 C 614.460938 201.234375 613.828125 193.007812 608.765625 188.578125 C 606.867188 186.679688 604.96875 184.78125 603.070312 183.515625 Z M 603.070312 183.515625 " fill-opacity="1" fill-rule="nonzero"/><path fill="#666666" d="M 642.9375 561.9375 C 637.242188 557.507812 629.648438 558.773438 625.21875 564.46875 C 623.953125 566.367188 622.6875 567.632812 621.421875 569.53125 C 616.992188 575.226562 618.257812 582.820312 623.953125 587.25 C 626.484375 589.148438 629.015625 589.78125 631.546875 589.78125 C 635.34375 589.78125 639.140625 587.882812 641.671875 584.71875 C 642.9375 582.820312 644.203125 580.921875 646.101562 579.023438 C 649.898438 573.960938 648.632812 566.367188 642.9375 561.9375 Z M 642.9375 561.9375 " fill-opacity="1" fill-rule="nonzero"/><path fill="#666666" d="M 587.25 606.867188 C 585.984375 608.132812 584.085938 609.398438 582.820312 611.296875 C 577.757812 615.726562 577.125 623.953125 581.554688 629.015625 C 584.085938 632.179688 587.882812 633.445312 591.046875 633.445312 C 594.210938 633.445312 596.742188 632.179688 599.273438 630.28125 C 601.171875 629.015625 603.070312 627.117188 604.335938 625.851562 C 609.398438 621.421875 610.03125 613.195312 604.96875 608.132812 C 600.539062 603.070312 592.3125 602.4375 587.25 606.867188 Z M 587.25 606.867188 " fill-opacity="1" fill-rule="nonzero"/><path fill="#666666" d="M 541.054688 640.40625 C 539.15625 641.671875 537.257812 642.304688 535.359375 643.570312 C 529.03125 646.734375 527.132812 654.328125 530.296875 660.65625 C 532.828125 665.085938 536.625 666.984375 541.6875 666.984375 C 543.585938 666.984375 551.8125 663.1875 553.710938 661.921875 C 560.039062 658.125 561.9375 650.53125 558.140625 644.835938 C 554.976562 639.140625 547.382812 637.242188 541.054688 640.40625 Z M 541.054688 640.40625 " fill-opacity="1" fill-rule="nonzero"/><path fill="#666666" d="M 181.617188 560.039062 C 177.820312 554.34375 169.59375 553.078125 163.898438 556.875 C 158.203125 560.671875 156.9375 568.898438 160.734375 574.59375 C 162 576.492188 163.265625 578.390625 164.53125 580.289062 C 167.0625 583.453125 170.859375 585.351562 174.65625 585.351562 C 177.1875 585.351562 179.71875 584.71875 182.25 582.820312 C 187.945312 578.390625 189.210938 570.796875 184.78125 565.101562 C 183.515625 563.835938 182.882812 561.9375 181.617188 560.039062 Z M 181.617188 560.039062 " fill-opacity="1" fill-rule="nonzero"/><path fill="#666666" d="M 685.96875 451.828125 C 679.007812 450.5625 672.679688 454.992188 670.78125 461.320312 C 670.148438 463.21875 670.148438 465.75 669.515625 467.648438 C 667.617188 474.609375 672.046875 481.570312 679.007812 482.835938 C 680.273438 482.835938 680.90625 483.46875 682.171875 483.46875 C 687.867188 483.46875 692.929688 479.671875 694.195312 473.976562 C 694.828125 471.445312 695.460938 469.546875 695.460938 467.015625 C 697.359375 460.054688 692.929688 453.09375 685.96875 451.828125 Z M 685.96875 451.828125 " fill-opacity="1" fill-rule="nonzero"/><path fill="#666666" d="M 670.148438 509.414062 C 663.820312 506.882812 656.226562 509.414062 653.695312 515.742188 C 653.0625 517.640625 651.796875 519.539062 651.164062 521.4375 C 648 527.765625 651.164062 535.359375 657.492188 538.523438 C 659.390625 539.15625 661.289062 539.789062 663.1875 539.789062 C 668.25 539.789062 672.679688 537.257812 674.578125 532.828125 C 675.84375 530.929688 676.476562 528.398438 677.742188 526.5 C 679.640625 519.539062 676.476562 511.945312 670.148438 509.414062 Z M 670.148438 509.414062 " fill-opacity="1" fill-rule="nonzero"/><path fill="#666666" d="M 689.765625 391.078125 C 682.804688 391.078125 677.109375 396.773438 677.109375 403.734375 L 677.109375 405 C 677.109375 406.898438 677.109375 409.429688 677.109375 411.328125 C 677.109375 418.289062 682.171875 423.984375 689.765625 423.984375 C 696.726562 423.984375 702.421875 418.289062 702.421875 411.328125 C 702.421875 408.796875 702.421875 403.101562 702.421875 403.101562 C 702.421875 396.773438 696.726562 391.078125 689.765625 391.078125 Z M 689.765625 391.078125 " fill-opacity="1" fill-rule="nonzero"/><path fill="#666666" d="M 218.320312 603.070312 C 213.257812 598.007812 205.03125 598.640625 200.601562 603.703125 C 195.539062 608.765625 196.171875 616.992188 201.234375 621.421875 C 203.132812 623.320312 204.398438 624.585938 206.296875 625.851562 C 208.828125 627.75 211.992188 629.015625 214.523438 629.015625 C 217.6875 629.015625 221.484375 627.75 224.015625 624.585938 C 228.445312 619.523438 228.445312 611.296875 222.75 606.867188 C 221.484375 606.234375 220.21875 604.335938 218.320312 603.070312 Z M 218.320312 603.070312 " fill-opacity="1" fill-rule="nonzero"/><path fill="#666666" d="M 377.15625 675.84375 C 375.257812 675.84375 372.726562 675.210938 370.828125 675.210938 C 363.867188 674.578125 357.539062 679.007812 356.90625 685.96875 C 356.273438 692.929688 360.703125 699.257812 367.664062 699.890625 C 370.195312 699.890625 375.257812 700.523438 375.890625 700.523438 C 382.21875 700.523438 387.914062 695.460938 388.546875 689.132812 C 388.546875 682.804688 383.484375 676.476562 377.15625 675.84375 Z M 377.15625 675.84375 " fill-opacity="1" fill-rule="nonzero"/><path fill="#666666" d="M 186.046875 222.75 C 180.351562 218.320312 172.757812 219.585938 168.328125 225.28125 C 167.0625 227.179688 165.796875 229.078125 163.898438 230.976562 C 160.101562 236.671875 161.367188 244.265625 166.429688 248.695312 C 168.960938 250.59375 171.492188 251.226562 174.023438 251.226562 C 177.820312 251.226562 181.617188 249.328125 184.148438 246.164062 C 185.414062 244.265625 186.679688 243 187.945312 241.101562 C 192.375 234.773438 191.109375 227.179688 186.046875 222.75 Z M 186.046875 222.75 " fill-opacity="1" fill-rule="nonzero"/><path fill="#666666" d="M 268.945312 641.039062 C 267.046875 639.773438 265.148438 639.140625 263.25 637.875 C 257.554688 634.078125 249.328125 635.976562 246.164062 642.304688 C 242.367188 648 244.265625 656.226562 250.59375 660.023438 C 252.492188 661.289062 260.71875 665.085938 262.617188 665.085938 C 267.046875 665.085938 271.476562 662.554688 273.375 658.757812 C 277.171875 652.429688 275.273438 644.203125 268.945312 641.039062 Z M 268.945312 641.039062 " fill-opacity="1" fill-rule="nonzero"/><path fill="#666666" d="M 489.164062 663.820312 C 487.265625 664.453125 485.367188 665.085938 482.835938 665.71875 C 475.875 667.617188 472.078125 674.578125 474.609375 681.539062 C 476.507812 687.234375 481.570312 690.398438 486.632812 690.398438 C 487.898438 690.398438 494.859375 688.5 496.757812 687.867188 C 503.71875 685.96875 506.882812 678.375 504.984375 672.046875 C 503.085938 665.085938 496.125 661.921875 489.164062 663.820312 Z M 489.164062 663.820312 " fill-opacity="1" fill-rule="nonzero"/><path fill="#666666" d="M 433.476562 675.84375 C 431.578125 675.84375 429.046875 676.476562 427.148438 676.476562 C 420.1875 677.109375 415.125 683.4375 415.757812 690.398438 C 416.390625 696.726562 422.085938 701.789062 428.414062 701.789062 C 429.046875 701.789062 434.109375 701.15625 436.640625 701.15625 C 443.601562 700.523438 448.664062 694.195312 448.03125 687.234375 C 446.765625 679.640625 440.4375 675.210938 433.476562 675.84375 Z M 433.476562 675.84375 " fill-opacity="1" fill-rule="nonzero"/><path fill="#666666" d="M 784.6875 451.195312 C 796.710938 437.90625 810 423.351562 810 405 C 810 386.648438 796.710938 372.09375 784.6875 358.804688 C 776.460938 349.945312 768.234375 340.453125 766.96875 332.859375 C 765.070312 324.632812 769.5 312.609375 773.929688 301.21875 C 780.257812 284.132812 786.585938 266.414062 779.625 249.960938 C 772.664062 233.507812 754.945312 224.648438 738.492188 217.054688 C 727.734375 211.992188 716.34375 206.296875 711.914062 199.96875 C 707.484375 193.640625 706.851562 180.351562 706.21875 168.328125 C 705.585938 149.976562 704.320312 130.992188 691.664062 118.335938 C 679.007812 105.679688 660.023438 104.414062 641.671875 103.78125 C 629.648438 103.148438 616.992188 102.515625 610.03125 98.085938 C 603.703125 93.65625 598.007812 82.265625 592.945312 71.507812 C 585.351562 55.6875 577.125 37.335938 560.039062 30.375 C 543.585938 23.414062 525.867188 29.742188 508.78125 36.070312 C 497.390625 40.5 485.367188 44.296875 477.140625 43.03125 C 469.546875 41.765625 460.6875 32.90625 451.195312 25.3125 C 437.90625 13.289062 423.351562 0 405 0 C 386.648438 0 372.09375 13.289062 358.804688 25.3125 C 349.945312 33.539062 340.453125 41.765625 332.859375 43.03125 C 324.632812 44.929688 312.609375 40.5 301.21875 36.070312 C 284.132812 29.742188 266.414062 23.414062 249.960938 30.375 C 233.507812 37.335938 224.648438 55.054688 217.054688 71.507812 C 211.992188 82.265625 206.296875 93.65625 199.96875 98.085938 C 193.640625 102.515625 180.351562 103.148438 168.328125 103.78125 C 149.976562 104.414062 130.992188 105.679688 118.335938 118.335938 C 105.679688 130.992188 104.414062 149.976562 103.78125 168.328125 C 103.148438 180.351562 102.515625 193.007812 98.085938 199.96875 C 93.65625 206.296875 82.265625 211.992188 71.507812 217.054688 C 55.6875 224.648438 37.335938 232.875 30.375 249.960938 C 23.414062 266.414062 29.742188 284.132812 36.070312 301.21875 C 40.5 312.609375 44.296875 324.632812 43.03125 332.859375 C 41.765625 340.453125 32.90625 349.3125 25.3125 358.804688 C 13.289062 372.09375 0 386.648438 0 405 C 0 423.351562 13.289062 437.90625 25.3125 451.195312 C 33.539062 460.054688 41.765625 469.546875 43.03125 477.140625 C 44.929688 485.367188 40.5 497.390625 36.070312 508.78125 C 29.742188 525.867188 23.414062 543.585938 30.375 560.039062 C 37.335938 576.492188 55.054688 585.351562 71.507812 592.945312 C 82.265625 598.007812 93.65625 603.703125 98.085938 610.03125 C 102.515625 616.359375 103.148438 629.648438 103.78125 641.671875 C 104.414062 660.023438 105.679688 679.007812 118.335938 691.664062 C 130.992188 704.320312 149.976562 705.585938 168.328125 706.21875 C 180.351562 706.851562 193.007812 707.484375 199.96875 711.914062 C 206.296875 716.34375 211.992188 727.734375 217.054688 738.492188 C 224.648438 754.3125 232.875 772.664062 249.960938 779.625 C 266.414062 786.585938 284.132812 780.257812 301.21875 773.929688 C 312.609375 769.5 325.265625 765.703125 332.859375 766.96875 C 340.453125 768.234375 349.3125 777.09375 358.804688 784.6875 C 372.09375 796.710938 386.648438 810 405 810 C 423.351562 810 437.90625 796.710938 451.195312 784.6875 C 460.054688 776.460938 469.546875 768.234375 477.140625 766.96875 C 485.367188 765.703125 497.390625 769.5 508.78125 773.929688 C 525.867188 780.257812 543.585938 786.585938 560.039062 779.625 C 576.492188 772.664062 585.351562 754.945312 592.945312 738.492188 C 598.007812 727.734375 603.703125 716.34375 610.03125 711.914062 C 616.359375 707.484375 629.648438 706.851562 641.671875 706.21875 C 660.023438 705.585938 679.007812 704.320312 691.664062 691.664062 C 704.320312 679.007812 705.585938 660.023438 706.21875 641.671875 C 706.851562 629.648438 707.484375 616.992188 711.914062 610.03125 C 716.34375 603.703125 727.734375 598.007812 738.492188 592.945312 C 754.3125 585.351562 772.664062 577.125 779.625 560.039062 C 786.585938 543.585938 780.257812 525.867188 773.929688 508.78125 C 769.5 497.390625 765.703125 485.367188 766.96875 477.140625 C 768.234375 469.546875 776.460938 460.054688 784.6875 451.195312 Z M 765.703125 434.109375 C 755.578125 445.5 744.820312 457.523438 741.65625 472.078125 C 738.492188 486.632812 744.1875 502.453125 749.25 517.007812 C 753.679688 529.664062 758.109375 542.953125 755.578125 549.914062 C 752.414062 557.507812 739.757812 563.835938 727.101562 569.53125 C 713.179688 576.492188 698.625 582.820312 690.398438 595.476562 C 682.171875 608.132812 681.539062 623.953125 680.273438 639.773438 C 679.640625 653.0625 679.007812 667.617188 673.3125 673.3125 C 667.617188 679.007812 653.695312 679.640625 639.773438 680.273438 C 623.953125 680.90625 608.132812 682.171875 595.476562 690.398438 C 583.453125 698.625 576.492188 713.179688 569.53125 727.101562 C 563.835938 739.125 557.507812 752.414062 549.914062 755.578125 C 542.320312 758.742188 529.664062 753.679688 517.007812 749.25 C 501.820312 744.1875 486.632812 738.492188 472.078125 741.65625 C 457.523438 744.1875 446.132812 754.945312 434.109375 765.703125 C 423.984375 775.195312 413.226562 784.6875 405 784.6875 C 396.773438 784.6875 386.015625 775.195312 375.890625 765.703125 C 364.5 755.578125 352.476562 744.820312 337.921875 741.65625 C 334.757812 741.023438 332.226562 741.023438 329.0625 741.023438 C 317.039062 741.023438 304.382812 745.453125 292.359375 749.882812 C 279.703125 754.3125 266.414062 758.742188 259.453125 756.210938 C 251.859375 753.046875 245.53125 740.390625 239.835938 727.734375 C 232.875 713.8125 226.546875 699.257812 213.890625 691.03125 C 201.234375 682.804688 185.414062 682.171875 169.59375 680.90625 C 156.304688 680.273438 141.75 679.640625 136.054688 673.945312 C 130.359375 668.25 129.726562 654.328125 129.09375 640.40625 C 128.460938 624.585938 127.195312 608.765625 118.96875 596.109375 C 110.742188 584.085938 96.1875 577.125 82.265625 570.164062 C 70.242188 564.46875 56.953125 558.140625 53.789062 550.546875 C 50.625 542.953125 55.6875 530.296875 60.117188 517.640625 C 65.179688 502.453125 70.875 487.265625 67.710938 472.710938 C 65.179688 458.15625 54.421875 446.765625 43.664062 434.742188 C 34.804688 423.984375 25.3125 413.859375 25.3125 405 C 25.3125 396.140625 34.804688 386.015625 44.296875 375.890625 C 54.421875 364.5 65.179688 352.476562 68.34375 337.921875 C 71.507812 323.367188 65.8125 307.546875 60.75 292.992188 C 56.320312 280.335938 51.890625 267.046875 54.421875 260.085938 C 57.585938 252.492188 70.242188 246.164062 82.898438 240.46875 C 96.820312 233.507812 111.375 227.179688 119.601562 214.523438 C 127.828125 201.867188 128.460938 186.046875 129.726562 170.226562 C 130.359375 156.9375 130.992188 142.382812 136.6875 136.6875 C 142.382812 130.992188 156.304688 130.359375 170.226562 129.726562 C 186.046875 129.09375 201.867188 127.828125 214.523438 119.601562 C 226.546875 111.375 233.507812 96.820312 240.46875 82.898438 C 246.164062 70.875 252.492188 57.585938 260.085938 54.421875 C 267.679688 51.257812 280.335938 56.320312 292.992188 60.75 C 308.179688 65.8125 323.367188 71.507812 337.921875 68.34375 C 352.476562 65.8125 363.867188 55.054688 375.890625 44.296875 C 386.015625 34.804688 396.140625 25.3125 405 25.3125 C 413.859375 25.3125 423.984375 34.804688 434.109375 44.296875 C 445.5 54.421875 457.523438 65.179688 472.078125 68.34375 C 486.632812 71.507812 502.453125 65.8125 517.007812 60.75 C 529.664062 56.320312 542.953125 51.257812 549.914062 54.421875 C 557.507812 57.585938 563.835938 70.242188 569.53125 82.898438 C 576.492188 96.820312 582.820312 111.375 595.476562 119.601562 C 608.132812 127.828125 623.953125 128.460938 639.773438 129.726562 C 653.0625 130.359375 667.617188 130.992188 673.3125 136.6875 C 679.007812 142.382812 679.640625 156.304688 680.273438 170.226562 C 680.90625 186.046875 682.171875 201.867188 690.398438 214.523438 C 698.625 226.546875 713.179688 233.507812 727.101562 240.46875 C 739.125 246.164062 752.414062 252.492188 755.578125 260.085938 C 758.742188 267.679688 753.679688 280.335938 749.25 292.992188 C 744.1875 308.179688 738.492188 323.367188 741.65625 337.921875 C 744.1875 352.476562 754.945312 363.867188 765.703125 375.890625 C 775.195312 386.015625 784.6875 396.773438 784.6875 405 C 784.6875 413.226562 775.195312 423.984375 765.703125 434.109375 Z M 765.703125 434.109375 " fill-opacity="1" fill-rule="nonzero"/><path fill="#666666" d="M 582.1875 542.953125 C 579.023438 543.585938 575.859375 544.21875 573.328125 544.21875 C 567.632812 544.21875 562.570312 542.953125 556.875 540.421875 L 556.875 556.875 C 556.875 563.835938 551.179688 568.898438 544.21875 568.898438 L 265.78125 568.898438 C 258.820312 568.898438 253.125 563.203125 253.125 556.875 L 253.125 460.054688 C 253.125 456.257812 253.125 445.5 255.65625 438.539062 C 258.820312 428.414062 270.210938 423.351562 270.210938 423.351562 C 270.210938 423.351562 270.84375 423.351562 270.84375 422.71875 L 344.25 382.21875 L 394.875 441.703125 C 397.40625 444.867188 400.570312 446.132812 405 446.132812 L 406.265625 446.132812 C 410.0625 446.132812 413.226562 444.234375 415.757812 441.703125 L 467.015625 382.21875 L 490.429688 395.507812 L 494.859375 394.875 L 503.71875 375.890625 C 503.71875 375.257812 504.351562 375.257812 504.351562 374.625 L 469.546875 355.640625 C 468.28125 355.007812 467.015625 354.375 465.117188 354.375 L 465.117188 329.0625 C 473.34375 317.039062 477.773438 303.117188 477.773438 287.296875 L 477.773438 243.632812 C 477.773438 203.132812 446.132812 170.859375 407.53125 170.859375 L 402.46875 170.859375 C 363.867188 170.859375 332.226562 203.765625 332.226562 243.632812 L 332.226562 287.296875 C 332.226562 302.484375 336.65625 317.039062 344.882812 329.0625 L 344.882812 354.375 C 343.617188 354.375 342.351562 355.007812 340.453125 355.640625 L 258.820312 400.570312 C 255.023438 402.46875 237.304688 411.960938 230.976562 431.578125 C 227.8125 444.234375 227.8125 459.421875 227.8125 460.6875 L 227.8125 556.875 C 227.8125 577.757812 244.898438 594.210938 265.78125 594.210938 L 544.21875 594.210938 C 565.101562 594.210938 582.1875 577.125 582.1875 556.875 Z M 405 415.125 L 370.195312 374.625 L 370.195312 352.476562 C 379.6875 357.539062 391.078125 360.703125 402.46875 360.703125 L 407.53125 360.703125 C 418.921875 360.703125 430.3125 357.539062 439.804688 352.476562 L 439.804688 374.625 Z M 357.539062 243.632812 C 357.539062 217.054688 377.789062 196.171875 402.46875 196.171875 L 407.53125 196.171875 C 432.210938 196.171875 452.460938 217.6875 452.460938 243.632812 L 452.460938 287.296875 C 452.460938 313.875 432.210938 334.757812 407.53125 334.757812 L 402.46875 334.757812 C 377.789062 334.757812 357.539062 313.242188 357.539062 287.296875 Z M 357.539062 243.632812 " fill-opacity="1" fill-rule="nonzero"/><path fill="#666666" d="M 468.914062 431.578125 C 467.648438 436.007812 468.28125 441.070312 472.078125 444.234375 L 496.125 468.914062 L 490.429688 503.71875 C 489.796875 508.78125 491.695312 513.210938 495.492188 516.375 C 499.289062 518.90625 504.351562 519.539062 508.78125 517.007812 L 537.890625 501.1875 C 537.890625 501.1875 567 517.007812 567 517.007812 C 571.429688 519.539062 576.492188 518.90625 580.289062 516.375 C 584.085938 513.84375 585.984375 508.78125 585.351562 503.71875 L 579.65625 468.914062 L 603.703125 444.234375 C 606.867188 441.070312 608.132812 436.007812 606.867188 431.578125 C 605.601562 427.148438 601.171875 423.984375 596.742188 423.351562 L 563.835938 418.289062 L 549.28125 386.648438 C 547.382812 382.21875 542.953125 379.054688 537.890625 379.054688 C 532.828125 379.054688 528.398438 381.585938 526.5 386.648438 L 511.945312 418.289062 L 479.039062 423.351562 C 474.609375 423.984375 470.179688 427.148438 468.914062 431.578125 Z M 522.070312 442.335938 C 526.5 441.703125 529.664062 439.171875 531.5625 435.375 L 537.890625 422.085938 L 544.21875 435.375 C 546.117188 439.171875 549.28125 441.703125 553.710938 442.335938 L 568.898438 444.867188 L 557.507812 456.257812 C 554.976562 459.421875 553.710938 463.21875 554.34375 467.015625 L 556.875 482.203125 L 544.21875 475.242188 C 542.320312 473.976562 540.421875 473.34375 537.890625 473.34375 C 535.359375 473.34375 533.460938 473.976562 531.5625 475.242188 L 518.90625 482.203125 L 521.4375 467.015625 C 522.070312 463.21875 520.804688 458.789062 518.273438 456.257812 L 506.882812 444.867188 Z M 522.070312 442.335938 " fill-opacity="1" fill-rule="nonzero"/><g clip-path="url(#15a3e7a5bf)"><g clip-path="url(#6544228932)"><g transform="matrix(1, 0, 0, 1, 53, 215)"><g clip-path="url(#08be671a51)"><g clip-path="url(#de66a081ae)"><g clip-path="url(#262fedfc1d)"><rect x="-231.2" width="1166.4" fill="#666666" height="1166.39999" y="-393.199998" fill-opacity="1"/></g></g></g></g></g></g></svg>